{
.appVersion = "1176";
DisplayStrings = (
"/Lcaron/dcaron í/ibreve ïì/ij/imacron/lcaron/ldot/napostrophe/tcaron/uni1E2F/ae.sc/aeacute.sc/uni01E3.sc/ij.sc/ldot.sc/oe.sc/germandbls.sc/uni0233.sc/afii10017/afii10019/afii10052/afii10022/uni0400/afii10023/afii10030/afii10031/afii10036/afii10055/afii10074/uni045D/afii10081/afii10082/afii10084/afii10085/afii10087/afii10103/afii10104/afii10108/uni03F7/iotadieresis/uni03F3 µ"
);
copyright = "Copyright (c) 2010, Sebastian Kosch (sebastian@aldusleaf.org),\012with Reserved Font Name \"Crimson\".\012This Font Software is licensed under the SIL Open Font License, Version 1.1.\012This license is available with a FAQ at: http://scripts.sil.org/OFL";
customParameters = (
{
name = note;
value = "2010-5-9: Created.";
},
{
name = openTypeNameLicense;

glyphs = (
{
glyphname = A;
lastChange = "2017-07-12 19:24:35 +0000";
layers = (
{
layerId = "42F082D8-1FA6-4D23-B964-75333DCE4509";
paths = (
{
closed = 1;
nodes = (
"341 26 CURVE",
"376 26 OFFCURVE",
"398 37 OFFCURVE",
"398 57 CURVE SMOOTH",
"398 67 OFFCURVE",
"398 87 OFFCURVE",
"395 106 CURVE SMOOTH",
"373 256 LINE",
"174 256 LINE",
"140 194 OFFCURVE",
"112 142 OFFCURVE",
"103 125 CURVE SMOOTH",
"85 90 OFFCURVE",
"74 65 OFFCURVE",
"74 50 CURVE SMOOTH",
"74 29 OFFCURVE",
"129 26 OFFCURVE",
"136 26 CURVE",
"138 23 OFFCURVE",
"135 3 OFFCURVE",
"132 -3 CURVE",
"95 -1 OFFCURVE",
"84 2 OFFCURVE",
"43 2 CURVE SMOOTH",
"0 2 OFFCURVE",
"-12 -1 OFFCURVE",
"-55 -3 CURVE",
"-57 0 OFFCURVE",
"-53 19 OFFCURVE",
"-49 26 CURVE",
"-38 26 OFFCURVE",
"-4 32 OFFCURVE",
"8 45 CURVE SMOOTH",
"32 71 OFFCURVE",
"50 103 OFFCURVE",
"70 139 CURVE SMOOTH",
"346 634 LINE SMOOTH",
"355 650 OFFCURVE",
"378 663 OFFCURVE",
"386 663 CURVE SMOOTH",
"389 663 OFFCURVE",
"390 661 OFFCURVE",
"391 660 CURVE SMOOTH",
"477 126 LINE SMOOTH",
"483 89 OFFCURVE",
"487 62 OFFCURVE",
"488 58 CURVE SMOOTH",
"494 29 OFFCURVE",
"544 26 OFFCURVE",
"551 26 CURVE",
"554 19 OFFCURVE",
"550 0 OFFCURVE",
"548 -3 CURVE",
"511 -1 OFFCURVE",
"480 2 OFFCURVE",
"439 2 CURVE SMOOTH",
"396 2 OFFCURVE",
"378 -1 OFFCURVE",
"335 -3 CURVE",
"331 2 OFFCURVE",
"335 21 OFFCURVE"
);
},
{
closed = 1;
nodes = (
"192 289 LINE",
"367 289 LINE",
"329 535 LINE"
);
}
);
width = 586;
}
);
unicode = 0041;
userData = {
com.fontlab.hintData = {
hhints = (
{
position = -3;
width = 29;
},
{
position = 256;
width = 33;
},
{
position = 643;
width = 20;
}
);
};
};
},
{
glyphname = Aogonek;
lastChange = "2017-07-12 19:24:35 +0000";
layers = (
{
layerId = "42F082D8-1FA6-4D23-B964-75333DCE4509";
paths = (
{
closed = 1;
nodes = (
"488 60 CURVE SMOOTH",
"493 36 OFFCURVE",
"537 26 OFFCURVE",
"544 26 CURVE",
"547 19 OFFCURVE",
"543 0 OFFCURVE",
"541 -3 CURVE",
"504 -1 OFFCURVE",
"529 0 OFFCURVE",
"493 0 CURVE SMOOTH",
"384 0 OFFCURVE",
"307 -104 OFFCURVE",
"307 -139 CURVE SMOOTH",
"307 -154 OFFCURVE",
"313 -171 OFFCURVE",
"338 -171 CURVE SMOOTH",
"385 -171 OFFCURVE",
"415 -133 OFFCURVE",
"421 -133 CURVE SMOOTH",
"429 -133 OFFCURVE",
"418 -160 OFFCURVE",
"415 -163 CURVE SMOOTH",
"389 -192 OFFCURVE",
"346 -230 OFFCURVE",
"304 -230 CURVE SMOOTH",
"274 -230 OFFCURVE",
"253 -205 OFFCURVE",
"253 -178 CURVE SMOOTH",
"253 -123 OFFCURVE",
"316 -56 OFFCURVE",
"361 -11 CURVE SMOOTH",
"382 10 OFFCURVE",
"398 15 OFFCURVE",
"398 53 CURVE SMOOTH",
"398 65 OFFCURVE",
"396 97 OFFCURVE",
"395 106 CURVE SMOOTH",
"373 256 LINE",
"174 256 LINE",
"140 194 OFFCURVE",
"112 142 OFFCURVE",
"103 125 CURVE SMOOTH",
"85 90 OFFCURVE",
"74 65 OFFCURVE",
"74 50 CURVE SMOOTH",
"74 29 OFFCURVE",
"129 26 OFFCURVE",
"136 26 CURVE",
"138 23 OFFCURVE",
"135 3 OFFCURVE",
"132 -3 CURVE",
"95 -1 OFFCURVE",
"84 2 OFFCURVE",
"43 2 CURVE SMOOTH",
"0 2 OFFCURVE",
"-12 -1 OFFCURVE",
"-55 -3 CURVE",
"-57 0 OFFCURVE",
"-53 19 OFFCURVE",
"-49 26 CURVE",
"-38 26 OFFCURVE",
"-4 32 OFFCURVE",
"8 45 CURVE SMOOTH",
"32 71 OFFCURVE",
"50 103 OFFCURVE",
"70 139 CURVE SMOOTH",
"346 634 LINE SMOOTH",
"355 650 OFFCURVE",
"378 663 OFFCURVE",
"386 663 CURVE SMOOTH",
"389 663 OFFCURVE",
"390 661 OFFCURVE",
"391 660 CURVE SMOOTH",
"477 126 LINE SMOOTH",
"479 115 OFFCURVE",
"484 80 OFFCURVE"
);
},
{
closed = 1;
nodes = (
"192 289 LINE",
"367 289 LINE",
"329 535 LINE"
);
}
);
width = 586;
}
);
unicode = 0104;
userData = {
com.fontlab.hintData = {
hhints = (
{
position = -230;
width = 59;
},
{
position = -3;
width = 29;
},
{
position = 256;
width = 33;
},
{
position = 643;
width = 20;
}
);
vhints = (
{
position = 253;
width = 54;
}
);
};
};
},
{
glyphname = AE;
lastChange = "2017-07-12 19:24:35 +0000";
layers = (
{
layerId = "42F082D8-1FA6-4D23-B964-75333DCE4509";
paths = (
{
closed = 1;
nodes = (
"388 307 LINE",
"243 307 LINE",
"122 131 LINE SMOOTH",
"87 81 OFFCURVE",
"77 61 OFFCURVE",
"77 50 CURVE SMOOTH",
"77 34 OFFCURVE",
"124 24 OFFCURVE",
"134 24 CURVE SMOOTH",
"135 24 OFFCURVE",
"134 2 OFFCURVE",
"131 -3 CURVE",
"94 -1 OFFCURVE",
"78 2 OFFCURVE",
"37 2 CURVE SMOOTH",
"-6 2 OFFCURVE",
"-16 -1 OFFCURVE",
"-59 -3 CURVE",
"-60 -2 OFFCURVE",
"-60 24 OFFCURVE",
"-56 24 CURVE SMOOTH",
"-45 24 OFFCURVE",
"-6 32 OFFCURVE",
"8 45 CURVE SMOOTH",
"37 71 OFFCURVE",
"62 102 OFFCURVE",
"87 139 CURVE SMOOTH",
"395 586 LINE SMOOTH",
"397 590 OFFCURVE",
"400 595 OFFCURVE",
"400 601 CURVE SMOOTH",
"400 612 OFFCURVE",
"392 625 OFFCURVE",
"370 625 CURVE",
"366 628 OFFCURVE",
"367 650 OFFCURVE",
"370 656 CURVE",
"468 657 LINE SMOOTH",
"555 657 OFFCURVE",
"663 664 OFFCURVE",
"764 664 CURVE",
"765 614 OFFCURVE",
"772 573 OFFCURVE",
"776 528 CURVE",
"773 525 OFFCURVE",
"765 523 OFFCURVE",
"758 523 CURVE SMOOTH",
"751 523 OFFCURVE",
"746 525 OFFCURVE",
"746 530 CURVE SMOOTH",
"735 610 OFFCURVE",
"699 630 OFFCURVE",
"650 630 CURVE SMOOTH",
"570 630 LINE SMOOTH",
"559 630 OFFCURVE",
"509 629 OFFCURVE",
"505 619 CURVE SMOOTH",
"498 603 OFFCURVE",
"494 574 OFFCURVE",
"491 547 CURVE SMOOTH",
"470 347 LINE SMOOTH",
"469 342 OFFCURVE",
"489 341 OFFCURVE",
"509 341 CURVE SMOOTH",
"558 341 LINE SMOOTH",
"647 341 OFFCURVE",
"645 347 OFFCURVE",
"669 413 CURVE SMOOTH",
"671 418 OFFCURVE",
"677 420 OFFCURVE",
"684 420 CURVE SMOOTH",
"691 420 OFFCURVE",
"696 418 OFFCURVE",
"698 415 CURVE",
"678 226 LINE",
"676 224 OFFCURVE",
"669 222 OFFCURVE",
"662 222 CURVE SMOOTH",
"655 222 OFFCURVE",
"650 225 OFFCURVE",
"649 230 CURVE SMOOTH",
"641 287 OFFCURVE",
"637 294 OFFCURVE",
"630 300 CURVE SMOOTH",
"620 307 OFFCURVE",
"567 308 OFFCURVE",
"532 308 CURVE SMOOTH",
"506 308 OFFCURVE",
"466 308 OFFCURVE",
"465 299 CURVE SMOOTH",
"446 109 LINE SMOOTH",
"445 94 OFFCURVE",
"440 45 OFFCURVE",
"445 40 CURVE SMOOTH",
"456 30 OFFCURVE",
"471 30 OFFCURVE",
"510 30 CURVE SMOOTH",
"554 30 LINE SMOOTH",
"605 30 OFFCURVE",
"643 40 OFFCURVE",
"673 61 CURVE SMOOTH",
"699 79 OFFCURVE",
"722 109 OFFCURVE",
"743 162 CURVE SMOOTH",
"745 166 OFFCURVE",
"750 168 OFFCURVE",
"757 168 CURVE SMOOTH",
"766 168 OFFCURVE",
"778 165 OFFCURVE",
"780 162 CURVE",
"756 108 OFFCURVE",
"721 40 OFFCURVE",
"710 -4 CURVE",
"609 -4 OFFCURVE",
"517 0 OFFCURVE",
"394 0 CURVE SMOOTH",
"345 0 OFFCURVE",
"270 -3 OFFCURVE",
"270 -3 CURVE",
"268 2 OFFCURVE",
"271 29 OFFCURVE",
"276 31 CURVE",
"287 31 OFFCURVE",
"338 37 OFFCURVE",
"349 50 CURVE SMOOTH",
"365 69 OFFCURVE",
"368 89 OFFCURVE",
"371 124 CURVE SMOOTH"
);
},
{
closed = 1;
nodes = (
"391 341 LINE",
"411 550 LINE",
"267 341 LINE"
);
}
);
width = 785;
}
);
unicode = 00C6;
userData = {
com.fontlab.hintData = {
hhints = (
{
position = -3;
width = 27;
},
{
position = 307;
width = 34;
},
{
position = 630;
width = 34;
},
{
position = 630;
width = 27;
}
);
vhints = (
{
position = 649;
width = 29;
},
{
position = 746;
width = 18;
}
);
};
};
},
{
glyphname = B;
lastChange = "2017-07-12 19:24:35 +0000";
layers = (
{
layerId = "42F082D8-1FA6-4D23-B964-75333DCE4509";
paths = (
{
closed = 1;
nodes = (
"218 370 LINE",
"312 370 LINE SMOOTH",
"379 370 OFFCURVE",
"433 437 OFFCURVE",
"433 522 CURVE SMOOTH",
"433 578 OFFCURVE",
"405 630 OFFCURVE",
"319 630 CURVE SMOOTH",
"308 630 OFFCURVE",
"275 629 OFFCURVE",
"270 620 CURVE SMOOTH",
"263 608 OFFCURVE",
"257 575 OFFCURVE",
"251 545 CURVE SMOOTH"
);
},
{
closed = 1;
nodes = (
"211 339 LINE",
"167 114 LINE SMOOTH",
"164 100 OFFCURVE",
"156 50 OFFCURVE",
"161 43 CURVE SMOOTH",
"172 27 OFFCURVE",
"197 26 OFFCURVE",
"231 26 CURVE SMOOTH",
"334 26 OFFCURVE",
"409 96 OFFCURVE",
"409 220 CURVE SMOOTH",
"409 250 OFFCURVE",
"411 339 OFFCURVE",
"268 339 CURVE SMOOTH"
);
},
{
closed = 1;
nodes = (
"233 657 CURVE SMOOTH",
"269 657 OFFCURVE",
"310 659 OFFCURVE",
"365 659 CURVE SMOOTH",
"450 659 OFFCURVE",
"521 623 OFFCURVE",
"521 537 CURVE SMOOTH",
"521 437 OFFCURVE",
"441 387 OFFCURVE",
"401 366 CURVE",
"446 362 OFFCURVE",
"504 308 OFFCURVE",
"504 226 CURVE SMOOTH",
"504 90 OFFCURVE",
"378 -3 OFFCURVE",
"209 -3 CURVE SMOOTH",
"-5 -3 LINE",
"-9 2 OFFCURVE",
"-4 21 OFFCURVE",
"1 26 CURVE",
"12 26 OFFCURVE",
"63 31 OFFCURVE",
"68 42 CURVE SMOOTH",
"76 58 OFFCURVE",
"81 86 OFFCURVE",
"87 116 CURVE SMOOTH",
"170 543 LINE SMOOTH",
"176 573 OFFCURVE",
"181 602 OFFCURVE",
"180 617 CURVE SMOOTH",
"180 629 OFFCURVE",
"130 633 OFFCURVE",
"119 633 CURVE",
"116 638 OFFCURVE",
"118 657 OFFCURVE",
"124 662 CURVE",
"162 660 OFFCURVE",
"197 657 OFFCURVE"
);
}
);
width = 566;
}
);
unicode = 0042;
userData = {
com.fontlab.hintData = {
hhints = (
{
position = -3;
width = 29;
},
{
position = 339;
width = 31;
},
{
position = 630;
width = 29;
}
);
vhints = (
{
position = 409;
width = 95;
},
{
position = 433;
width = 88;
}
);
};
};
},
{
glyphname = C;
lastChange = "2017-07-12 19:24:35 +0000";
layers = (
{
layerId = "42F082D8-1FA6-4D23-B964-75333DCE4509";
paths = (
{
closed = 1;
nodes = (
"569 173 CURVE",
"582 173 OFFCURVE",
"597 165 OFFCURVE",
"597 165 CURVE",
"593 145 OFFCURVE",
"540 40 OFFCURVE",
"525 28 CURVE",
"471 0 OFFCURVE",
"416 -8 OFFCURVE",
"330 -8 CURVE SMOOTH",
"168 -8 OFFCURVE",
"59 117 OFFCURVE",
"59 265 CURVE SMOOTH",
"59 517 OFFCURVE",
"258 670 OFFCURVE",
"465 666 CURVE SMOOTH",
"523 665 OFFCURVE",
"577 652 OFFCURVE",
"626 640 CURVE",
"624 604 OFFCURVE",
"619 522 OFFCURVE",
"616 494 CURVE SMOOTH",
"616 491 OFFCURVE",
"612 489 OFFCURVE",
"608 489 CURVE SMOOTH",
"602 489 OFFCURVE",
"593 490 OFFCURVE",
"585 494 CURVE",
"590 574 OFFCURVE",
"520 635 OFFCURVE",
"436 635 CURVE SMOOTH",
"280 635 OFFCURVE",
"153 499 OFFCURVE",
"154 282 CURVE SMOOTH",
"154 163 OFFCURVE",
"208 21 OFFCURVE",
"358 21 CURVE SMOOTH",
"460 21 OFFCURVE",
"526 91 OFFCURVE"
);
}
);
width = 645;
}
);
unicode = 0043;
userData = {
com.fontlab.hintData = {
hhints = (
{
position = -8;
width = 29;
},
{
position = 635;
width = 31;
}
);
vhints = (
{
position = 59;
width = 95;
},
{
position = 585;
width = 31;
}
);
};
};
},
{
glyphname = D;
lastChange = "2017-07-12 19:24:35 +0000";
layers = (
{
layerId = "42F082D8-1FA6-4D23-B964-75333DCE4509";
paths = (
{
closed = 1;
nodes = (
"252 546 CURVE SMOOTH",
"167 112 LINE SMOOTH",
"164 98 OFFCURVE",
"156 46 OFFCURVE",
"159 40 CURVE SMOOTH",
"164 29 OFFCURVE",
"198 26 OFFCURVE",
"232 26 CURVE SMOOTH",
"375 26 OFFCURVE",
"511 118 OFFCURVE",
"549 313 CURVE SMOOTH",
"593 539 OFFCURVE",
"491 631 OFFCURVE",
"338 631 CURVE SMOOTH",
"327 631 OFFCURVE",
"276 630 OFFCURVE",
"271 620 CURVE SMOOTH",
"263 604 OFFCURVE",
"258 575 OFFCURVE"
);
},
{
closed = 1;
nodes = (
"368 658 CURVE SMOOTH",
"583 658 OFFCURVE",
"681 519 OFFCURVE",
"645 334 CURVE SMOOTH",
"612 164 OFFCURVE",
"499 -2 OFFCURVE",
"228 -3 CURVE",
"-5 -3 LINE",
"-9 2 OFFCURVE",
"-4 21 OFFCURVE",
"1 26 CURVE",
"12 26 OFFCURVE",
"63 31 OFFCURVE",
"68 42 CURVE SMOOTH",
"76 58 OFFCURVE",
"81 86 OFFCURVE",
"87 116 CURVE SMOOTH",
"170 543 LINE SMOOTH",
"176 573 OFFCURVE",
"182 601 OFFCURVE",
"180 617 CURVE SMOOTH",
"179 628 OFFCURVE",
"130 633 OFFCURVE",
"119 633 CURVE",
"116 638 OFFCURVE",
"118 657 OFFCURVE",
"124 662 CURVE",
"162 660 OFFCURVE",
"197 657 OFFCURVE",
"233 657 CURVE SMOOTH",
"269 657 OFFCURVE",
"327 658 OFFCURVE"
);
}
);
width = 684;
}
);
unicode = 0044;
userData = {
com.fontlab.hintData = {
hhints = (
{
position = -3;
width = 29;
},
{
position = 631;
width = 26;
}
);
};
};
},
{
glyphname = Eth;
lastChange = "2017-07-12 19:24:35 +0000";
layers = (
{
components = (
{
name = D;
}
);
layerId = "42F082D8-1FA6-4D23-B964-75333DCE4509";
paths = (
{
closed = 1;
nodes = (
"79 349 CURVE",
"107 349 OFFCURVE",
"396 349 OFFCURVE",
"409 349 CURVE SMOOTH",
"413 349 OFFCURVE",
"415 345 OFFCURVE",
"414 341 CURVE SMOOTH",
"413 336 OFFCURVE",
"409 320 OFFCURVE",
"404 313 CURVE",
"376 313 OFFCURVE",
"86 313 OFFCURVE",
"73 313 CURVE SMOOTH",
"69 313 OFFCURVE",
"69 320 OFFCURVE",
"70 324 CURVE SMOOTH",
"71 329 OFFCURVE",
"72 342 OFFCURVE"
);
}
);
width = 684;
}
);
unicode = 00D0;
userData = {
com.fontlab.hintData = {
hhints = (
{
position = -3;
width = 29;
},
{
position = 313;
width = 36;
},
{
position = 631;
width = 26;
}
);
};
};
},
{
glyphname = E;
lastChange = "2017-07-12 19:24:35 +0000";
layers = (
{
layerId = "42F082D8-1FA6-4D23-B964-75333DCE4509";
paths = (
{
closed = 1;
nodes = (
"233 657 CURVE SMOOTH",
"320 657 OFFCURVE",
"432 664 OFFCURVE",
"533 664 CURVE",
"530 614 OFFCURVE",
"534 573 OFFCURVE",
"534 528 CURVE",
"531 525 OFFCURVE",
"523 523 OFFCURVE",
"516 523 CURVE SMOOTH",
"509 523 OFFCURVE",
"505 525 OFFCURVE",
"505 530 CURVE SMOOTH",
"500 610 OFFCURVE",
"466 630 OFFCURVE",
"417 630 CURVE SMOOTH",
"337 630 LINE SMOOTH",
"326 630 OFFCURVE",
"276 629 OFFCURVE",
"271 619 CURVE SMOOTH",
"263 603 OFFCURVE",
"256 574 OFFCURVE",
"251 547 CURVE SMOOTH",
"214 355 LINE SMOOTH",
"213 350 OFFCURVE",
"233 349 OFFCURVE",
"253 349 CURVE SMOOTH",
"302 349 LINE SMOOTH",
"391 349 OFFCURVE",
"389 355 OFFCURVE",
"418 421 CURVE SMOOTH",
"420 426 OFFCURVE",
"427 428 OFFCURVE",
"434 428 CURVE SMOOTH",
"441 428 OFFCURVE",
"446 426 OFFCURVE",
"448 423 CURVE",
"412 234 LINE",
"410 232 OFFCURVE",
"403 230 OFFCURVE",
"396 230 CURVE SMOOTH",
"389 230 OFFCURVE",
"384 233 OFFCURVE",
"383 238 CURVE SMOOTH",
"380 295 OFFCURVE",
"377 302 OFFCURVE",
"370 308 CURVE SMOOTH",
"361 315 OFFCURVE",
"308 316 OFFCURVE",
"273 316 CURVE SMOOTH",
"247 316 OFFCURVE",
"206 316 OFFCURVE",
"204 307 CURVE SMOOTH",
"165 109 LINE SMOOTH",
"162 94 OFFCURVE",
"153 45 OFFCURVE",
"158 40 CURVE SMOOTH",
"168 30 OFFCURVE",
"183 30 OFFCURVE",
"222 30 CURVE SMOOTH",
"266 30 LINE SMOOTH",
"317 30 OFFCURVE",
"358 40 OFFCURVE",
"390 61 CURVE SMOOTH",
"417 79 OFFCURVE",
"443 109 OFFCURVE",
"468 162 CURVE SMOOTH",
"470 166 OFFCURVE",
"476 168 OFFCURVE",
"483 168 CURVE SMOOTH",
"492 168 OFFCURVE",
"503 165 OFFCURVE",
"505 162 CURVE",
"477 108 OFFCURVE",
"437 40 OFFCURVE",
"422 -4 CURVE",
"321 -4 OFFCURVE",
"230 0 OFFCURVE",
"106 0 CURVE SMOOTH",
"62 0 OFFCURVE",
"31 -3 OFFCURVE",
"-5 -3 CURVE",
"-9 2 OFFCURVE",
"-5 21 OFFCURVE",
"0 26 CURVE",
"11 26 OFFCURVE",
"63 31 OFFCURVE",
"68 42 CURVE SMOOTH",
"76 58 OFFCURVE",
"81 86 OFFCURVE",
"87 116 CURVE SMOOTH",
"170 543 LINE SMOOTH",
"176 573 OFFCURVE",
"181 601 OFFCURVE",
"179 617 CURVE SMOOTH",
"178 628 OFFCURVE",
"129 633 OFFCURVE",
"118 633 CURVE",
"115 638 OFFCURVE",
"118 657 OFFCURVE",
"124 662 CURVE",
"162 660 OFFCURVE",
"197 657 OFFCURVE"
);
}
);
width = 554;
}
);
unicode = 0045;
userData = {
com.fontlab.hintData = {
hhints = (
{
position = 0;
width = 30;
},
{
position = 316;
width = 33;
},
{
position = 630;
width = 27;
}
);
vhints = (
{
position = 383;
width = 29;
},
{
position = 505;
width = 29;
}
);
};
};
},
{
glyphname = Eogonek;
lastChange = "2017-07-12 19:24:35 +0000";
layers = (
{
layerId = "42F082D8-1FA6-4D23-B964-75333DCE4509";
paths = (
{
closed = 1;
nodes = (
"422 -4 CURVE",
"327 -4 OFFCURVE",
"250 -89 OFFCURVE",
"250 -139 CURVE SMOOTH",
"250 -154 OFFCURVE",
"256 -171 OFFCURVE",
"281 -171 CURVE SMOOTH",
"328 -171 OFFCURVE",
"358 -133 OFFCURVE",
"364 -133 CURVE SMOOTH",
"372 -133 OFFCURVE",
"361 -160 OFFCURVE",
"358 -163 CURVE SMOOTH",
"332 -192 OFFCURVE",
"289 -230 OFFCURVE",
"247 -230 CURVE SMOOTH",
"217 -230 OFFCURVE",
"196 -207 OFFCURVE",
"196 -180 CURVE SMOOTH",
"196 -127 OFFCURVE",
"260 -30 OFFCURVE",
"317 -3 CURVE",
"255 -2 OFFCURVE",
"183 0 OFFCURVE",
"106 0 CURVE SMOOTH",
"62 0 OFFCURVE",
"31 -3 OFFCURVE",
"-5 -3 CURVE",
"-9 2 OFFCURVE",
"-5 21 OFFCURVE",
"0 26 CURVE",
"11 26 OFFCURVE",
"63 31 OFFCURVE",
"68 42 CURVE SMOOTH",
"76 58 OFFCURVE",
"81 86 OFFCURVE",
"87 116 CURVE SMOOTH",
"170 543 LINE SMOOTH",
"176 573 OFFCURVE",
"181 601 OFFCURVE",
"179 617 CURVE SMOOTH",
"178 628 OFFCURVE",
"129 633 OFFCURVE",
"118 633 CURVE",
"115 638 OFFCURVE",
"118 657 OFFCURVE",
"124 662 CURVE",
"162 660 OFFCURVE",
"196 657 OFFCURVE",
"233 657 CURVE SMOOTH",
"320 657 OFFCURVE",
"432 664 OFFCURVE",
"533 664 CURVE",
"530 614 OFFCURVE",
"534 573 OFFCURVE",
"534 528 CURVE",
"531 525 OFFCURVE",
"523 523 OFFCURVE",
"516 523 CURVE SMOOTH",
"509 523 OFFCURVE",
"505 525 OFFCURVE",
"505 530 CURVE SMOOTH",
"500 610 OFFCURVE",
"466 630 OFFCURVE",
"417 630 CURVE SMOOTH",
"337 630 LINE SMOOTH",
"326 630 OFFCURVE",
"276 629 OFFCURVE",
"271 619 CURVE SMOOTH",
"263 603 OFFCURVE",
"256 574 OFFCURVE",
"251 547 CURVE SMOOTH",
"214 355 LINE SMOOTH",
"213 350 OFFCURVE",
"233 349 OFFCURVE",
"253 349 CURVE SMOOTH",
"302 349 LINE SMOOTH",
"391 349 OFFCURVE",
"389 355 OFFCURVE",
"418 421 CURVE SMOOTH",
"420 426 OFFCURVE",
"427 428 OFFCURVE",
"434 428 CURVE SMOOTH",
"441 428 OFFCURVE",
"446 426 OFFCURVE",
"448 423 CURVE",
"412 234 LINE",
"410 232 OFFCURVE",
"403 230 OFFCURVE",
"396 230 CURVE SMOOTH",
"389 230 OFFCURVE",
"384 233 OFFCURVE",
"383 238 CURVE SMOOTH",
"380 295 OFFCURVE",
"377 302 OFFCURVE",
"370 308 CURVE SMOOTH",
"361 315 OFFCURVE",
"308 316 OFFCURVE",
"273 316 CURVE SMOOTH",
"247 316 OFFCURVE",
"206 316 OFFCURVE",
"204 307 CURVE SMOOTH",
"165 109 LINE SMOOTH",
"162 94 OFFCURVE",
"153 45 OFFCURVE",
"158 40 CURVE SMOOTH",
"168 30 OFFCURVE",
"183 30 OFFCURVE",
"222 30 CURVE SMOOTH",
"266 30 LINE SMOOTH",
"317 30 OFFCURVE",
"358 40 OFFCURVE",
"390 61 CURVE SMOOTH",
"417 79 OFFCURVE",
"443 109 OFFCURVE",
"468 162 CURVE SMOOTH",
"470 166 OFFCURVE",
"476 168 OFFCURVE",
"483 168 CURVE SMOOTH",
"492 168 OFFCURVE",
"503 165 OFFCURVE",
"505 162 CURVE",
"477 108 OFFCURVE",
"437 40 OFFCURVE"
);
}
);
width = 554;
}
);
unicode = 0118;
userData = {
com.fontlab.hintData = {
hhints = (
{
position = -230;
width = 59;
},
{
position = 0;
width = 30;
},
{
position = 316;
width = 33;
},
{
position = 630;
width = 27;
}
);
vhints = (
{
position = 196;
width = 54;
},
{
position = 383;
width = 29;
},
{
position = 505;
width = 29;
}
);
};
};
},
{
glyphname = F;
lastChange = "2017-07-12 19:24:35 +0000";
layers = (
{
layerId = "42F082D8-1FA6-4D23-B964-75333DCE4509";
paths = (
{
closed = 1;
nodes = (
"233 657 CURVE SMOOTH",
"320 657 OFFCURVE",
"432 664 OFFCURVE",
"533 664 CURVE",
"530 614 OFFCURVE",
"534 573 OFFCURVE",
"534 528 CURVE",
"531 525 OFFCURVE",
"523 523 OFFCURVE",
"516 523 CURVE SMOOTH",
"509 523 OFFCURVE",
"505 525 OFFCURVE",
"505 530 CURVE SMOOTH",
"500 610 OFFCURVE",
"466 630 OFFCURVE",
"417 630 CURVE SMOOTH",
"337 630 LINE SMOOTH",
"326 630 OFFCURVE",
"276 629 OFFCURVE",
"271 619 CURVE SMOOTH",
"263 603 OFFCURVE",
"256 574 OFFCURVE",
"251 547 CURVE SMOOTH",
"214 355 LINE SMOOTH",
"213 350 OFFCURVE",
"233 349 OFFCURVE",
"253 349 CURVE SMOOTH",
"302 349 LINE SMOOTH",
"391 349 OFFCURVE",
"389 355 OFFCURVE",
"418 421 CURVE SMOOTH",
"420 426 OFFCURVE",
"427 428 OFFCURVE",
"434 428 CURVE SMOOTH",
"441 428 OFFCURVE",
"446 426 OFFCURVE",
"448 423 CURVE",
"412 234 LINE",
"410 232 OFFCURVE",
"403 230 OFFCURVE",
"396 230 CURVE SMOOTH",
"389 230 OFFCURVE",
"384 233 OFFCURVE",
"383 238 CURVE SMOOTH",
"380 295 OFFCURVE",
"377 302 OFFCURVE",
"370 308 CURVE SMOOTH",
"361 315 OFFCURVE",
"308 316 OFFCURVE",
"273 316 CURVE SMOOTH",
"247 316 OFFCURVE",
"206 316 OFFCURVE",
"204 307 CURVE SMOOTH",
"167 116 LINE SMOOTH",
"161 86 OFFCURVE",
"156 58 OFFCURVE",
"158 42 CURVE SMOOTH",
"159 31 OFFCURVE",
"217 26 OFFCURVE",
"228 26 CURVE",
"231 21 OFFCURVE",
"228 2 OFFCURVE",
"222 -3 CURVE",
"184 -1 OFFCURVE",
"141 2 OFFCURVE",
"105 2 CURVE SMOOTH",
"61 2 OFFCURVE",
"31 -3 OFFCURVE",
"-5 -3 CURVE",
"-9 2 OFFCURVE",
"-5 21 OFFCURVE",
"0 26 CURVE",
"11 26 OFFCURVE",
"63 31 OFFCURVE",
"68 42 CURVE SMOOTH",
"76 58 OFFCURVE",
"81 86 OFFCURVE",
"87 116 CURVE SMOOTH",
"170 543 LINE SMOOTH",
"176 573 OFFCURVE",
"181 601 OFFCURVE",
"179 617 CURVE SMOOTH",
"178 628 OFFCURVE",
"129 633 OFFCURVE",
"118 633 CURVE",
"115 638 OFFCURVE",
"118 657 OFFCURVE",
"124 662 CURVE",
"162 660 OFFCURVE",
"197 657 OFFCURVE"
);
}
);
width = 508;
}
);
unicode = 0046;
userData = {
com.fontlab.hintData = {
hhints = (
{
position = -3;
width = 29;
},
{
position = 316;
width = 33;
},
{
position = 630;
width = 27;
}
);
vhints = (
{
position = 383;
width = 29;
},
{
position = 505;
width = 29;
}
);
};
};
},
{
glyphname = G;
lastChange = "2017-07-12 19:24:35 +0000";
layers = (
{
layerId = "42F082D8-1FA6-4D23-B964-75333DCE4509";
paths = (
{
closed = 1;
nodes = (
"585 494 CURVE",
"590 574 OFFCURVE",
"520 635 OFFCURVE",
"436 635 CURVE SMOOTH",
"280 635 OFFCURVE",
"153 499 OFFCURVE",
"154 282 CURVE SMOOTH",
"154 163 OFFCURVE",
"210 21 OFFCURVE",
"355 21 CURVE SMOOTH",
"403 21 OFFCURVE",
"446 41 OFFCURVE",
"467 55 CURVE SMOOTH",
"473 59 OFFCURVE",
"476 65 OFFCURVE",
"477 72 CURVE SMOOTH",
"497 175 LINE SMOOTH",
"503 205 OFFCURVE",
"509 233 OFFCURVE",
"507 249 CURVE SMOOTH",
"506 260 OFFCURVE",
"452 265 OFFCURVE",
"441 265 CURVE",
"438 270 OFFCURVE",
"440 289 OFFCURVE",
"446 294 CURVE",
"484 292 OFFCURVE",
"518 289 OFFCURVE",
"554 289 CURVE SMOOTH",
"590 289 OFFCURVE",
"625 292 OFFCURVE",
"664 294 CURVE",
"668 289 OFFCURVE",
"665 270 OFFCURVE",
"660 265 CURVE",
"649 265 OFFCURVE",
"601 260 OFFCURVE",
"596 249 CURVE SMOOTH",
"588 233 OFFCURVE",
"583 205 OFFCURVE",
"577 175 CURVE SMOOTH",
"563 104 LINE SMOOTH",
"559 83 OFFCURVE",
"565 78 OFFCURVE",
"565 68 CURVE SMOOTH",
"565 62 OFFCURVE",
"561 55 OFFCURVE",
"543 46 CURVE SMOOTH",
"497 22 OFFCURVE",
"447 -8 OFFCURVE",
"324 -8 CURVE SMOOTH",
"170 -8 OFFCURVE",
"59 117 OFFCURVE",
"59 265 CURVE SMOOTH",
"59 517 OFFCURVE",
"258 670 OFFCURVE",
"465 666 CURVE SMOOTH",
"523 665 OFFCURVE",
"577 652 OFFCURVE",
"626 640 CURVE",
"624 604 OFFCURVE",
"618 524 OFFCURVE",
"616 494 CURVE SMOOTH",
"616 491 OFFCURVE",
"612 489 OFFCURVE",
"608 489 CURVE SMOOTH",
"602 489 OFFCURVE",
"593 490 OFFCURVE"
);
}
);
width = 697;
}
);
unicode = 0047;
userData = {
com.fontlab.hintData = {
hhints = (
{
position = -8;
width = 29;
},
{
position = 265;
width = 29;
},
{
position = 635;
width = 31;
}
);
vhints = (
{
position = 59;
width = 95;
},
{
position = 585;
width = 31;
}
);
};
};
},
{
glyphname = H;
lastChange = "2017-07-12 19:24:35 +0000";
layers = (
{
layerId = "42F082D8-1FA6-4D23-B964-75333DCE4509";
paths = (
{
closed = 1;
nodes = (
"168 116 LINE SMOOTH",
"162 86 OFFCURVE",
"156 58 OFFCURVE",
"158 42 CURVE SMOOTH",
"159 31 OFFCURVE",
"208 26 OFFCURVE",
"219 26 CURVE",
"222 21 OFFCURVE",
"219 2 OFFCURVE",
"213 -3 CURVE",
"175 -1 OFFCURVE",
"142 2 OFFCURVE",
"106 2 CURVE SMOOTH",
"70 2 OFFCURVE",
"34 -1 OFFCURVE",
"-5 -3 CURVE",
"-9 2 OFFCURVE",
"-5 21 OFFCURVE",
"0 26 CURVE",
"11 26 OFFCURVE",
"63 31 OFFCURVE",
"68 42 CURVE SMOOTH",
"76 58 OFFCURVE",
"81 86 OFFCURVE",
"87 116 CURVE SMOOTH",
"170 543 LINE SMOOTH",
"176 573 OFFCURVE",
"181 601 OFFCURVE",
"179 617 CURVE SMOOTH",
"178 628 OFFCURVE",
"129 633 OFFCURVE",
"118 633 CURVE",
"115 638 OFFCURVE",
"118 657 OFFCURVE",
"124 662 CURVE",
"162 660 OFFCURVE",
"197 657 OFFCURVE",
"233 657 CURVE SMOOTH",
"269 657 OFFCURVE",
"304 660 OFFCURVE",
"343 662 CURVE",
"347 657 OFFCURVE",
"342 638 OFFCURVE",
"337 633 CURVE",
"326 633 OFFCURVE",
"275 628 OFFCURVE",
"270 617 CURVE SMOOTH",
"262 601 OFFCURVE",
"256 573 OFFCURVE",
"251 543 CURVE SMOOTH",
"214 356 LINE",
"506 356 LINE",
"543 543 LINE SMOOTH",
"548 573 OFFCURVE",
"554 601 OFFCURVE",
"552 617 CURVE SMOOTH",
"551 628 OFFCURVE",
"502 633 OFFCURVE",
"491 633 CURVE",
"488 638 OFFCURVE",
"491 657 OFFCURVE",
"497 662 CURVE",
"535 660 OFFCURVE",
"570 657 OFFCURVE",
"606 657 CURVE SMOOTH",
"642 657 OFFCURVE",
"677 660 OFFCURVE",
"716 662 CURVE",
"720 657 OFFCURVE",
"715 638 OFFCURVE",
"710 633 CURVE",
"699 633 OFFCURVE",
"648 628 OFFCURVE",
"643 617 CURVE SMOOTH",
"635 601 OFFCURVE",
"630 573 OFFCURVE",
"624 543 CURVE SMOOTH",
"541 116 LINE SMOOTH",
"535 86 OFFCURVE",
"529 58 OFFCURVE",
"531 42 CURVE SMOOTH",
"532 31 OFFCURVE",
"581 26 OFFCURVE",
"592 26 CURVE",
"595 21 OFFCURVE",
"592 2 OFFCURVE",
"586 -3 CURVE",
"548 -1 OFFCURVE",
"514 2 OFFCURVE",
"478 2 CURVE SMOOTH",
"442 2 OFFCURVE",
"407 -1 OFFCURVE",
"368 -3 CURVE",
"364 2 OFFCURVE",
"368 21 OFFCURVE",
"373 26 CURVE",
"384 26 OFFCURVE",
"436 31 OFFCURVE",
"441 42 CURVE SMOOTH",
"449 58 OFFCURVE",
"454 86 OFFCURVE",
"460 116 CURVE SMOOTH",
"499 316 LINE",
"207 316 LINE"
);
}
);
width = 686;
}
);
unicode = 0048;
userData = {
com.fontlab.hintData = {
hhints = (
{
position = -3;
width = 29;
},
{
position = 316;
width = 40;
},
{
position = 633;
width = 29;
}
);
};
};
},
{
glyphname = Hbar;
lastChange = "2017-07-12 19:24:35 +0000";
layers = (
{
components = (
{
name = H;
transform = "{1, 0, 0, 1, 1, 0}";
}
);
layerId = "42F082D8-1FA6-4D23-B964-75333DCE4509";
paths = (
{
closed = 1;
nodes = (
"116 506 CURVE",
"141 506 OFFCURVE",
"656 506 OFFCURVE",
"668 506 CURVE SMOOTH",
"671 506 OFFCURVE",
"672 502 OFFCURVE",
"671 498 CURVE SMOOTH",
"670 493 OFFCURVE",
"665 480 OFFCURVE",
"660 472 CURVE",
"635 472 OFFCURVE",
"119 472 OFFCURVE",
"107 472 CURVE SMOOTH",
"104 472 OFFCURVE",
"104 479 OFFCURVE",
"105 483 CURVE SMOOTH",
"106 488 OFFCURVE",
"109 498 OFFCURVE"
);
}
);
width = 686;
}
);
unicode = 0126;
userData = {
com.fontlab.hintData = {
hhints = (
{
position = -3;
width = 29;
},
{
position = 316;
width = 40;
},
{
position = 472;
width = 34;
},
{
position = 633;
width = 29;
}
);
};
};
},
{
glyphname = I;
lastChange = "2017-07-12 19:24:35 +0000";
layers = (
{
layerId = "42F082D8-1FA6-4D23-B964-75333DCE4509";
paths = (
{
closed = 1;
nodes = (
"233 657 CURVE SMOOTH",
"269 657 OFFCURVE",
"304 660 OFFCURVE",
"343 662 CURVE",
"347 657 OFFCURVE",
"342 638 OFFCURVE",
"337 633 CURVE",
"326 633 OFFCURVE",
"275 628 OFFCURVE",
"270 617 CURVE SMOOTH",
"262 601 OFFCURVE",
"257 573 OFFCURVE",
"251 543 CURVE SMOOTH",
"168 116 LINE SMOOTH",
"162 86 OFFCURVE",
"156 58 OFFCURVE",
"158 42 CURVE SMOOTH",
"159 31 OFFCURVE",
"208 26 OFFCURVE",
"219 26 CURVE",
"222 21 OFFCURVE",
"219 2 OFFCURVE",
"213 -3 CURVE",
"175 -1 OFFCURVE",
"142 2 OFFCURVE",
"106 2 CURVE SMOOTH",
"70 2 OFFCURVE",
"34 -1 OFFCURVE",
"-5 -3 CURVE",
"-9 2 OFFCURVE",
"-5 21 OFFCURVE",
"0 26 CURVE",
"11 26 OFFCURVE",
"63 31 OFFCURVE",
"68 42 CURVE SMOOTH",
"76 58 OFFCURVE",
"81 86 OFFCURVE",
"87 116 CURVE SMOOTH",
"170 543 LINE SMOOTH",
"176 573 OFFCURVE",
"181 601 OFFCURVE",
"179 617 CURVE SMOOTH",
"178 628 OFFCURVE",
"129 633 OFFCURVE",
"118 633 CURVE",
"115 638 OFFCURVE",
"118 657 OFFCURVE",
"124 662 CURVE",
"162 660 OFFCURVE",
"197 657 OFFCURVE"
);
}
);
width = 313;
}
);
unicode = 0049;
userData = {
com.fontlab.hintData = {
hhints = (
{
position = -3;
width = 29;
},
{
position = 633;
width = 29;
}
);
};
};
},
{
glyphname = Iogonek;
lastChange = "2017-07-12 19:24:35 +0000";
layers = (
{
layerId = "42F082D8-1FA6-4D23-B964-75333DCE4509";
paths = (
{
closed = 1;
nodes = (
"218 26 CURVE",
"220 22 OFFCURVE",
"214 1 OFFCURVE",
"212 -3 CURVE",
"196 -3 OFFCURVE",
"180 -6 OFFCURVE",
"165 -10 CURVE SMOOTH",
"93 -31 OFFCURVE",
"39 -97 OFFCURVE",
"39 -139 CURVE SMOOTH",
"39 -154 OFFCURVE",
"45 -171 OFFCURVE",
"70 -171 CURVE SMOOTH",
"117 -171 OFFCURVE",
"147 -133 OFFCURVE",
"153 -133 CURVE SMOOTH",
"161 -133 OFFCURVE",
"150 -160 OFFCURVE",
"147 -163 CURVE SMOOTH",
"121 -192 OFFCURVE",
"78 -230 OFFCURVE",
"36 -230 CURVE SMOOTH",
"6 -230 OFFCURVE",
"-14 -207 OFFCURVE",
"-14 -180 CURVE SMOOTH",
"-14 -118 OFFCURVE",
"51 -25 OFFCURVE",
"108 2 CURVE",
"72 2 OFFCURVE",
"33 -1 OFFCURVE",
"-6 -3 CURVE",
"-10 2 OFFCURVE",
"-6 21 OFFCURVE",
"-1 26 CURVE",
"10 26 OFFCURVE",
"62 31 OFFCURVE",
"67 42 CURVE SMOOTH",
"75 58 OFFCURVE",
"80 86 OFFCURVE",
"86 116 CURVE SMOOTH",
"169 543 LINE SMOOTH",
"175 573 OFFCURVE",
"180 601 OFFCURVE",
"178 617 CURVE SMOOTH",
"177 628 OFFCURVE",
"128 633 OFFCURVE",
"117 633 CURVE",
"114 638 OFFCURVE",
"117 657 OFFCURVE",
"123 662 CURVE",
"161 660 OFFCURVE",
"196 657 OFFCURVE",
"232 657 CURVE SMOOTH",
"268 657 OFFCURVE",
"303 660 OFFCURVE",
"342 662 CURVE",
"346 657 OFFCURVE",
"341 638 OFFCURVE",
"336 633 CURVE",
"325 633 OFFCURVE",
"274 628 OFFCURVE",
"269 617 CURVE SMOOTH",
"261 601 OFFCURVE",
"256 573 OFFCURVE",
"250 543 CURVE SMOOTH",
"167 116 LINE SMOOTH",
"161 86 OFFCURVE",
"155 58 OFFCURVE",
"157 42 CURVE SMOOTH",
"158 31 OFFCURVE",
"207 26 OFFCURVE"
);
}
);
width = 313;
}
);
unicode = 012E;
userData = {
com.fontlab.hintData = {
hhints = (
{
position = -230;
width = 59;
},
{
position = -3;
width = 29;
},
{
position = 633;
width = 29;
}
);
vhints = (
{
position = -14;
width = 53;
}
);
};
};
},
{
glyphname = J;
lastChange = "2017-07-12 19:24:35 +0000";
layers = (
{
layerId = "42F082D8-1FA6-4D23-B964-75333DCE4509";
paths = (
{
closed = 1;
nodes = (
"164 543 LINE SMOOTH",
"169 573 OFFCURVE",
"175 601 OFFCURVE",
"173 617 CURVE SMOOTH",
"172 628 OFFCURVE",
"123 633 OFFCURVE",
"112 633 CURVE",
"109 638 OFFCURVE",
"112 657 OFFCURVE",
"118 662 CURVE",
"156 660 OFFCURVE",
"191 657 OFFCURVE",
"227 657 CURVE SMOOTH",
"263 657 OFFCURVE",
"298 660 OFFCURVE",
"337 662 CURVE",
"341 657 OFFCURVE",
"336 638 OFFCURVE",
"331 633 CURVE",
"320 633 OFFCURVE",
"269 628 OFFCURVE",
"264 617 CURVE SMOOTH",
"256 601 OFFCURVE",
"250 573 OFFCURVE",
"245 543 CURVE SMOOTH",
"164 116 LINE SMOOTH",
"114 -148 OFFCURVE",
"-25 -233 OFFCURVE",
"-105 -233 CURVE",
"-107 -230 OFFCURVE",
"-108 -225 OFFCURVE",
"-108 -220 CURVE SMOOTH",
"-108 -218 OFFCURVE",
"-107 -214 OFFCURVE",
"-107 -214 CURVE",
"5 -179 OFFCURVE",
"49 -83 OFFCURVE",
"84 109 CURVE SMOOTH"
);
}
);
width = 313;
}
);
unicode = 004A;
userData = {
com.fontlab.hintData = {
hhints = (
{
position = -233;
width = 19;
},
{
position = 633;
width = 29;
}
);
};
};
},
{
glyphname = K;
lastChange = "2017-07-12 19:24:35 +0000";
layers = (
{
layerId = "42F082D8-1FA6-4D23-B964-75333DCE4509";
paths = (
{
closed = 1;
nodes = (
"481 72 CURVE SMOOTH",
"500 49 OFFCURVE",
"523 30 OFFCURVE",
"573 26 CURVE",
"577 21 OFFCURVE",
"568 -1 OFFCURVE",
"567 -3 CURVE",
"505 -3 OFFCURVE",
"454 1 OFFCURVE",
"437 8 CURVE SMOOTH",
"425 13 OFFCURVE",
"403 23 OFFCURVE",
"382 51 CURVE SMOOTH",
"367 72 OFFCURVE",
"302 175 OFFCURVE",
"222 304 CURVE SMOOTH",
"221 307 OFFCURVE",
"218 307 OFFCURVE",
"214 307 CURVE SMOOTH",
"211 307 OFFCURVE",
"207 306 OFFCURVE",
"205 305 CURVE",
"168 116 LINE SMOOTH",
"162 86 OFFCURVE",
"157 58 OFFCURVE",
"159 42 CURVE SMOOTH",
"160 31 OFFCURVE",
"209 26 OFFCURVE",
"220 26 CURVE",
"223 21 OFFCURVE",
"220 2 OFFCURVE",
"214 -3 CURVE",
"176 -1 OFFCURVE",
"142 2 OFFCURVE",
"106 2 CURVE SMOOTH",
"70 2 OFFCURVE",
"35 -1 OFFCURVE",
"-4 -3 CURVE",
"-8 2 OFFCURVE",
"-4 21 OFFCURVE",
"1 26 CURVE",
"12 26 OFFCURVE",
"63 31 OFFCURVE",
"68 42 CURVE SMOOTH",
"76 58 OFFCURVE",
"81 86 OFFCURVE",
"87 116 CURVE SMOOTH",
"170 543 LINE SMOOTH",
"176 573 OFFCURVE",
"182 601 OFFCURVE",
"180 617 CURVE SMOOTH",
"179 628 OFFCURVE",
"130 633 OFFCURVE",
"119 633 CURVE",
"116 638 OFFCURVE",
"119 657 OFFCURVE",
"125 662 CURVE",
"163 660 OFFCURVE",
"198 657 OFFCURVE",
"234 657 CURVE SMOOTH",
"270 657 OFFCURVE",
"304 660 OFFCURVE",
"343 662 CURVE",
"347 657 OFFCURVE",
"343 638 OFFCURVE",
"338 633 CURVE",
"327 633 OFFCURVE",
"275 628 OFFCURVE",
"270 617 CURVE SMOOTH",
"262 601 OFFCURVE",
"257 573 OFFCURVE",
"251 543 CURVE SMOOTH",
"212 340 LINE",
"234 353 OFFCURVE",
"290 399 OFFCURVE",
"336 439 CURVE SMOOTH",
"424 516 OFFCURVE",
"425 515 OFFCURVE",
"481 576 CURVE SMOOTH",
"488 584 OFFCURVE",
"498 597 OFFCURVE",
"500 607 CURVE SMOOTH",
"505 632 OFFCURVE",
"461 632 OFFCURVE",
"453 632 CURVE",
"451 638 OFFCURVE",
"454 653 OFFCURVE",
"459 662 CURVE",
"493 660 OFFCURVE",
"530 656 OFFCURVE",
"564 656 CURVE SMOOTH",
"605 656 OFFCURVE",
"628 660 OFFCURVE",
"666 662 CURVE",
"667 656 OFFCURVE",
"663 632 OFFCURVE",
"658 632 CURVE SMOOTH",
"649 631 OFFCURVE",
"598 632 OFFCURVE",
"559 595 CURVE SMOOTH",
"461 501 OFFCURVE",
"399 450 OFFCURVE",
"302 366 CURVE SMOOTH",
"295 360 OFFCURVE",
"297 355 OFFCURVE",
"300 350 CURVE SMOOTH",
"368 238 OFFCURVE",
"424 145 OFFCURVE"
);
}
);
width = 614;
}
);
unicode = 004B;
userData = {
com.fontlab.hintData = {
hhints = (
{
position = -3;
width = 29;
},
{
position = 633;
width = 29;
}
);
};
};
},
{
glyphname = L;
lastChange = "2017-07-12 19:24:35 +0000";
layers = (
{
layerId = "42F082D8-1FA6-4D23-B964-75333DCE4509";
paths = (
{
closed = 1;
nodes = (
"166 112 LINE SMOOTH",
"163 97 OFFCURVE",
"153 45 OFFCURVE",
"158 40 CURVE SMOOTH",
"168 30 OFFCURVE",
"183 30 OFFCURVE",
"222 30 CURVE SMOOTH",
"275 30 LINE SMOOTH",
"310 30 OFFCURVE",
"352 39 OFFCURVE",
"383 57 CURVE SMOOTH",
"413 74 OFFCURVE",
"443 109 OFFCURVE",
"468 162 CURVE SMOOTH",
"470 166 OFFCURVE",
"476 168 OFFCURVE",
"483 168 CURVE SMOOTH",
"492 168 OFFCURVE",
"503 165 OFFCURVE",
"505 162 CURVE",
"477 108 OFFCURVE",
"437 40 OFFCURVE",
"422 -4 CURVE",
"321 -4 OFFCURVE",
"230 0 OFFCURVE",
"106 0 CURVE SMOOTH",
"62 0 OFFCURVE",
"31 -3 OFFCURVE",
"-5 -3 CURVE",
"-9 2 OFFCURVE",
"-4 21 OFFCURVE",
"1 26 CURVE",
"12 26 OFFCURVE",
"63 31 OFFCURVE",
"68 42 CURVE SMOOTH",
"76 58 OFFCURVE",
"81 86 OFFCURVE",
"87 116 CURVE SMOOTH",
"170 543 LINE SMOOTH",
"176 573 OFFCURVE",
"182 601 OFFCURVE",
"180 617 CURVE SMOOTH",
"179 628 OFFCURVE",
"130 633 OFFCURVE",
"119 633 CURVE",
"116 638 OFFCURVE",
"118 657 OFFCURVE",
"124 662 CURVE",
"162 660 OFFCURVE",
"197 657 OFFCURVE",
"233 657 CURVE SMOOTH",
"269 657 OFFCURVE",
"304 660 OFFCURVE",
"343 662 CURVE",
"347 657 OFFCURVE",
"342 638 OFFCURVE",
"337 633 CURVE",
"326 633 OFFCURVE",
"275 628 OFFCURVE",
"270 617 CURVE SMOOTH",
"262 601 OFFCURVE",
"257 573 OFFCURVE",
"251 543 CURVE SMOOTH"
);
}
);
width = 530;
}
);
unicode = 004C;
userData = {
com.fontlab.hintData = {
hhints = (
{
position = 0;
width = 30;
},
{
position = 633;
width = 29;
}
);
};
};
},
{
glyphname = Lslash;
lastChange = "2017-07-12 19:24:35 +0000";
layers = (
{
components = (
{
name = L;
transform = "{1, 0, 0, 1, -1, 0}";
}
);
layerId = "42F082D8-1FA6-4D23-B964-75333DCE4509";
paths = (
{
closed = 1;
nodes = (
"22 206 LINE",
"17 202 OFFCURVE",
"27 242 OFFCURVE",
"32 247 CURVE",
"155 314.397 LINE",
"185 322.836 LINE",
"397 439 LINE SMOOTH",
"403 443 OFFCURVE",
"392 402 OFFCURVE",
"387 398 CURVE",
"173 277.739 LINE",
"142 269.754 LINE"
);
}
);
width = 529;
}
);
unicode = 0141;
userData = {
com.fontlab.hintData = {
vhints = (
{
position = 53;
width = 254;
}
);
};
};
},
{
glyphname = M;
lastChange = "2017-07-12 19:24:35 +0000";
layers = (
{
layerId = "42F082D8-1FA6-4D23-B964-75333DCE4509";
paths = (
{
closed = 1;
nodes = (
"397 49 CURVE SMOOTH",
"392 40 OFFCURVE",
"363 0 OFFCURVE",
"352 -2 CURVE SMOOTH",
"349 -3 OFFCURVE",
"347 -1 OFFCURVE",
"344 0 CURVE",
"230 584 LINE",
"184 366 OFFCURVE",
"121 85 OFFCURVE",
"119 75 CURVE SMOOTH",
"117 66 OFFCURVE",
"116 52 OFFCURVE",
"117 44 CURVE SMOOTH",
"120 29 OFFCURVE",
"180 26 OFFCURVE",
"187 26 CURVE",
"190 20 OFFCURVE",
"185 0 OFFCURVE",
"183 -3 CURVE",
"146 -1 OFFCURVE",
"127 2 OFFCURVE",
"86 2 CURVE SMOOTH",
"43 2 OFFCURVE",
"19 -1 OFFCURVE",
"-24 -3 CURVE",
"-25 -1 OFFCURVE",
"-23 18 OFFCURVE",
"-18 26 CURVE",
"-7 26 OFFCURVE",
"49 31 OFFCURVE",
"60 44 CURVE SMOOTH",
"71 57 OFFCURVE",
"76 73 OFFCURVE",
"81 94 CURVE SMOOTH",
"136 334 OFFCURVE",
"184 554 OFFCURVE",
"187 572 CURVE SMOOTH",
"190 586 OFFCURVE",
"193 601 OFFCURVE",
"191 612 CURVE",
"190 624 OFFCURVE",
"141 633 OFFCURVE",
"130 633 CURVE",
"128 639 OFFCURVE",
"132 659 OFFCURVE",
"136 662 CURVE",
"165 660 OFFCURVE",
"189 658 OFFCURVE",
"226 658 CURVE SMOOTH",
"254 658 OFFCURVE",
"286 660 OFFCURVE",
"307 662 CURVE",
"313 599 OFFCURVE",
"407 143 OFFCURVE",
"407 139 CURVE",
"409 144 OFFCURVE",
"632 542 OFFCURVE",
"632 542 CURVE SMOOTH",
"658 588 OFFCURVE",
"696 662 OFFCURVE",
"696 662 CURVE",
"725 660 OFFCURVE",
"748 658 OFFCURVE",
"766 658 CURVE SMOOTH",
"799 658 OFFCURVE",
"834 660 OFFCURVE",
"858 662 CURVE",
"858 659 OFFCURVE",
"856 633 OFFCURVE",
"856 633 CURVE",
"843 633 OFFCURVE",
"793 625 OFFCURVE",
"786 615 CURVE",
"781 606 OFFCURVE",
"776 589 OFFCURVE",
"774 577 CURVE SMOOTH",
"698 140 LINE SMOOTH",
"691 101 OFFCURVE",
"687 67 OFFCURVE",
"691 43 CURVE SMOOTH",
"693 29 OFFCURVE",
"745 26 OFFCURVE",
"752 26 CURVE",
"755 17 OFFCURVE",
"751 0 OFFCURVE",
"749 -3 CURVE",
"712 -1 OFFCURVE",
"680 2 OFFCURVE",
"639 2 CURVE SMOOTH",
"596 2 OFFCURVE",
"569 -1 OFFCURVE",
"526 -3 CURVE",
"525 -1 OFFCURVE",
"527 18 OFFCURVE",
"532 26 CURVE",
"543 26 OFFCURVE",
"582 30 OFFCURVE",
"595 37 CURVE SMOOTH",
"602 41 OFFCURVE",
"608 65 OFFCURVE",
"611 79 CURVE SMOOTH",
"614 93 OFFCURVE",
"659 376 OFFCURVE",
"690 566 CURVE",
"677 545 OFFCURVE",
"397 49 OFFCURVE"
);
}
);
width = 838;
}
);
unicode = 004D;
userData = {
com.fontlab.hintData = {
hhints = (
{
position = -3;
width = 29;
},
{
position = 633;
width = 29;
}
);
};
};
},
{
glyphname = N;
lastChange = "2017-07-12 19:24:35 +0000";
layers = (
{
layerId = "42F082D8-1FA6-4D23-B964-75333DCE4509";
paths = (
{
closed = 1;
nodes = (
"628 541 LINE SMOOTH",
"635 577 OFFCURVE",
"637 597 OFFCURVE",
"631 613 CURVE SMOOTH",
"626 627 OFFCURVE",
"579 633 OFFCURVE",
"564 633 CURVE",
"561 640 OFFCURVE",
"564 657 OFFCURVE",
"567 662 CURVE",
"604 660 OFFCURVE",
"628 658 OFFCURVE",
"669 658 CURVE SMOOTH",
"712 658 OFFCURVE",
"730 660 OFFCURVE",
"773 662 CURVE",
"775 657 OFFCURVE",
"776 644 OFFCURVE",
"769 633 CURVE",
"758 633 OFFCURVE",
"703 626 OFFCURVE",
"694 614 CURVE SMOOTH",
"683 599 OFFCURVE",
"679 584 OFFCURVE",
"672 546 CURVE SMOOTH",
"593 139 LINE SMOOTH",
"582 81 OFFCURVE",
"576 51 OFFCURVE",
"568 -1 CURVE",
"565 -4 OFFCURVE",
"554 -5 OFFCURVE",
"551 -5 CURVE SMOOTH",
"543 -5 OFFCURVE",
"531 4 OFFCURVE",
"524 18 CURVE SMOOTH",
"224 569 LINE",
"136 115 LINE SMOOTH",
"129 79 OFFCURVE",
"126 62 OFFCURVE",
"132 46 CURVE SMOOTH",
"136 36 OFFCURVE",
"184 26 OFFCURVE",
"199 26 CURVE",
"202 19 OFFCURVE",
"198 3 OFFCURVE",
"195 -3 CURVE",
"158 -1 OFFCURVE",
"132 2 OFFCURVE",
"91 2 CURVE SMOOTH",
"48 2 OFFCURVE",
"31 -1 OFFCURVE",
"-12 -3 CURVE",
"-14 2 OFFCURVE",
"-13 15 OFFCURVE",
"-6 26 CURVE",
"5 26 OFFCURVE",
"61 34 OFFCURVE",
"70 46 CURVE SMOOTH",
"81 61 OFFCURVE",
"86 76 OFFCURVE",
"93 114 CURVE SMOOTH",
"177 548 LINE SMOOTH",
"184 586 OFFCURVE",
"186 601 OFFCURVE",
"181 616 CURVE SMOOTH",
"177 628 OFFCURVE",
"124 633 OFFCURVE",
"113 633 CURVE",
"110 644 OFFCURVE",
"114 657 OFFCURVE",
"118 662 CURVE",
"160 660 OFFCURVE",
"172 658 OFFCURVE",
"203 658 CURVE SMOOTH",
"231 658 OFFCURVE",
"272 661 OFFCURVE",
"285 662 CURVE",
"317 582 OFFCURVE",
"481 317 OFFCURVE",
"554 162 CURVE"
);
}
);
width = 732;
}
);
unicode = 004E;
userData = {
com.fontlab.hintData = {
hhints = (
{
position = -3;
width = 29;
},
{
position = 633;
width = 29;
}
);
};
};
},
{
glyphname = Eng;
lastChange = "2017-07-12 19:24:35 +0000";
layers = (
{
layerId = "42F082D8-1FA6-4D23-B964-75333DCE4509";
paths = (
{
closed = 1;
nodes = (
"510 44 CURVE",
"226 569 LINE",
"138 115 LINE SMOOTH",
"131 79 OFFCURVE",
"128 62 OFFCURVE",
"134 46 CURVE SMOOTH",
"138 36 OFFCURVE",
"186 26 OFFCURVE",
"201 26 CURVE",
"204 19 OFFCURVE",
"200 3 OFFCURVE",
"197 -3 CURVE",
"160 -1 OFFCURVE",
"132 2 OFFCURVE",
"91 2 CURVE SMOOTH",
"48 2 OFFCURVE",
"31 -1 OFFCURVE",
"-12 -3 CURVE",
"-14 2 OFFCURVE",
"-13 15 OFFCURVE",
"-6 26 CURVE",
"5 26 OFFCURVE",
"61 34 OFFCURVE",
"70 46 CURVE SMOOTH",
"81 61 OFFCURVE",
"86 76 OFFCURVE",
"93 114 CURVE SMOOTH",
"177 548 LINE SMOOTH",
"184 586 OFFCURVE",
"186 601 OFFCURVE",
"181 616 CURVE SMOOTH",
"177 628 OFFCURVE",
"124 636 OFFCURVE",
"113 636 CURVE",
"110 647 OFFCURVE",
"114 660 OFFCURVE",
"118 665 CURVE",
"160 663 OFFCURVE",
"183 660 OFFCURVE",
"214 660 CURVE SMOOTH",
"242 660 OFFCURVE",
"272 661 OFFCURVE",
"285 662 CURVE",
"317 582 OFFCURVE",
"480 321 OFFCURVE",
"553 166 CURVE",
"627 545 LINE SMOOTH",
"634 581 OFFCURVE",
"637 598 OFFCURVE",
"631 614 CURVE SMOOTH",
"627 624 OFFCURVE",
"579 634 OFFCURVE",
"564 634 CURVE",
"561 641 OFFCURVE",
"565 657 OFFCURVE",
"568 663 CURVE",
"605 661 OFFCURVE",
"633 658 OFFCURVE",
"674 658 CURVE SMOOTH",
"717 658 OFFCURVE",
"733 661 OFFCURVE",
"776 663 CURVE",
"778 658 OFFCURVE",
"778 645 OFFCURVE",
"771 634 CURVE",
"760 634 OFFCURVE",
"703 626 OFFCURVE",
"694 614 CURVE SMOOTH",
"683 599 OFFCURVE",
"679 584 OFFCURVE",
"672 546 CURVE SMOOTH",
"589 116 LINE SMOOTH",
"538 -148 OFFCURVE",
"400 -233 OFFCURVE",
"320 -233 CURVE",
"318 -230 OFFCURVE",
"317 -225 OFFCURVE",
"317 -220 CURVE SMOOTH",
"317 -218 OFFCURVE",
"318 -214 OFFCURVE",
"318 -214 CURVE",
"418 -183 OFFCURVE",
"481 -68 OFFCURVE"
);
}
);
width = 731;
}
);
unicode = 014A;
userData = {
com.fontlab.hintData = {
hhints = (
{
position = -233;
width = 19;
},
{
position = -3;
width = 29;
},
{
position = 634;
width = 29;
}
);
};
};
},
{
glyphname = O;
lastChange = "2017-07-12 19:24:35 +0000";
layers = (
{
layerId = "42F082D8-1FA6-4D23-B964-75333DCE4509";
paths = (
{
closed = 1;
nodes = (
"406 635 CURVE SMOOTH",
"280 635 OFFCURVE",
"155 478 OFFCURVE",
"155 268 CURVE SMOOTH",
"155 153 OFFCURVE",
"191 18 OFFCURVE",
"328 18 CURVE SMOOTH",
"481 18 OFFCURVE",
"578 214 OFFCURVE",
"578 393 CURVE SMOOTH",
"578 489 OFFCURVE",
"547 635 OFFCURVE"
);
},
{
closed = 1;
nodes = (
"415 665 CURVE SMOOTH",
"573 665 OFFCURVE",
"672 542 OFFCURVE",
"672 382 CURVE SMOOTH",
"672 148 OFFCURVE",
"511 -11 OFFCURVE",
"319 -11 CURVE SMOOTH",
"157 -11 OFFCURVE",
"61 115 OFFCURVE",
"61 273 CURVE SMOOTH",
"61 503 OFFCURVE",
"233 665 OFFCURVE"
);
}
);
width = 710;
}
);
unicode = 004F;
userData = {
com.fontlab.hintData = {
hhints = (
{
position = -11;
width = 29;
},
{
position = 635;
width = 30;
}
);
vhints = (
{
position = 61;
width = 94;
},
{
position = 578;
width = 94;
}
);
};
};
},
{
glyphname = Ohorn;
lastChange = "2017-07-12 19:24:35 +0000";
layers = (
{
layerId = "42F082D8-1FA6-4D23-B964-75333DCE4509";
paths = (
{
closed = 1;
nodes = (
"406 635 CURVE SMOOTH",
"280 635 OFFCURVE",
"155 478 OFFCURVE",
"155 268 CURVE SMOOTH",
"155 153 OFFCURVE",
"191 18 OFFCURVE",
"328 18 CURVE SMOOTH",
"481 18 OFFCURVE",
"578 214 OFFCURVE",
"578 393 CURVE SMOOTH",
"578 489 OFFCURVE",
"547 635 OFFCURVE"
);
},
{
closed = 1;
nodes = (
"645 592 CURVE SMOOTH",
"666 592 OFFCURVE",
"687 606 OFFCURVE",
"687 627 CURVE SMOOTH",
"687 636 OFFCURVE",
"680 644 OFFCURVE",
"678 648 CURVE SMOOTH",
"675 655 OFFCURVE",
"671 659 OFFCURVE",
"671 670 CURVE SMOOTH",
"671 694 OFFCURVE",
"701 708 OFFCURVE",
"720 708 CURVE SMOOTH",
"729 708 OFFCURVE",
"737 706 OFFCURVE",
"742 704 CURVE",
"749 692 OFFCURVE",
"752 682 OFFCURVE",
"752 670 CURVE SMOOTH",
"752 607 OFFCURVE",
"678 561 OFFCURVE",
"633 561 CURVE SMOOTH",
"629 561 OFFCURVE",
"624 561 OFFCURVE",
"619 562 CURVE",
"653 514 OFFCURVE",
"672 451 OFFCURVE",
"672 382 CURVE SMOOTH",
"672 148 OFFCURVE",
"511 -11 OFFCURVE",
"319 -11 CURVE SMOOTH",
"157 -11 OFFCURVE",
"61 115 OFFCURVE",
"61 273 CURVE SMOOTH",
"61 503 OFFCURVE",
"233 665 OFFCURVE",
"415 665 CURVE SMOOTH",
"464 665 OFFCURVE",
"508 653 OFFCURVE",
"544 632 CURVE SMOOTH",
"581 611 OFFCURVE",
"610 592 OFFCURVE"
);
}
);
width = 710;
}
);
unicode = 01A0;
userData = {
com.fontlab.hintData = {
hhints = (
{
position = -11;
width = 29;
},
{
position = 561;
width = 31;
},
{
position = 635;
width = 30;
}
);
vhints = (
{
position = 61;
width = 94;
},
{
position = 578;
width = 94;
},
{
position = 687;
width = 65;
}
);
};
};
},
{
glyphname = Oslash;
lastChange = "2017-07-12 19:24:35 +0000";
layers = (
{
components = (
{
name = O;
}
);
layerId = "42F082D8-1FA6-4D23-B964-75333DCE4509";
paths = (
{
closed = 1;
nodes = (
"118 -13 LINE",
"110 -10 OFFCURVE",
"91 4 OFFCURVE",
"96 10 CURVE SMOOTH",
"612 667 LINE",
"620 665 OFFCURVE",
"640 651 OFFCURVE",
"635 645 CURVE SMOOTH"
);
}
);
width = 710;
}
);
unicode = 00D8;
userData = {
com.fontlab.hintData = {
hhints = (
{
position = -11;
width = 29;
},
{
position = 635;
width = 30;
},
{
position = 647;
width = 20;
}
);
vhints = (
{
position = 61;
width = 94;
},
{
position = 578;
width = 94;
}
);
};
};
},
{
glyphname = OE;
lastChange = "2017-07-12 19:24:35 +0000";
layers = (
{
layerId = "42F082D8-1FA6-4D23-B964-75333DCE4509";
paths = (
{
closed = 1;
nodes = (
"600 657 CURVE SMOOTH",
"687 657 OFFCURVE",
"792 664 OFFCURVE",
"893 664 CURVE",
"890 614 OFFCURVE",
"894 573 OFFCURVE",
"894 528 CURVE",
"891 525 OFFCURVE",
"883 523 OFFCURVE",
"876 523 CURVE SMOOTH",
"869 523 OFFCURVE",
"865 525 OFFCURVE",
"865 530 CURVE SMOOTH",
"860 610 OFFCURVE",
"826 630 OFFCURVE",
"777 630 CURVE SMOOTH",
"697 630 LINE SMOOTH",
"686 630 OFFCURVE",
"636 629 OFFCURVE",
"631 619 CURVE SMOOTH",
"623 603 OFFCURVE",
"616 574 OFFCURVE",
"611 547 CURVE SMOOTH",
"574 355 LINE SMOOTH",
"573 350 OFFCURVE",
"593 349 OFFCURVE",
"613 349 CURVE SMOOTH",
"662 349 LINE SMOOTH",
"751 349 OFFCURVE",
"749 355 OFFCURVE",
"778 421 CURVE SMOOTH",
"780 426 OFFCURVE",
"787 428 OFFCURVE",
"794 428 CURVE SMOOTH",
"801 428 OFFCURVE",
"806 426 OFFCURVE",
"808 423 CURVE",
"772 234 LINE",
"770 232 OFFCURVE",
"763 230 OFFCURVE",
"756 230 CURVE SMOOTH",
"749 230 OFFCURVE",
"744 233 OFFCURVE",
"743 238 CURVE SMOOTH",
"740 295 OFFCURVE",
"737 302 OFFCURVE",
"730 308 CURVE SMOOTH",
"721 315 OFFCURVE",
"668 316 OFFCURVE",
"633 316 CURVE SMOOTH",
"607 316 OFFCURVE",
"566 316 OFFCURVE",
"564 307 CURVE SMOOTH",
"525 109 LINE SMOOTH",
"522 94 OFFCURVE",
"513 45 OFFCURVE",
"518 40 CURVE SMOOTH",
"528 30 OFFCURVE",
"543 30 OFFCURVE",
"582 30 CURVE SMOOTH",
"626 30 LINE SMOOTH",
"677 30 OFFCURVE",
"718 40 OFFCURVE",
"750 61 CURVE SMOOTH",
"777 79 OFFCURVE",
"803 109 OFFCURVE",
"828 162 CURVE SMOOTH",
"830 166 OFFCURVE",
"836 168 OFFCURVE",
"843 168 CURVE SMOOTH",
"852 168 OFFCURVE",
"863 165 OFFCURVE",
"865 162 CURVE",
"837 108 OFFCURVE",
"797 40 OFFCURVE",
"782 -4 CURVE",
"681 -4 OFFCURVE",
"589 2 OFFCURVE",
"466 0 CURVE SMOOTH",
"411 -1 OFFCURVE",
"359 -11 OFFCURVE",
"325 -11 CURVE SMOOTH",
"142 -11 OFFCURVE",
"57 123 OFFCURVE",
"57 274 CURVE SMOOTH",
"57 489 OFFCURVE",
"214 666 OFFCURVE",
"413 666 CURVE SMOOTH",
"486 666 OFFCURVE",
"537 656 OFFCURVE"
);
},
{
closed = 1;
nodes = (
"530 557 LINE SMOOTH",
"542 620 OFFCURVE",
"459 636 OFFCURVE",
"404 636 CURVE SMOOTH",
"253 636 OFFCURVE",
"151 444 OFFCURVE",
"151 272 CURVE SMOOTH",
"151 109 OFFCURVE",
"212 18 OFFCURVE",
"325 18 CURVE SMOOTH",
"399 18 OFFCURVE",
"424 51 OFFCURVE",
"429 62 CURVE SMOOTH",
"437 78 OFFCURVE",
"441 86 OFFCURVE",
"447 116 CURVE SMOOTH"
);
}
);
width = 886;
}
);
unicode = 0152;
userData = {
com.fontlab.hintData = {
hhints = (
{
position = -11;
width = 29;
},
{
position = 0;
width = 30;
},
{
position = 316;
width = 33;
},
{
position = 630;
width = 27;
},
{
position = 636;
width = 30;
}
);
vhints = (
{
position = 57;
width = 94;
},
{
position = 743;
width = 29;
},
{
position = 865;
width = 29;
}
);
};
};
},
{
glyphname = P;
lastChange = "2017-07-12 19:24:35 +0000";
layers = (
{
layerId = "42F082D8-1FA6-4D23-B964-75333DCE4509";
paths = (
{
closed = 1;
nodes = (
"523 508 CURVE SMOOTH",
"523 380 OFFCURVE",
"412 282 OFFCURVE",
"290 282 CURVE SMOOTH",
"269 282 OFFCURVE",
"250 288 OFFCURVE",
"245 292 CURVE SMOOTH",
"243 294 OFFCURVE",
"237 303 OFFCURVE",
"237 308 CURVE SMOOTH",
"237 310 OFFCURVE",
"239 311 OFFCURVE",
"241 312 CURVE",
"249 308 OFFCURVE",
"265 308 OFFCURVE",
"274 308 CURVE SMOOTH",
"348 308 OFFCURVE",
"434 382 OFFCURVE",
"434 494 CURVE SMOOTH",
"434 550 OFFCURVE",
"421 630 OFFCURVE",
"318 630 CURVE SMOOTH",
"307 630 OFFCURVE",
"275 629 OFFCURVE",
"270 620 CURVE SMOOTH",
"263 608 OFFCURVE",
"257 575 OFFCURVE",
"251 545 CURVE SMOOTH",
"167 116 LINE SMOOTH",
"161 86 OFFCURVE",
"156 58 OFFCURVE",
"158 42 CURVE SMOOTH",
"159 31 OFFCURVE",
"208 26 OFFCURVE",
"219 26 CURVE",
"222 21 OFFCURVE",
"219 2 OFFCURVE",
"213 -3 CURVE",
"175 -1 OFFCURVE",
"141 2 OFFCURVE",
"105 2 CURVE SMOOTH",
"69 2 OFFCURVE",
"34 -1 OFFCURVE",
"-5 -3 CURVE",
"-9 2 OFFCURVE",
"-5 21 OFFCURVE",
"0 26 CURVE",
"11 26 OFFCURVE",
"63 31 OFFCURVE",
"68 42 CURVE SMOOTH",
"76 58 OFFCURVE",
"81 86 OFFCURVE",
"87 116 CURVE SMOOTH",
"170 543 LINE SMOOTH",
"176 573 OFFCURVE",
"181 601 OFFCURVE",
"179 617 CURVE SMOOTH",
"178 628 OFFCURVE",
"129 633 OFFCURVE",
"118 633 CURVE",
"115 638 OFFCURVE",
"118 657 OFFCURVE",
"124 662 CURVE",
"162 660 OFFCURVE",
"199 657 OFFCURVE",
"235 657 CURVE SMOOTH",
"271 657 OFFCURVE",
"287 659 OFFCURVE",
"342 659 CURVE SMOOTH",
"448 659 OFFCURVE",
"523 599 OFFCURVE"
);
}
);
width = 511;
}
);
unicode = 0050;
userData = {
com.fontlab.hintData = {
hhints = (
{
position = -3;
width = 29;
},
{
position = 282;
width = 26;
},
{
position = 630;
width = 29;
}
);
vhints = (
{
position = 434;
width = 89;
}
);
};
};
},
{
glyphname = Thorn;
lastChange = "2017-07-12 19:24:35 +0000";
layers = (
{
layerId = "42F082D8-1FA6-4D23-B964-75333DCE4509";
paths = (
{
closed = 1;
nodes = (
"234 458 CURVE SMOOTH",
"168 116 LINE SMOOTH",
"162 86 OFFCURVE",
"156 58 OFFCURVE",
"158 42 CURVE SMOOTH",
"159 31 OFFCURVE",
"208 26 OFFCURVE",
"219 26 CURVE",
"222 21 OFFCURVE",
"219 2 OFFCURVE",
"213 -3 CURVE",
"175 -1 OFFCURVE",
"142 2 OFFCURVE",
"106 2 CURVE SMOOTH",
"70 2 OFFCURVE",
"34 -1 OFFCURVE",
"-5 -3 CURVE",
"-9 2 OFFCURVE",
"-5 21 OFFCURVE",
"0 26 CURVE",
"11 26 OFFCURVE",
"63 31 OFFCURVE",
"68 42 CURVE SMOOTH",
"76 58 OFFCURVE",
"81 86 OFFCURVE",
"87 116 CURVE SMOOTH",
"170 543 LINE SMOOTH",
"176 573 OFFCURVE",
"181 601 OFFCURVE",
"179 617 CURVE SMOOTH",
"178 628 OFFCURVE",
"129 633 OFFCURVE",
"118 633 CURVE",
"115 638 OFFCURVE",
"118 657 OFFCURVE",
"124 662 CURVE",
"162 660 OFFCURVE",
"197 657 OFFCURVE",
"233 657 CURVE SMOOTH",
"269 657 OFFCURVE",
"304 660 OFFCURVE",
"343 662 CURVE",
"347 657 OFFCURVE",
"342 638 OFFCURVE",
"337 633 CURVE",
"326 633 OFFCURVE",
"275 628 OFFCURVE",
"270 617 CURVE SMOOTH",
"262 601 OFFCURVE",
"257 573 OFFCURVE",
"251 543 CURVE SMOOTH",
"242 500 LINE",
"265 509 OFFCURVE",
"290 511 OFFCURVE",
"313 511 CURVE SMOOTH",
"419 511 OFFCURVE",
"494 451 OFFCURVE",
"494 360 CURVE SMOOTH",
"494 232 OFFCURVE",
"383 134 OFFCURVE",
"261 134 CURVE SMOOTH",
"240 134 OFFCURVE",
"221 140 OFFCURVE",
"216 144 CURVE SMOOTH",
"214 146 OFFCURVE",
"208 155 OFFCURVE",
"208 160 CURVE SMOOTH",
"208 162 OFFCURVE",
"210 163 OFFCURVE",
"212 164 CURVE",
"220 160 OFFCURVE",
"236 160 OFFCURVE",
"245 160 CURVE SMOOTH",
"319 160 OFFCURVE",
"405 234 OFFCURVE",
"405 346 CURVE SMOOTH",
"405 402 OFFCURVE",
"392 482 OFFCURVE",
"289 482 CURVE SMOOTH",
"278 482 OFFCURVE",
"238 480 OFFCURVE"
);
}
);
width = 470;
}
);
unicode = 00DE;
userData = {
com.fontlab.hintData = {
hhints = (
{
position = -3;
width = 29;
},
{
position = 134;
width = 26;
},
{
position = 482;
width = 29;
},
{
position = 633;
width = 29;
}
);
vhints = (
{
position = 405;
width = 89;
}
);
};
};
},
{
glyphname = Q;
lastChange = "2017-07-12 19:24:35 +0000";
layers = (
{
layerId = "42F082D8-1FA6-4D23-B964-75333DCE4509";
paths = (
{
closed = 1;
nodes = (
"415 665 CURVE SMOOTH",
"573 665 OFFCURVE",
"672 542 OFFCURVE",
"672 382 CURVE SMOOTH",
"672 176 OFFCURVE",
"547 28 OFFCURVE",
"386 -4 CURVE",
"459 -47 OFFCURVE",
"484 -81 OFFCURVE",
"575 -81 CURVE SMOOTH",
"612 -81 OFFCURVE",
"659 -70 OFFCURVE",
"666 -68 CURVE",
"673 -68 OFFCURVE",
"685 -77 OFFCURVE",
"685 -81 CURVE",
"628 -110 OFFCURVE",
"566 -136 OFFCURVE",
"509 -136 CURVE SMOOTH",
"411 -136 OFFCURVE",
"343 -37 OFFCURVE",
"228 4 CURVE SMOOTH",
"122 42 OFFCURVE",
"61 147 OFFCURVE",
"61 273 CURVE SMOOTH",
"61 503 OFFCURVE",
"233 665 OFFCURVE"
);
},
{
closed = 1;
nodes = (
"406 635 CURVE SMOOTH",
"280 635 OFFCURVE",
"155 478 OFFCURVE",
"155 268 CURVE SMOOTH",
"155 153 OFFCURVE",
"191 18 OFFCURVE",
"328 18 CURVE SMOOTH",
"481 18 OFFCURVE",
"578 214 OFFCURVE",
"578 393 CURVE SMOOTH",
"578 489 OFFCURVE",
"547 635 OFFCURVE"
);
}
);
width = 710;
}
);
unicode = 0051;
userData = {
com.fontlab.hintData = {
hhints = (
{
position = -136;
width = 55;
},
{
position = 635;
width = 30;
}
);
vhints = (
{
position = 61;
width = 94;
},
{
position = 578;
width = 94;
}
);
};
};
},
{
glyphname = R;
lastChange = "2017-07-12 19:24:35 +0000";
layers = (
{
layerId = "42F082D8-1FA6-4D23-B964-75333DCE4509";
paths = (
{
closed = 1;
nodes = (
"553 -3 CURVE",
"471 -3 OFFCURVE",
"408 1 OFFCURVE",
"384 47 CURVE SMOOTH",
"354 106 OFFCURVE",
"311 204 OFFCURVE",
"279 291 CURVE SMOOTH",
"276 300 OFFCURVE",
"266 303 OFFCURVE",
"253 303 CURVE SMOOTH",
"204 303 LINE",
"168 116 LINE SMOOTH",
"162 86 OFFCURVE",
"156 58 OFFCURVE",
"158 42 CURVE SMOOTH",
"159 31 OFFCURVE",
"208 26 OFFCURVE",
"219 26 CURVE",
"222 21 OFFCURVE",
"219 2 OFFCURVE",
"213 -3 CURVE",
"175 -1 OFFCURVE",
"142 2 OFFCURVE",
"106 2 CURVE SMOOTH",
"70 2 OFFCURVE",
"34 -1 OFFCURVE",
"-5 -3 CURVE",
"-9 2 OFFCURVE",
"-5 21 OFFCURVE",
"0 26 CURVE",
"11 26 OFFCURVE",
"63 31 OFFCURVE",
"68 42 CURVE SMOOTH",
"76 58 OFFCURVE",
"81 86 OFFCURVE",
"87 116 CURVE SMOOTH",
"170 543 LINE SMOOTH",
"176 573 OFFCURVE",
"181 601 OFFCURVE",
"179 617 CURVE SMOOTH",
"178 628 OFFCURVE",
"129 633 OFFCURVE",
"118 633 CURVE",
"115 638 OFFCURVE",
"118 657 OFFCURVE",
"124 662 CURVE",
"162 660 OFFCURVE",
"200 657 OFFCURVE",
"236 657 CURVE SMOOTH",
"272 657 OFFCURVE",
"313 659 OFFCURVE",
"368 659 CURVE SMOOTH",
"453 659 OFFCURVE",
"524 611 OFFCURVE",
"524 518 CURVE SMOOTH",
"524 422 OFFCURVE",
"437 348 OFFCURVE",
"360 320 CURVE",
"393 230 OFFCURVE",
"441 129 OFFCURVE",
"466 86 CURVE SMOOTH",
"489 45 OFFCURVE",
"509 30 OFFCURVE",
"559 26 CURVE",
"563 21 OFFCURVE",
"554 -1 OFFCURVE"
);
},
{
closed = 1;
nodes = (
"210 333 LINE",
"260 333 LINE SMOOTH",
"339 333 OFFCURVE",
"435 390 OFFCURVE",
"435 512 CURVE SMOOTH",
"435 553 OFFCURVE",
"422 630 OFFCURVE",
"319 630 CURVE SMOOTH",
"308 630 OFFCURVE",
"275 629 OFFCURVE",
"270 620 CURVE SMOOTH",
"263 608 OFFCURVE",
"257 575 OFFCURVE",
"251 545 CURVE SMOOTH"
);
}
);
width = 579;
}
);
unicode = 0052;
userData = {
com.fontlab.hintData = {
hhints = (
{
position = -3;
width = 29;
},
{
position = 303;
width = 30;
},
{
position = 630;
width = 29;
}
);
vhints = (
{
position = 435;
width = 89;
}
);
};
};
},
{
glyphname = S;
lastChange = "2017-07-12 19:24:35 +0000";
layers = (
{
layerId = "42F082D8-1FA6-4D23-B964-75333DCE4509";
paths = (
{
closed = 1;
nodes = (
"312 666 CURVE SMOOTH",
"370 666 OFFCURVE",
"400 654 OFFCURVE",
"449 642 CURVE",
"446 608 OFFCURVE",
"434 528 OFFCURVE",
"428 498 CURVE SMOOTH",
"427 491 OFFCURVE",
"421 491 OFFCURVE",
"418 491 CURVE SMOOTH",
"414 491 OFFCURVE",
"403 492 OFFCURVE",
"397 498 CURVE",
"402 578 OFFCURVE",
"375 635 OFFCURVE",
"304 635 CURVE SMOOTH",
"222 635 OFFCURVE",
"180 571 OFFCURVE",
"180 520 CURVE SMOOTH",
"180 438 OFFCURVE",
"242 406 OFFCURVE",
"295 364 CURVE SMOOTH",
"348 322 OFFCURVE",
"421 286 OFFCURVE",
"421 193 CURVE SMOOTH",
"421 69 OFFCURVE",
"301 -8 OFFCURVE",
"193 -8 CURVE SMOOTH",
"136 -8 OFFCURVE",
"84 12 OFFCURVE",
"46 34 CURVE",
"33 88 OFFCURVE",
"32 172 OFFCURVE",
"34 184 CURVE",
"37 188 OFFCURVE",
"52 190 OFFCURVE",
"59 190 CURVE SMOOTH",
"64 190 OFFCURVE",
"67 188 OFFCURVE",
"69 184 CURVE",
"69 129 OFFCURVE",
"106 22 OFFCURVE",
"205 22 CURVE SMOOTH",
"271 22 OFFCURVE",
"332 68 OFFCURVE",
"332 147 CURVE SMOOTH",
"332 219 OFFCURVE",
"287 254 OFFCURVE",
"237 294 CURVE SMOOTH",
"177 342 OFFCURVE",
"102 373 OFFCURVE",
"102 476 CURVE SMOOTH",
"102 591 OFFCURVE",
"219 666 OFFCURVE"
);
}
);
width = 472;
}
);
unicode = 0053;
userData = {
com.fontlab.hintData = {
hhints = (
{
position = -8;
width = 30;
},
{
position = 635;
width = 31;
}
);
vhints = (
{
position = 34;
width = 35;
},
{
position = 102;
width = 78;
},
{
position = 332;
width = 89;
},
{
position = 397;
width = 31;
}
);
};
};
},
{
glyphname = T;
lastChange = "2017-07-12 19:24:35 +0000";
layers = (
{
layerId = "42F082D8-1FA6-4D23-B964-75333DCE4509";
paths = (
{
closed = 1;
nodes = (
"550 655 LINE SMOOTH",
"565 655 OFFCURVE",
"597 664 OFFCURVE",
"609 670 CURVE SMOOTH",
"619 675 OFFCURVE",
"622 675 OFFCURVE",
"627 672 CURVE",
"622 611 OFFCURVE",
"618 553 OFFCURVE",
"618 500 CURVE",
"615 497 OFFCURVE",
"606 492 OFFCURVE",
"598 493 CURVE SMOOTH",
"593 493 OFFCURVE",
"587 495 OFFCURVE",
"586 498 CURVE",
"587 568 OFFCURVE",
"568 620 OFFCURVE",
"522 620 CURVE SMOOTH",
"404 620 LINE",
"305 116 LINE SMOOTH",
"299 86 OFFCURVE",
"293 58 OFFCURVE",
"295 42 CURVE SMOOTH",
"296 31 OFFCURVE",
"345 26 OFFCURVE",
"356 26 CURVE",
"359 21 OFFCURVE",
"357 2 OFFCURVE",
"351 -3 CURVE",
"313 -1 OFFCURVE",
"279 2 OFFCURVE",
"243 2 CURVE SMOOTH",
"207 2 OFFCURVE",
"171 -1 OFFCURVE",
"132 -3 CURVE",
"128 2 OFFCURVE",
"133 21 OFFCURVE",
"138 26 CURVE",
"149 26 OFFCURVE",
"200 31 OFFCURVE",
"205 42 CURVE SMOOTH",
"213 58 OFFCURVE",
"218 86 OFFCURVE",
"224 116 CURVE SMOOTH",
"323 620 LINE",
"203 620 LINE SMOOTH",
"157 620 OFFCURVE",
"117 568 OFFCURVE",
"90 498 CURVE SMOOTH",
"88 495 OFFCURVE",
"81 493 OFFCURVE",
"76 493 CURVE SMOOTH",
"67 492 OFFCURVE",
"61 497 OFFCURVE",
"59 500 CURVE",
"80 553 OFFCURVE",
"99 611 OFFCURVE",
"117 672 CURVE",
"123 675 OFFCURVE",
"132 672 OFFCURVE",
"137 669 CURVE SMOOTH",
"147 663 OFFCURVE",
"172 655 OFFCURVE",
"187 655 CURVE SMOOTH"
);
}
);
width = 587;
}
);
unicode = 0054;
userData = {
com.fontlab.hintData = {
hhints = (
{
position = -3;
width = 29;
},
{
position = 620;
width = 35;
}
);
vhints = (
{
position = 586;
width = 32;
}
);
};
};
},
{
glyphname = Tbar;
lastChange = "2017-07-12 19:24:35 +0000";
layers = (
{
components = (
{
name = T;
transform = "{1, 0, 0, 1, 1, 0}";
}
);
layerId = "42F082D8-1FA6-4D23-B964-75333DCE4509";
paths = (
{
closed = 1;
nodes = (
"153 348 CURVE",
"180 348 OFFCURVE",
"460 348 OFFCURVE",
"473 348 CURVE SMOOTH",
"477 348 OFFCURVE",
"478 343 OFFCURVE",
"477 338 CURVE SMOOTH",
"476 332 OFFCURVE",
"470 317 OFFCURVE",
"465 308 CURVE",
"438 308 OFFCURVE",
"158 308 OFFCURVE",
"145 308 CURVE SMOOTH",
"141 308 OFFCURVE",
"141 316 OFFCURVE",
"142 321 CURVE SMOOTH",
"143 327 OFFCURVE",
"146 339 OFFCURVE"
);
}
);
width = 588;
}
);
unicode = 0166;
userData = {
com.fontlab.hintData = {
hhints = (
{
position = -3;
width = 29;
},
{
position = 308;
width = 40;
},
{
position = 620;
width = 35;
}
);
vhints = (
{
position = 587;
width = 32;
}
);
};
};
},
{
glyphname = U;
lastChange = "2017-07-12 19:24:35 +0000";
layers = (
{
layerId = "42F082D8-1FA6-4D23-B964-75333DCE4509";
paths = (
{
closed = 1;
nodes = (
"218 657 CURVE SMOOTH",
"254 657 OFFCURVE",
"289 660 OFFCURVE",
"328 662 CURVE",
"332 657 OFFCURVE",
"327 638 OFFCURVE",
"322 633 CURVE",
"311 633 OFFCURVE",
"260 628 OFFCURVE",
"255 617 CURVE SMOOTH",
"247 601 OFFCURVE",
"242 573 OFFCURVE",
"236 543 CURVE SMOOTH",
"188 296 LINE SMOOTH",
"173 218 OFFCURVE",
"174 159 OFFCURVE",
"193 120 CURVE SMOOTH",
"215 76 OFFCURVE",
"255 54 OFFCURVE",
"314 54 CURVE SMOOTH",
"410 54 OFFCURVE",
"483 102 OFFCURVE",
"519 274 CURVE SMOOTH",
"572 545 LINE SMOOTH",
"579 581 OFFCURVE",
"582 598 OFFCURVE",
"576 614 CURVE SMOOTH",
"572 624 OFFCURVE",
"528 634 OFFCURVE",
"513 634 CURVE",
"510 641 OFFCURVE",
"514 657 OFFCURVE",
"517 663 CURVE",
"554 661 OFFCURVE",
"576 658 OFFCURVE",
"617 658 CURVE SMOOTH",
"660 658 OFFCURVE",
"676 661 OFFCURVE",
"719 663 CURVE",
"721 658 OFFCURVE",
"721 645 OFFCURVE",
"714 634 CURVE",
"703 634 OFFCURVE",
"646 626 OFFCURVE",
"637 614 CURVE SMOOTH",
"626 599 OFFCURVE",
"622 584 OFFCURVE",
"615 546 CURVE SMOOTH",
"562 276 LINE SMOOTH",
"523 76 OFFCURVE",
"428 -4 OFFCURVE",
"283 -4 CURVE SMOOTH",
"213 -4 OFFCURVE",
"158 22 OFFCURVE",
"125 68 CURVE SMOOTH",
"94 112 OFFCURVE",
"83 174 OFFCURVE",
"98 251 CURVE SMOOTH",
"155 543 LINE SMOOTH",
"161 573 OFFCURVE",
"167 601 OFFCURVE",
"165 617 CURVE SMOOTH",
"164 628 OFFCURVE",
"115 633 OFFCURVE",
"104 633 CURVE",
"101 638 OFFCURVE",
"104 657 OFFCURVE",
"110 662 CURVE",
"148 660 OFFCURVE",
"182 657 OFFCURVE"
);
}
);
width = 661;
}
);
unicode = 0055;
userData = {
com.fontlab.hintData = {
hhints = (
{
position = -4;
width = 58;
},
{
position = 633;
width = 29;
}
);
};
};
},
{
glyphname = Uhorn;
lastChange = "2017-07-12 19:24:35 +0000";
layers = (
{
layerId = "42F082D8-1FA6-4D23-B964-75333DCE4509";
paths = (
{
closed = 1;
nodes = (
"641 613 CURVE SMOOTH",
"629 600 OFFCURVE",
"622 584 OFFCURVE",
"615 546 CURVE SMOOTH",
"562 276 LINE SMOOTH",
"523 76 OFFCURVE",
"428 -4 OFFCURVE",
"283 -4 CURVE SMOOTH",
"213 -4 OFFCURVE",
"158 22 OFFCURVE",
"125 68 CURVE SMOOTH",
"94 112 OFFCURVE",
"83 174 OFFCURVE",
"98 251 CURVE SMOOTH",
"155 543 LINE SMOOTH",
"161 573 OFFCURVE",
"167 601 OFFCURVE",
"165 617 CURVE SMOOTH",
"164 628 OFFCURVE",
"115 633 OFFCURVE",
"104 633 CURVE",
"101 638 OFFCURVE",
"104 657 OFFCURVE",
"110 662 CURVE",
"148 660 OFFCURVE",
"182 657 OFFCURVE",
"218 657 CURVE SMOOTH",
"254 657 OFFCURVE",
"289 660 OFFCURVE",
"328 662 CURVE",
"332 657 OFFCURVE",
"327 638 OFFCURVE",
"322 633 CURVE",
"311 633 OFFCURVE",
"260 628 OFFCURVE",
"255 617 CURVE SMOOTH",
"247 601 OFFCURVE",
"242 573 OFFCURVE",
"236 543 CURVE SMOOTH",
"188 296 LINE SMOOTH",
"173 218 OFFCURVE",
"174 159 OFFCURVE",
"193 120 CURVE SMOOTH",
"215 76 OFFCURVE",
"255 54 OFFCURVE",
"314 54 CURVE SMOOTH",
"410 54 OFFCURVE",
"483 102 OFFCURVE",
"519 274 CURVE SMOOTH",
"572 545 LINE SMOOTH",
"579 581 OFFCURVE",
"582 598 OFFCURVE",
"576 614 CURVE SMOOTH",
"572 624 OFFCURVE",
"528 634 OFFCURVE",
"513 634 CURVE",
"510 641 OFFCURVE",
"514 657 OFFCURVE",
"517 663 CURVE",
"554 661 OFFCURVE",
"576 658 OFFCURVE",
"617 658 CURVE SMOOTH",
"654 658 OFFCURVE",
"707 663 OFFCURVE",
"707 684 CURVE SMOOTH",
"707 693 OFFCURVE",
"700 701 OFFCURVE",
"698 705 CURVE SMOOTH",
"695 712 OFFCURVE",
"691 716 OFFCURVE",
"691 727 CURVE SMOOTH",
"691 751 OFFCURVE",
"721 765 OFFCURVE",
"740 765 CURVE SMOOTH",
"749 765 OFFCURVE",
"757 763 OFFCURVE",
"762 761 CURVE",
"769 749 OFFCURVE",
"772 739 OFFCURVE",
"772 727 CURVE SMOOTH",
"772 675 OFFCURVE",
"715 637 OFFCURVE",
"672 627 CURVE SMOOTH",
"663 625 OFFCURVE",
"647 620 OFFCURVE"
);
}
);
width = 661;
}
);
unicode = 01AF;
userData = {
com.fontlab.hintData = {
hhints = (
{
position = -4;
width = 58;
},
{
position = 633;
width = 29;
}
);
vhints = (
{
position = 707;
width = 65;
}
);
};
};
},
{
glyphname = Uogonek;
lastChange = "2017-07-12 19:24:35 +0000";
layers = (
{
layerId = "42F082D8-1FA6-4D23-B964-75333DCE4509";
paths = (
{
closed = 1;
nodes = (
"271 -139 CURVE SMOOTH",
"271 -154 OFFCURVE",
"277 -171 OFFCURVE",
"302 -171 CURVE SMOOTH",
"349 -171 OFFCURVE",
"379 -133 OFFCURVE",
"385 -133 CURVE SMOOTH",
"393 -133 OFFCURVE",
"382 -160 OFFCURVE",
"379 -163 CURVE SMOOTH",
"353 -192 OFFCURVE",
"310 -230 OFFCURVE",
"268 -230 CURVE SMOOTH",
"238 -230 OFFCURVE",
"217 -202 OFFCURVE",
"217 -175 CURVE SMOOTH",
"217 -124 OFFCURVE",
"286 -41 OFFCURVE",
"340 0 CURVE",
"322 -3 OFFCURVE",
"303 -4 OFFCURVE",
"284 -4 CURVE SMOOTH",
"211 -4 OFFCURVE",
"154 24 OFFCURVE",
"122 74 CURVE SMOOTH",
"94 118 OFFCURVE",
"85 178 OFFCURVE",
"99 251 CURVE SMOOTH",
"156 543 LINE SMOOTH",
"162 573 OFFCURVE",
"168 601 OFFCURVE",
"166 617 CURVE SMOOTH",
"165 628 OFFCURVE",
"116 633 OFFCURVE",
"105 633 CURVE",
"102 638 OFFCURVE",
"105 657 OFFCURVE",
"111 662 CURVE",
"149 660 OFFCURVE",
"183 657 OFFCURVE",
"219 657 CURVE SMOOTH",
"255 657 OFFCURVE",
"290 660 OFFCURVE",
"329 662 CURVE",
"333 657 OFFCURVE",
"328 638 OFFCURVE",
"323 633 CURVE",
"312 633 OFFCURVE",
"261 628 OFFCURVE",
"256 617 CURVE SMOOTH",
"248 601 OFFCURVE",
"243 573 OFFCURVE",
"237 543 CURVE SMOOTH",
"189 296 LINE SMOOTH",
"174 219 OFFCURVE",
"175 162 OFFCURVE",
"193 122 CURVE SMOOTH",
"213 76 OFFCURVE",
"255 54 OFFCURVE",
"315 54 CURVE SMOOTH",
"411 54 OFFCURVE",
"502 102 OFFCURVE",
"538 274 CURVE",
"591 545 LINE SMOOTH",
"598 581 OFFCURVE",
"601 598 OFFCURVE",
"595 614 CURVE SMOOTH",
"591 624 OFFCURVE",
"547 634 OFFCURVE",
"532 634 CURVE",
"529 641 OFFCURVE",
"533 657 OFFCURVE",
"536 663 CURVE",
"573 661 OFFCURVE",
"597 658 OFFCURVE",
"638 658 CURVE SMOOTH",
"681 658 OFFCURVE",
"697 661 OFFCURVE",
"740 663 CURVE",
"742 658 OFFCURVE",
"742 645 OFFCURVE",
"735 634 CURVE",
"724 634 OFFCURVE",
"667 626 OFFCURVE",
"658 614 CURVE SMOOTH",
"647 599 OFFCURVE",
"643 584 OFFCURVE",
"636 546 CURVE SMOOTH",
"583 276 LINE SMOOTH",
"560 161 OFFCURVE",
"512 87 OFFCURVE",
"449 43 CURVE SMOOTH",
"366 -15 OFFCURVE",
"271 -91 OFFCURVE"
);
}
);
width = 682;
}
);
unicode = 0172;
userData = {
com.fontlab.hintData = {
hhints = (
{
position = -230;
width = 59;
},
{
position = -4;
width = 58;
},
{
position = 633;
width = 29;
}
);
vhints = (
{
position = 217;
width = 54;
}
);
};
};
},
{
glyphname = V;
lastChange = "2017-07-12 19:24:35 +0000";
layers = (
{
layerId = "42F082D8-1FA6-4D23-B964-75333DCE4509";
paths = (
{
closed = 1;
nodes = (
"175 657 CURVE SMOOTH",
"216 657 OFFCURVE",
"253 660 OFFCURVE",
"291 662 CURVE",
"292 656 OFFCURVE",
"288 634 OFFCURVE",
"284 633 CURVE",
"277 633 OFFCURVE",
"227 628 OFFCURVE",
"222 600 CURVE SMOOTH",
"220 590 OFFCURVE",
"221 565 OFFCURVE",
"226 529 CURVE SMOOTH",
"238 440 OFFCURVE",
"285 131 OFFCURVE",
"286 128 CURVE",
"290 133 OFFCURVE",
"511 524 OFFCURVE",
"511 524 CURVE SMOOTH",
"525 547 OFFCURVE",
"535 576 OFFCURVE",
"538 594 CURVE SMOOTH",
"544 626 OFFCURVE",
"496 633 OFFCURVE",
"485 633 CURVE",
"481 635 OFFCURVE",
"484 657 OFFCURVE",
"490 662 CURVE",
"524 660 OFFCURVE",
"554 657 OFFCURVE",
"588 657 CURVE SMOOTH",
"631 657 OFFCURVE",
"642 660 OFFCURVE",
"680 662 CURVE",
"682 657 OFFCURVE",
"676 633 OFFCURVE",
"673 633 CURVE SMOOTH",
"666 633 OFFCURVE",
"628 627 OFFCURVE",
"608 607 CURVE SMOOTH",
"594 593 OFFCURVE",
"563 544 OFFCURVE",
"542 506 CURVE SMOOTH",
"269 32 LINE SMOOTH",
"254 5 OFFCURVE",
"239 -2 OFFCURVE",
"227 -2 CURVE SMOOTH",
"223 -2 OFFCURVE",
"222 10 OFFCURVE",
"221 14 CURVE SMOOTH",
"192 192 OFFCURVE",
"174 322 OFFCURVE",
"142 514 CURVE SMOOTH",
"136 553 OFFCURVE",
"129 584 OFFCURVE",
"118 610 CURVE SMOOTH",
"111 626 OFFCURVE",
"73 633 OFFCURVE",
"62 633 CURVE SMOOTH",
"60 633 OFFCURVE",
"66 660 OFFCURVE",
"68 662 CURVE",
"110 660 OFFCURVE",
"132 657 OFFCURVE"
);
}
);
width = 596;
}
);
unicode = 0056;
userData = {
com.fontlab.hintData = {
hhints = (
{
position = -2;
width = 21;
},
{
position = 633;
width = 29;
}
);
};
};
},
{
glyphname = W;
lastChange = "2017-07-12 19:24:35 +0000";
layers = (
{
layerId = "42F082D8-1FA6-4D23-B964-75333DCE4509";
paths = (
{
closed = 1;
nodes = (
"172 657 CURVE SMOOTH",
"213 657 OFFCURVE",
"247 660 OFFCURVE",
"285 662 CURVE",
"286 656 OFFCURVE",
"281 634 OFFCURVE",
"277 633 CURVE",
"270 633 OFFCURVE",
"220 628 OFFCURVE",
"215 600 CURVE SMOOTH",
"214 594 OFFCURVE",
"215 575 OFFCURVE",
"217 545 CURVE SMOOTH",
"222 460 OFFCURVE",
"235 294 OFFCURVE",
"247 145 CURVE",
"476 629 LINE SMOOTH",
"486 648 OFFCURVE",
"506 662 OFFCURVE",
"516 662 CURVE SMOOTH",
"520 662 OFFCURVE",
"521 657 OFFCURVE",
"524 646 CURVE",
"526 624 OFFCURVE",
"559 343 OFFCURVE",
"583 144 CURVE",
"754 524 LINE SMOOTH",
"765 548 OFFCURVE",
"775 576 OFFCURVE",
"778 594 CURVE SMOOTH",
"784 626 OFFCURVE",
"733 633 OFFCURVE",
"722 633 CURVE",
"718 635 OFFCURVE",
"722 657 OFFCURVE",
"728 662 CURVE",
"762 660 OFFCURVE",
"793 657 OFFCURVE",
"827 657 CURVE SMOOTH",
"870 657 OFFCURVE",
"881 660 OFFCURVE",
"919 662 CURVE",
"921 657 OFFCURVE",
"915 633 OFFCURVE",
"912 633 CURVE SMOOTH",
"905 633 OFFCURVE",
"869 624 OFFCURVE",
"847 607 CURVE SMOOTH",
"832 595 OFFCURVE",
"818 572 OFFCURVE",
"799 531 CURVE SMOOTH",
"566 32 LINE SMOOTH",
"558 14 OFFCURVE",
"536 -2 OFFCURVE",
"524 -2 CURVE SMOOTH",
"520 -2 OFFCURVE",
"518 10 OFFCURVE",
"518 14 CURVE SMOOTH",
"496 202 OFFCURVE",
"481 317 OFFCURVE",
"457 511 CURVE",
"229 32 LINE SMOOTH",
"221 14 OFFCURVE",
"200 -2 OFFCURVE",
"188 -2 CURVE SMOOTH",
"184 -2 OFFCURVE",
"181 10 OFFCURVE",
"181 14 CURVE SMOOTH",
"133 532 LINE SMOOTH",
"130 572 OFFCURVE",
"130 595 OFFCURVE",
"116 613 CURVE SMOOTH",
"106 626 OFFCURVE",
"76 633 OFFCURVE",
"65 633 CURVE SMOOTH",
"63 633 OFFCURVE",
"69 660 OFFCURVE",
"71 662 CURVE",
"113 660 OFFCURVE",
"129 657 OFFCURVE"
);
}
);
width = 841;
}
);
unicode = 0057;
userData = {
com.fontlab.hintData = {
hhints = (
{
position = -2;
width = 21;
},
{
position = 633;
width = 29;
}
);
};
};
},
{
glyphname = X;
lastChange = "2017-07-12 19:24:35 +0000";
layers = (
{
layerId = "42F082D8-1FA6-4D23-B964-75333DCE4509";
paths = (
{
closed = 1;
nodes = (
"224 657 CURVE SMOOTH",
"270 657 OFFCURVE",
"306 660 OFFCURVE",
"344 662 CURVE",
"345 656 OFFCURVE",
"342 633 OFFCURVE",
"337 633 CURVE SMOOTH",
"324 633 OFFCURVE",
"280 627 OFFCURVE",
"275 601 CURVE SMOOTH",
"273 593 OFFCURVE",
"275 583 OFFCURVE",
"280 571 CURVE SMOOTH",
"354 392 LINE",
"425 472 OFFCURVE",
"507 564 OFFCURVE",
"526 592 CURVE SMOOTH",
"528 595 OFFCURVE",
"533 602 OFFCURVE",
"534 608 CURVE SMOOTH",
"535 614 OFFCURVE",
"525 632 OFFCURVE",
"473 632 CURVE",
"469 633 OFFCURVE",
"473 654 OFFCURVE",
"477 661 CURVE",
"514 658 OFFCURVE",
"542 656 OFFCURVE",
"576 656 CURVE SMOOTH",
"624 656 OFFCURVE",
"656 659 OFFCURVE",
"679 661 CURVE",
"681 656 OFFCURVE",
"678 638 OFFCURVE",
"671 632 CURVE",
"664 632 OFFCURVE",
"614 628 OFFCURVE",
"581 592 CURVE SMOOTH",
"368 361 LINE",
"491 66 LINE SMOOTH",
"503 37 OFFCURVE",
"543 26 OFFCURVE",
"574 26 CURVE",
"577 21 OFFCURVE",
"570 -1 OFFCURVE",
"569 -3 CURVE",
"532 -1 OFFCURVE",
"513 2 OFFCURVE",
"475 2 CURVE SMOOTH",
"423 2 OFFCURVE",
"390 -1 OFFCURVE",
"338 -3 CURVE",
"334 2 OFFCURVE",
"338 26 OFFCURVE",
"343 26 CURVE SMOOTH",
"353 26 OFFCURVE",
"399 35 OFFCURVE",
"403 54 CURVE SMOOTH",
"404 57 OFFCURVE",
"402 63 OFFCURVE",
"401 66 CURVE SMOOTH",
"305 300 LINE",
"234 220 OFFCURVE",
"128 93 OFFCURVE",
"106 66 CURVE SMOOTH",
"104 63 OFFCURVE",
"99 56 OFFCURVE",
"98 50 CURVE SMOOTH",
"97 44 OFFCURVE",
"112 26 OFFCURVE",
"164 26 CURVE",
"167 20 OFFCURVE",
"162 0 OFFCURVE",
"160 -3 CURVE",
"126 -1 OFFCURVE",
"90 2 OFFCURVE",
"56 2 CURVE SMOOTH",
"8 2 OFFCURVE",
"-21 -1 OFFCURVE",
"-59 -3 CURVE",
"-61 3 OFFCURVE",
"-54 23 OFFCURVE",
"-52 26 CURVE",
"-45 26 OFFCURVE",
"19 30 OFFCURVE",
"52 66 CURVE SMOOTH",
"289 332 LINE",
"200 548 LINE SMOOTH",
"186 584 OFFCURVE",
"175 601 OFFCURVE",
"152 617 CURVE SMOOTH",
"138 627 OFFCURVE",
"114 633 OFFCURVE",
"103 633 CURVE SMOOTH",
"98 633 OFFCURVE",
"103 657 OFFCURVE",
"109 662 CURVE",
"154 660 OFFCURVE",
"178 657 OFFCURVE"
);
}
);
width = 620;
}
);
unicode = 0058;
userData = {
com.fontlab.hintData = {
hhints = (
{
position = -3;
width = 29;
},
{
position = 633;
width = 29;
}
);
};
};
},
{
glyphname = Y;
lastChange = "2017-07-12 19:24:35 +0000";
layers = (
{
layerId = "42F082D8-1FA6-4D23-B964-75333DCE4509";
paths = (
{
closed = 1;
nodes = (
"211 116 CURVE SMOOTH",
"240 267 LINE SMOOTH",
"241 274 OFFCURVE",
"242 285 OFFCURVE",
"239 295 CURVE SMOOTH",
"156 548 LINE SMOOTH",
"144 585 OFFCURVE",
"131 601 OFFCURVE",
"108 617 CURVE SMOOTH",
"94 627 OFFCURVE",
"70 633 OFFCURVE",
"59 633 CURVE SMOOTH",
"54 633 OFFCURVE",
"59 657 OFFCURVE",
"65 662 CURVE",
"110 660 OFFCURVE",
"134 657 OFFCURVE",
"180 657 CURVE SMOOTH",
"226 657 OFFCURVE",
"262 660 OFFCURVE",
"300 662 CURVE",
"301 656 OFFCURVE",
"298 633 OFFCURVE",
"293 633 CURVE SMOOTH",
"280 633 OFFCURVE",
"236 627 OFFCURVE",
"231 601 CURVE SMOOTH",
"229 593 OFFCURVE",
"232 584 OFFCURVE",
"236 571 CURVE SMOOTH",
"317 331 LINE",
"380 419 OFFCURVE",
"475 561 OFFCURVE",
"492 592 CURVE SMOOTH",
"494 595 OFFCURVE",
"497 601 OFFCURVE",
"498 607 CURVE SMOOTH",
"499 613 OFFCURVE",
"487 632 OFFCURVE",
"435 632 CURVE",
"432 635 OFFCURVE",
"436 657 OFFCURVE",
"439 661 CURVE",
"473 659 OFFCURVE",
"498 656 OFFCURVE",
"532 656 CURVE SMOOTH",
"580 656 OFFCURVE",
"597 659 OFFCURVE",
"635 661 CURVE",
"635 658 OFFCURVE",
"630 632 OFFCURVE",
"627 632 CURVE SMOOTH",
"620 632 OFFCURVE",
"567 632 OFFCURVE",
"538 592 CURVE SMOOTH",
"333 301 LINE SMOOTH",
"325 290 OFFCURVE",
"325 279 OFFCURVE",
"323 270 CURVE SMOOTH",
"292 116 LINE SMOOTH",
"286 86 OFFCURVE",
"280 58 OFFCURVE",
"282 42 CURVE SMOOTH",
"283 31 OFFCURVE",
"332 26 OFFCURVE",
"343 26 CURVE",
"346 21 OFFCURVE",
"344 2 OFFCURVE",
"338 -3 CURVE",
"300 -1 OFFCURVE",
"266 2 OFFCURVE",
"230 2 CURVE SMOOTH",
"194 2 OFFCURVE",
"158 -1 OFFCURVE",
"119 -3 CURVE",
"115 2 OFFCURVE",
"120 21 OFFCURVE",
"125 26 CURVE",
"136 26 OFFCURVE",
"187 31 OFFCURVE",
"192 42 CURVE SMOOTH",
"200 58 OFFCURVE",
"205 86 OFFCURVE"
);
}
);
width = 556;
}
);
unicode = 0059;
userData = {
com.fontlab.hintData = {
hhints = (
{
position = -3;
width = 29;
},
{
position = 633;
width = 29;
}
);
};
};
},
{
glyphname = Z;
lastChange = "2017-07-12 19:24:35 +0000";
layers = (
{
layerId = "42F082D8-1FA6-4D23-B964-75333DCE4509";
paths = (
{
closed = 1;
nodes = (
"279 629 LINE SMOOTH",
"216 629 OFFCURVE",
"161 574 OFFCURVE",
"125 492 CURVE SMOOTH",
"123 489 OFFCURVE",
"119 488 OFFCURVE",
"114 488 CURVE SMOOTH",
"106 488 OFFCURVE",
"93 493 OFFCURVE",
"91 496 CURVE",
"116 542 OFFCURVE",
"136 601 OFFCURVE",
"155 669 CURVE",
"174 666 OFFCURVE",
"205 661 OFFCURVE",
"230 661 CURVE SMOOTH",
"411 661 LINE SMOOTH",
"489 661 OFFCURVE",
"529 665 OFFCURVE",
"608 671 CURVE",
"612 670 OFFCURVE",
"622 657 OFFCURVE",
"620 649 CURVE SMOOTH",
"617 641 OFFCURVE",
"312 270 OFFCURVE",
"103 32 CURVE",
"347 32 LINE SMOOTH",
"394 32 OFFCURVE",
"432 58 OFFCURVE",
"457 85 CURVE SMOOTH",
"483 113 OFFCURVE",
"499 147 OFFCURVE",
"513 172 CURVE SMOOTH",
"514 174 OFFCURVE",
"521 175 OFFCURVE",
"526 175 CURVE SMOOTH",
"535 175 OFFCURVE",
"544 170 OFFCURVE",
"547 166 CURVE",
"509 87 OFFCURVE",
"493 50 OFFCURVE",
"474 0 CURVE",
"4 0 LINE SMOOTH",
"-6 0 OFFCURVE",
"-15 8 OFFCURVE",
"-10 14 CURVE SMOOTH",
"508 630 LINE"
);
}
);
width = 602;
}
);
unicode = 005A;
userData = {
com.fontlab.hintData = {
hhints = (
{
position = 0;
width = 32;
},
{
position = 629;
width = 32;
},
{
position = 649;
width = 20;
}
);
};
};
},
{
glyphname = a;
lastChange = "2017-07-12 19:24:35 +0000";
layers = (
{
layerId = "42F082D8-1FA6-4D23-B964-75333DCE4509";
paths = (
{
closed = 1;
nodes = (
"305 435 CURVE SMOOTH",
"340 435 OFFCURVE",
"364 429 OFFCURVE",
"383 422 CURVE",
"322 106 LINE SMOOTH",
"319 94 OFFCURVE",
"311 49 OFFCURVE",
"328 49 CURVE SMOOTH",
"349 49 OFFCURVE",
"395 104 OFFCURVE",
"398 107 CURVE",
"401 107 OFFCURVE",
"408 94 OFFCURVE",
"408 88 CURVE",
"397 69 OFFCURVE",
"324 -6 OFFCURVE",
"277 -6 CURVE SMOOTH",
"256 -6 OFFCURVE",
"243 16 OFFCURVE",
"243 46 CURVE SMOOTH",
"243 54 OFFCURVE",
"246 78 OFFCURVE",
"250 99 CURVE SMOOTH",
"253 117 OFFCURVE",
"254 123 OFFCURVE",
"255 130 CURVE",
"235 94 OFFCURVE",
"166 -5 OFFCURVE",
"108 -5 CURVE SMOOTH",
"54 -5 OFFCURVE",
"19 43 OFFCURVE",
"19 113 CURVE SMOOTH",
"19 287 OFFCURVE",
"183 435 OFFCURVE"
);
},
{
closed = 1;
nodes = (
"259 395 CURVE SMOOTH",
"182 395 OFFCURVE",
"93 266 OFFCURVE",
"93 151 CURVE SMOOTH",
"93 89 OFFCURVE",
"109 53 OFFCURVE",
"144 53 CURVE SMOOTH",
"194 53 OFFCURVE",
"265 178 OFFCURVE",
"284 274 CURVE SMOOTH",
"305 380 LINE",
"296 390 OFFCURVE",
"272 395 OFFCURVE"
);
}
);
width = 449;
}
);
unicode = 0061;
userData = {
com.fontlab.hintData = {
hhints = (
{
position = -6;
width = 55;
},
{
position = 395;
width = 40;
}
);
vhints = (
{
position = 19;
width = 74;
}
);
};
};
},
{
glyphname = aogonek;
lastChange = "2017-07-12 19:24:35 +0000";
layers = (
{
layerId = "42F082D8-1FA6-4D23-B964-75333DCE4509";
paths = (
{
closed = 1;
nodes = (
"259 395 CURVE SMOOTH",
"182 395 OFFCURVE",
"93 266 OFFCURVE",
"93 151 CURVE SMOOTH",
"93 89 OFFCURVE",
"109 53 OFFCURVE",
"144 53 CURVE SMOOTH",
"194 53 OFFCURVE",
"265 178 OFFCURVE",
"284 274 CURVE SMOOTH",
"305 380 LINE",
"296 390 OFFCURVE",
"272 395 OFFCURVE"
);
},
{
closed = 1;
nodes = (
"408 88 CURVE",
"402 77 OFFCURVE",
"372 47 OFFCURVE",
"345 25 CURVE SMOOTH",
"308 -5 OFFCURVE",
"212 -88 OFFCURVE",
"212 -139 CURVE SMOOTH",
"212 -154 OFFCURVE",
"218 -171 OFFCURVE",
"243 -171 CURVE SMOOTH",
"290 -171 OFFCURVE",
"320 -133 OFFCURVE",
"326 -133 CURVE SMOOTH",
"334 -133 OFFCURVE",
"323 -160 OFFCURVE",
"320 -163 CURVE SMOOTH",
"294 -192 OFFCURVE",
"251 -230 OFFCURVE",
"209 -230 CURVE SMOOTH",
"179 -230 OFFCURVE",
"158 -207 OFFCURVE",
"158 -180 CURVE SMOOTH",
"158 -129 OFFCURVE",
"219 -51 OFFCURVE",
"266 -4 CURVE",
"251 2 OFFCURVE",
"243 22 OFFCURVE",
"243 46 CURVE SMOOTH",
"243 54 OFFCURVE",
"246 78 OFFCURVE",
"250 99 CURVE SMOOTH",
"253 117 OFFCURVE",
"254 123 OFFCURVE",
"255 130 CURVE",
"235 94 OFFCURVE",
"166 -5 OFFCURVE",
"108 -5 CURVE SMOOTH",
"54 -5 OFFCURVE",
"19 43 OFFCURVE",
"19 113 CURVE SMOOTH",
"19 287 OFFCURVE",
"183 435 OFFCURVE",
"305 435 CURVE SMOOTH",
"340 435 OFFCURVE",
"364 429 OFFCURVE",
"383 422 CURVE",
"322 106 LINE SMOOTH",
"321 102 OFFCURVE",
"318 79 OFFCURVE",
"318 74 CURVE SMOOTH",
"318 65 OFFCURVE",
"318 49 OFFCURVE",
"328 49 CURVE SMOOTH",
"349 49 OFFCURVE",
"395 104 OFFCURVE",
"398 107 CURVE",
"401 107 OFFCURVE",
"408 94 OFFCURVE"
);
}
);
width = 449;
}
);
unicode = 0105;
userData = {
com.fontlab.hintData = {
hhints = (
{
position = -230;
width = 59;
},
{
position = -5;
width = 58;
},
{
position = 395;
width = 40;
}
);
vhints = (
{
position = 19;
width = 74;
},
{
position = 158;
width = 54;
},
{
position = 243;
width = 75;
}
);
};
};
},
{
glyphname = ae;
lastChange = "2017-07-12 19:24:35 +0000";
layers = (
{
layerId = "42F082D8-1FA6-4D23-B964-75333DCE4509";
paths = (
{
closed = 1;
nodes = (
"421 394 CURVE SMOOTH",
"358 394 OFFCURVE",
"315 302 OFFCURVE",
"306 230 CURVE",
"345 230 OFFCURVE",
"462 280 OFFCURVE",
"462 354 CURVE SMOOTH",
"462 379 OFFCURVE",
"441 394 OFFCURVE"
);
},
{
closed = 1;
nodes = (
"217 108 CURVE SMOOTH",
"232 201 LINE",
"188 192 OFFCURVE",
"156 182 OFFCURVE",
"134 170 CURVE SMOOTH",
"91 148 OFFCURVE",
"82 123 OFFCURVE",
"82 101 CURVE SMOOTH",
"82 69 OFFCURVE",
"101 46 OFFCURVE",
"127 46 CURVE SMOOTH",
"159 46 OFFCURVE",
"216 99 OFFCURVE"
);
},
{
closed = 1;
nodes = (
"251 435 CURVE SMOOTH",
"292 435 OFFCURVE",
"319 401 OFFCURVE",
"323 366 CURVE",
"356 404 OFFCURVE",
"415 435 OFFCURVE",
"468 435 CURVE SMOOTH",
"536 435 OFFCURVE",
"536 384 OFFCURVE",
"536 370 CURVE SMOOTH",
"536 282 OFFCURVE",
"375 209 OFFCURVE",
"301 199 CURVE",
"300 193 OFFCURVE",
"297 171 OFFCURVE",
"297 158 CURVE SMOOTH",
"297 95 OFFCURVE",
"319 53 OFFCURVE",
"367 53 CURVE SMOOTH",
"409 53 OFFCURVE",
"465 118 OFFCURVE",
"469 122 CURVE",
"472 122 OFFCURVE",
"480 110 OFFCURVE",
"481 102 CURVE",
"445 51 OFFCURVE",
"379 -6 OFFCURVE",
"328 -6 CURVE SMOOTH",
"287 -6 OFFCURVE",
"238 22 OFFCURVE",
"224 70 CURVE",
"207 48 OFFCURVE",
"117 -8 OFFCURVE",
"90 -8 CURVE SMOOTH",
"48 -8 OFFCURVE",
"6 18 OFFCURVE",
"6 80 CURVE SMOOTH",
"6 126 OFFCURVE",
"41 164 OFFCURVE",
"65 180 CURVE SMOOTH",
"80 190 OFFCURVE",
"195 222 OFFCURVE",
"232 234 CURVE SMOOTH",
"239 236 OFFCURVE",
"238 244 OFFCURVE",
"241 257 CURVE SMOOTH",
"252 317 LINE SMOOTH",
"254 325 OFFCURVE",
"254 334 OFFCURVE",
"254 338 CURVE SMOOTH",
"254 362 OFFCURVE",
"234 397 OFFCURVE",
"198 397 CURVE SMOOTH",
"168 397 OFFCURVE",
"154 376 OFFCURVE",
"141 339 CURVE SMOOTH",
"129 307 OFFCURVE",
"112 294 OFFCURVE",
"90 294 CURVE SMOOTH",
"69 294 OFFCURVE",
"67 314 OFFCURVE",
"67 323 CURVE SMOOTH",
"67 336 OFFCURVE",
"73 348 OFFCURVE",
"78 356 CURVE",
"107 381 OFFCURVE",
"186 435 OFFCURVE"
);
}
);
width = 559;
}
);
unicode = 00E6;
userData = {
com.fontlab.hintData = {
hhints = (
{
position = -8;
width = 54;
},
{
position = 199;
width = 31;
},
{
position = 394;
width = 41;
}
);
vhints = (
{
position = 6;
width = 76;
},
{
position = 67;
width = 74;
},
{
position = 232;
width = 65;
},
{
position = 462;
width = 74;
}
);
};
};
},
{
glyphname = b;
lastChange = "2017-07-12 19:24:35 +0000";
layers = (
{
layerId = "42F082D8-1FA6-4D23-B964-75333DCE4509";
paths = (
{
closed = 1;
nodes = (
"275 380 CURVE SMOOTH",
"232 380 OFFCURVE",
"139 266 OFFCURVE",
"118 156 CURVE SMOOTH",
"102 75 OFFCURVE",
"117 27 OFFCURVE",
"164 27 CURVE SMOOTH",
"248 27 OFFCURVE",
"314 221 OFFCURVE",
"314 302 CURVE SMOOTH",
"314 339 OFFCURVE",
"310 380 OFFCURVE"
);
},
{
closed = 1;
nodes = (
"143 285 LINE",
"213 402 OFFCURVE",
"286 435 OFFCURVE",
"318 435 CURVE SMOOTH",
"364 435 OFFCURVE",
"388 391 OFFCURVE",
"388 322 CURVE SMOOTH",
"388 142 OFFCURVE",
"243 -6 OFFCURVE",
"136 -6 CURVE SMOOTH",
"80 -6 OFFCURVE",
"43 37 OFFCURVE",
"43 111 CURVE SMOOTH",
"43 121 OFFCURVE",
"47 146 OFFCURVE",
"49 158 CURVE SMOOTH",
"128 559 LINE SMOOTH",
"132 577 OFFCURVE",
"137 601 OFFCURVE",
"137 612 CURVE SMOOTH",
"137 631 OFFCURVE",
"92 631 OFFCURVE",
"76 631 CURVE",
"73 635 OFFCURVE",
"76 648 OFFCURVE",
"80 652 CURVE",
"135 657 OFFCURVE",
"190 677 OFFCURVE",
"212 685 CURVE",
"217 682 OFFCURVE",
"218 672 OFFCURVE",
"218 666 CURVE SMOOTH",
"218 658 OFFCURVE",
"210 616 OFFCURVE",
"205 591 CURVE SMOOTH"
);
}
);
width = 429;
}
);
unicode = 0062;
userData = {
com.fontlab.hintData = {
hhints = (
{
position = -6;
width = 33;
},
{
position = 380;
width = 55;
},
{
position = 631;
width = 21;
},
{
position = 665;
width = 20;
}
);
vhints = (
{
position = 137;
width = 81;
},
{
position = 314;
width = 74;
}
);
};
};
},
{
glyphname = c;
lastChange = "2017-07-12 19:24:35 +0000";
layers = (
{
layerId = "42F082D8-1FA6-4D23-B964-75333DCE4509";
paths = (
{
closed = 1;
nodes = (
"275 435 CURVE SMOOTH",
"307 435 OFFCURVE",
"324 421 OFFCURVE",
"337 410 CURVE",
"340 406 OFFCURVE",
"346 394 OFFCURVE",
"346 383 CURVE SMOOTH",
"346 360 OFFCURVE",
"335 338 OFFCURVE",
"312 338 CURVE SMOOTH",
"298 338 OFFCURVE",
"283 346 OFFCURVE",
"276 358 CURVE SMOOTH",
"266 374 OFFCURVE",
"253 394 OFFCURVE",
"224 394 CURVE SMOOTH",
"169 394 OFFCURVE",
"102 296 OFFCURVE",
"102 162 CURVE SMOOTH",
"102 127 OFFCURVE",
"108 53 OFFCURVE",
"171 53 CURVE SMOOTH",
"216 53 OFFCURVE",
"271 119 OFFCURVE",
"274 122 CURVE",
"277 122 OFFCURVE",
"286 108 OFFCURVE",
"286 102 CURVE",
"275 83 OFFCURVE",
"198 -6 OFFCURVE",
"135 -6 CURVE SMOOTH",
"64 -6 OFFCURVE",
"24 47 OFFCURVE",
"24 140 CURVE SMOOTH",
"24 300 OFFCURVE",
"172 435 OFFCURVE"
);
}
);
width = 359;
}
);
unicode = 0063;
userData = {
com.fontlab.hintData = {
hhints = (
{
position = -6;
width = 59;
},
{
position = 394;
width = 41;
}
);
vhints = (
{
position = 24;
width = 78;
}
);
};
};
},
{
glyphname = d;
lastChange = "2017-07-12 19:24:35 +0000";
layers = (
{
layerId = "42F082D8-1FA6-4D23-B964-75333DCE4509";
paths = (
{
closed = 1;
nodes = (
"296 341 LINE SMOOTH",
"300 364 OFFCURVE",
"288 395 OFFCURVE",
"261 395 CURVE SMOOTH",
"180 395 OFFCURVE",
"93 265 OFFCURVE",
"93 150 CURVE SMOOTH",
"93 95 OFFCURVE",
"107 53 OFFCURVE",
"144 53 CURVE SMOOTH",
"195 53 OFFCURVE",
"265 179 OFFCURVE",
"284 276 CURVE"
);
},
{
closed = 1;
nodes = (
"339 559 LINE SMOOTH",
"342 577 OFFCURVE",
"348 601 OFFCURVE",
"348 612 CURVE SMOOTH",
"348 631 OFFCURVE",
"303 631 OFFCURVE",
"287 631 CURVE",
"284 635 OFFCURVE",
"287 648 OFFCURVE",
"291 652 CURVE",
"346 657 OFFCURVE",
"401 677 OFFCURVE",
"423 685 CURVE",
"428 682 OFFCURVE",
"429 672 OFFCURVE",
"429 666 CURVE SMOOTH",
"429 658 OFFCURVE",
"421 616 OFFCURVE",
"416 591 CURVE SMOOTH",
"322 106 LINE SMOOTH",
"321 102 OFFCURVE",
"318 78 OFFCURVE",
"318 73 CURVE SMOOTH",
"318 64 OFFCURVE",
"318 49 OFFCURVE",
"328 49 CURVE SMOOTH",
"349 49 OFFCURVE",
"395 104 OFFCURVE",
"398 107 CURVE",
"401 107 OFFCURVE",
"408 94 OFFCURVE",
"408 88 CURVE",
"397 69 OFFCURVE",
"324 -6 OFFCURVE",
"277 -6 CURVE SMOOTH",
"256 -6 OFFCURVE",
"243 16 OFFCURVE",
"243 46 CURVE SMOOTH",
"243 54 OFFCURVE",
"246 78 OFFCURVE",
"250 99 CURVE SMOOTH",
"254 118 OFFCURVE",
"254 123 OFFCURVE",
"255 130 CURVE",
"240 100 OFFCURVE",
"167 -5 OFFCURVE",
"107 -5 CURVE SMOOTH",
"45 -5 OFFCURVE",
"19 58 OFFCURVE",
"19 116 CURVE SMOOTH",
"19 273 OFFCURVE",
"173 435 OFFCURVE",
"303 435 CURVE SMOOTH",
"316 435 LINE"
);
}
);
width = 449;
}
);
unicode = 0064;
userData = {
com.fontlab.hintData = {
hhints = (
{
position = -5;
width = 58;
},
{
position = 395;
width = 40;
},
{
position = 631;
width = 21;
},
{
position = 665;
width = 20;
}
);
vhints = (
{
position = 19;
width = 74;
},
{
position = 243;
width = 75;
},
{
position = 348;
width = 81;
}
);
};
};
},
{
glyphname = eth;
lastChange = "2017-07-12 19:24:35 +0000";
layers = (
{
layerId = "42F082D8-1FA6-4D23-B964-75333DCE4509";
paths = (
{
closed = 1;
nodes = (
"251 403 CURVE SMOOTH",
"186 403 OFFCURVE",
"117 292 OFFCURVE",
"117 158 CURVE SMOOTH",
"117 112 OFFCURVE",
"125 27 OFFCURVE",
"175 27 CURVE SMOOTH",
"239 27 OFFCURVE",
"305 135 OFFCURVE",
"305 273 CURVE SMOOTH",
"305 300 OFFCURVE",
"304 340 OFFCURVE",
"302 353 CURVE SMOOTH",
"298 380 OFFCURVE",
"274 403 OFFCURVE"
);
},
{
closed = 1;
nodes = (
"259 435 CURVE SMOOTH",
"280 435 OFFCURVE",
"301 433 OFFCURVE",
"313 426 CURVE",
"314.083 469.3 OFFCURVE",
"297.002 529.006 OFFCURVE",
"262.075 579.43 CURVE",
"156 509 LINE",
"150 514 OFFCURVE",
"142 533 OFFCURVE",
"147 541 CURVE SMOOTH",
"242.602 604.346 LINE",
"214.847 635.809 OFFCURVE",
"178.947 661.013 OFFCURVE",
"135 672 CURVE",
"136 679 OFFCURVE",
"141 688 OFFCURVE",
"148 688 CURVE SMOOTH",
"199.583 679.349 OFFCURVE",
"242.749 657.867 OFFCURVE",
"277.596 627.533 CURVE",
"393 704 LINE",
"399 698 OFFCURVE",
"406 678 OFFCURVE",
"403 673 CURVE SMOOTH",
"300.56 604.983 LINE",
"359.075 540.325 OFFCURVE",
"388 447.395 OFFCURVE",
"388 353 CURVE SMOOTH",
"388 134 OFFCURVE",
"266 -5 OFFCURVE",
"153 -5 CURVE SMOOTH",
"64 -5 OFFCURVE",
"39 72 OFFCURVE",
"39 140 CURVE SMOOTH",
"39 250 OFFCURVE",
"132 435 OFFCURVE"
);
}
);
width = 437;
}
);
unicode = 00F0;
userData = {
com.fontlab.hintData = {
hhints = (
{
position = -5;
width = 32;
},
{
position = 403;
width = 32;
},
{
position = 672;
width = 16;
}
);
vhints = (
{
position = 39;
width = 78;
},
{
position = 313;
width = 75;
}
);
};
};
},
{
glyphname = dcroat;
lastChange = "2017-07-12 19:24:35 +0000";
layers = (
{
components = (
{
name = d;
}
);
layerId = "42F082D8-1FA6-4D23-B964-75333DCE4509";
paths = (
{
closed = 1;
nodes = (
"256 565 CURVE",
"281 565 OFFCURVE",
"473 565 OFFCURVE",
"485 565 CURVE SMOOTH",
"488 565 OFFCURVE",
"489 561 OFFCURVE",
"488 557 CURVE SMOOTH",
"487 552 OFFCURVE",
"482 539 OFFCURVE",
"477 531 CURVE",
"452 531 OFFCURVE",
"259 531 OFFCURVE",
"247 531 CURVE SMOOTH",
"244 531 OFFCURVE",
"244 538 OFFCURVE",
"245 542 CURVE SMOOTH",
"246 547 OFFCURVE",
"249 557 OFFCURVE"
);
}
);
width = 446;
}
);
unicode = 0111;
userData = {
com.fontlab.hintData = {
hhints = (
{
position = -5;
width = 58;
},
{
position = 395;
width = 40;
},
{
position = 531;
width = 34;
},
{
position = 631;
width = 21;
},
{
position = 665;
width = 20;
}
);
vhints = (
{
position = 19;
width = 74;
},
{
position = 243;
width = 75;
},
{
position = 348;
width = 81;
}
);
};
};
},
{
glyphname = e;
lastChange = "2017-07-12 19:24:35 +0000";
layers = (
{
layerId = "42F082D8-1FA6-4D23-B964-75333DCE4509";
paths = (
{
closed = 1;
nodes = (
"274 435 CURVE SMOOTH",
"325 435 OFFCURVE",
"340 403 OFFCURVE",
"340 373 CURVE SMOOTH",
"340 277 OFFCURVE",
"165 193 OFFCURVE",
"103 193 CURVE",
"102 190 OFFCURVE",
"101 166 OFFCURVE",
"101 161 CURVE SMOOTH",
"101 100 OFFCURVE",
"120 53 OFFCURVE",
"170 53 CURVE SMOOTH",
"215 53 OFFCURVE",
"270 119 OFFCURVE",
"273 122 CURVE",
"276 122 OFFCURVE",
"285 108 OFFCURVE",
"285 102 CURVE",
"272 80 OFFCURVE",
"196 -6 OFFCURVE",
"133 -6 CURVE SMOOTH",
"62 -6 OFFCURVE",
"23 46 OFFCURVE",
"23 139 CURVE SMOOTH",
"23 287 OFFCURVE",
"159 435 OFFCURVE"
);
},
{
closed = 1;
nodes = (
"105 218 CURVE",
"144 218 OFFCURVE",
"266 280 OFFCURVE",
"266 354 CURVE SMOOTH",
"266 381 OFFCURVE",
"243 394 OFFCURVE",
"224 394 CURVE SMOOTH",
"155 394 OFFCURVE",
"110 269 OFFCURVE"
);
}
);
width = 363;
}
);
unicode = 0065;
userData = {
com.fontlab.hintData = {
hhints = (
{
position = -6;
width = 59;
},
{
position = 193;
width = 25;
},
{
position = 394;
width = 41;
}
);
vhints = (
{
position = 23;
width = 78;
},
{
position = 266;
width = 74;
}
);
};
};
},
{
glyphname = eogonek;
lastChange = "2017-07-12 19:24:35 +0000";
layers = (
{
layerId = "42F082D8-1FA6-4D23-B964-75333DCE4509";
paths = (
{
closed = 1;
nodes = (
"105 218 CURVE",
"144 218 OFFCURVE",
"266 280 OFFCURVE",
"266 354 CURVE SMOOTH",
"266 381 OFFCURVE",
"243 394 OFFCURVE",
"224 394 CURVE SMOOTH",
"155 394 OFFCURVE",
"110 269 OFFCURVE"
);
},
{
closed = 1;
nodes = (
"20 -180 CURVE SMOOTH",
"19 -131 OFFCURVE",
"114 -30 OFFCURVE",
"141 -6 CURVE",
"138 -6 OFFCURVE",
"136 -6 OFFCURVE",
"133 -6 CURVE SMOOTH",
"62 -6 OFFCURVE",
"23 46 OFFCURVE",
"23 139 CURVE SMOOTH",
"23 287 OFFCURVE",
"159 435 OFFCURVE",
"274 435 CURVE SMOOTH",
"325 435 OFFCURVE",
"340 403 OFFCURVE",
"340 373 CURVE SMOOTH",
"340 277 OFFCURVE",
"165 193 OFFCURVE",
"103 193 CURVE",
"102 190 OFFCURVE",
"101 166 OFFCURVE",
"101 161 CURVE SMOOTH",
"101 100 OFFCURVE",
"120 53 OFFCURVE",
"170 53 CURVE SMOOTH",
"215 53 OFFCURVE",
"270 119 OFFCURVE",
"273 122 CURVE",
"276 122 OFFCURVE",
"285 108 OFFCURVE",
"285 102 CURVE",
"280 93 OFFCURVE",
"266 76 OFFCURVE",
"244 54 CURVE SMOOTH",
"189 0 OFFCURVE",
"73 -99 OFFCURVE",
"73 -139 CURVE SMOOTH",
"73 -154 OFFCURVE",
"79 -171 OFFCURVE",
"104 -171 CURVE SMOOTH",
"151 -171 OFFCURVE",
"181 -133 OFFCURVE",
"187 -133 CURVE SMOOTH",
"195 -133 OFFCURVE",
"184 -160 OFFCURVE",
"181 -163 CURVE SMOOTH",
"155 -192 OFFCURVE",
"112 -230 OFFCURVE",
"70 -230 CURVE SMOOTH",
"40 -230 OFFCURVE",
"20 -207 OFFCURVE"
);
}
);
width = 363;
}
);
unicode = 0119;
userData = {
com.fontlab.hintData = {
hhints = (
{
position = -230;
width = 59;
},
{
position = -6;
width = 59;
},
{
position = 193;
width = 25;
},
{
position = 394;
width = 41;
}
);
vhints = (
{
position = 20;
width = 53;
},
{
position = 23;
width = 78;
},
{
position = 266;
width = 74;
}
);
};
};
},
{
glyphname = f;
lastChange = "2017-07-12 19:24:35 +0000";
layers = (
{
layerId = "42F082D8-1FA6-4D23-B964-75333DCE4509";
paths = (
{
closed = 1;
nodes = (
"336 685 LINE SMOOTH",
"365 685 OFFCURVE",
"383 673 OFFCURVE",
"390 660 CURVE",
"390 657 OFFCURVE",
"390 654 OFFCURVE",
"390 651 CURVE SMOOTH",
"388 628 OFFCURVE",
"379 604 OFFCURVE",
"360 604 CURVE SMOOTH",
"343 604 OFFCURVE",
"333 615 OFFCURVE",
"322 627 CURVE SMOOTH",
"315 634 OFFCURVE",
"307 642 OFFCURVE",
"293 642 CURVE SMOOTH",
"254 642 OFFCURVE",
"234 572 OFFCURVE",
"203 413 CURVE",
"303 413 LINE SMOOTH",
"307 413 OFFCURVE",
"308 406 OFFCURVE",
"308 401 CURVE SMOOTH",
"308 391 OFFCURVE",
"304 384 OFFCURVE",
"299 376 CURVE",
"196 376 LINE"
);
}
);
width = 296;
}
);
unicode = 0066;
userData = {
com.fontlab.hintData = {
hhints = (
{
position = -233;
width = 43;
},
{
position = 376;
width = 37;
},
{
position = 642;
width = 43;
}
);
};
};
},
{
glyphname = g;
lastChange = "2017-07-12 19:24:35 +0000";
layers = (
{
layerId = "42F082D8-1FA6-4D23-B964-75333DCE4509";
paths = (
{
closed = 1;
nodes = (
"278 -118 CURVE SMOOTH",
"278 -55 OFFCURVE",
"185 -24 OFFCURVE",
"127 -6 CURVE",
"87 -23 OFFCURVE",
"26 -54 OFFCURVE",
"26 -110 CURVE SMOOTH",
"26 -177 OFFCURVE",
"91 -198 OFFCURVE",
"169 -198 CURVE SMOOTH",
"236 -198 OFFCURVE",
"278 -160 OFFCURVE"
);
},
{
closed = 1;
nodes = (
"212 407 CURVE SMOOTH",
"148 407 OFFCURVE",
"114 316 OFFCURVE",
"114 247 CURVE SMOOTH",
"114 198 OFFCURVE",
"134 151 OFFCURVE",
"176 151 CURVE SMOOTH",
"241 151 OFFCURVE",
"273 232 OFFCURVE",
"273 294 CURVE SMOOTH",
"273 343 OFFCURVE",
"251 407 OFFCURVE"
);
},
{
closed = 1;
nodes = (
"333 381 CURVE",
"334 375 OFFCURVE",
"347 339 OFFCURVE",
"347 312 CURVE SMOOTH",
"347 206 OFFCURVE",
"276 157 OFFCURVE",
"256 145 CURVE SMOOTH",
"221 124 OFFCURVE",
"141 105 OFFCURVE",
"141 82 CURVE SMOOTH",
"141 49 OFFCURVE",
"342 39 OFFCURVE",
"342 -78 CURVE SMOOTH",
"342 -173 OFFCURVE",
"251 -233 OFFCURVE",
"108 -233 CURVE SMOOTH",
"18 -233 OFFCURVE",
"-48 -197 OFFCURVE",
"-48 -135 CURVE SMOOTH",
"-48 -66 OFFCURVE",
"37 -21 OFFCURVE",
"96 6 CURVE",
"78 18 LINE SMOOTH",
"66 26 OFFCURVE",
"53 36 OFFCURVE",
"53 54 CURVE SMOOTH",
"53 79 OFFCURVE",
"120 114 OFFCURVE",
"153 122 CURVE",
"121 122 OFFCURVE",
"40 160 OFFCURVE",
"40 239 CURVE SMOOTH",
"40 352 OFFCURVE",
"136 436 OFFCURVE",
"229 436 CURVE SMOOTH",
"267 436 OFFCURVE",
"289 426 OFFCURVE",
"314 414 CURVE SMOOTH",
"328 407 OFFCURVE",
"364 427 OFFCURVE",
"377 429 CURVE",
"390 425 OFFCURVE",
"418 407 OFFCURVE",
"418 394 CURVE SMOOTH",
"418 387 OFFCURVE",
"414 380 OFFCURVE",
"406 380 CURVE SMOOTH",
"392 380 OFFCURVE",
"346 382 OFFCURVE"
);
}
);
width = 412;
}
);
unicode = 0067;
userData = {
com.fontlab.hintData = {
hhints = (
{
position = -233;
width = 35;
},
{
position = 122;
width = 29;
},
{
position = 407;
width = 29;
}
);
vhints = (
{
position = -48;
width = 74;
},
{
position = 40;
width = 74;
},
{
position = 53;
width = 88;
},
{
position = 278;
width = 64;
}
);
};
};
},
{
glyphname = h;
lastChange = "2017-07-12 19:24:35 +0000";
layers = (
{
layerId = "42F082D8-1FA6-4D23-B964-75333DCE4509";
paths = (
{
closed = 1;
nodes = (
"207 591 CURVE SMOOTH",
"156 330 LINE",
"138 238 LINE",
"151 263 OFFCURVE",
"271 435 OFFCURVE",
"337 435 CURVE SMOOTH",
"376 435 OFFCURVE",
"392 407 OFFCURVE",
"392 369 CURVE SMOOTH",
"392 335 OFFCURVE",
"386 298 OFFCURVE",
"378 260 CURVE SMOOTH",
"345 106 LINE SMOOTH",
"344 102 OFFCURVE",
"341 79 OFFCURVE",
"341 74 CURVE SMOOTH",
"341 65 OFFCURVE",
"341 49 OFFCURVE",
"351 49 CURVE SMOOTH",
"372 49 OFFCURVE",
"418 104 OFFCURVE",
"421 107 CURVE",
"424 107 OFFCURVE",
"431 94 OFFCURVE",
"431 88 CURVE",
"420 69 OFFCURVE",
"347 -6 OFFCURVE",
"300 -6 CURVE SMOOTH",
"278 -6 OFFCURVE",
"266 16 OFFCURVE",
"266 46 CURVE SMOOTH",
"266 54 OFFCURVE",
"268 78 OFFCURVE",
"273 99 CURVE SMOOTH",
"308 264 LINE SMOOTH",
"310 273 OFFCURVE",
"315 307 OFFCURVE",
"315 318 CURVE SMOOTH",
"315 341 OFFCURVE",
"313 361 OFFCURVE",
"296 361 CURVE SMOOTH",
"260 361 OFFCURVE",
"140 236 OFFCURVE",
"117 119 CURVE SMOOTH",
"111 88 OFFCURVE",
"102 46 OFFCURVE",
"92 0 CURVE",
"82 -3 OFFCURVE",
"66 -4 OFFCURVE",
"56 -4 CURVE SMOOTH",
"46 -4 OFFCURVE",
"34 -3 OFFCURVE",
"22 0 CURVE",
"130 559 LINE SMOOTH",
"133 577 OFFCURVE",
"139 601 OFFCURVE",
"139 612 CURVE SMOOTH",
"139 631 OFFCURVE",
"94 631 OFFCURVE",
"78 631 CURVE",
"75 635 OFFCURVE",
"78 648 OFFCURVE",
"82 652 CURVE",
"137 657 OFFCURVE",
"192 677 OFFCURVE",
"214 685 CURVE",
"219 682 OFFCURVE",
"220 672 OFFCURVE",
"220 666 CURVE SMOOTH",
"220 658 OFFCURVE",
"212 616 OFFCURVE"
);
}
);
width = 470;
}
);
unicode = 0068;
userData = {
com.fontlab.hintData = {
hhints = (
{
position = -6;
width = 55;
},
{
position = 361;
width = 74;
},
{
position = 631;
width = 21;
},
{
position = 665;
width = 20;
}
);
vhints = (
{
position = 139;
width = 81;
},
{
position = 266;
width = 75;
},
{
position = 315;
width = 77;
}
);
};
};
},
{
glyphname = hbar;
lastChange = "2017-07-12 19:24:35 +0000";
layers = (
{
components = (
{
name = h;
}
);
layerId = "42F082D8-1FA6-4D23-B964-75333DCE4509";
paths = (
{
closed = 1;
nodes = (
"89 565 CURVE",
"114 565 OFFCURVE",
"306 565 OFFCURVE",
"318 565 CURVE SMOOTH",
"321 565 OFFCURVE",
"322 561 OFFCURVE",
"321 557 CURVE SMOOTH",
"320 552 OFFCURVE",
"315 539 OFFCURVE",
"310 531 CURVE",
"285 531 OFFCURVE",
"92 531 OFFCURVE",
"80 531 CURVE SMOOTH",
"77 531 OFFCURVE",
"77 538 OFFCURVE",
"78 542 CURVE SMOOTH",
"79 547 OFFCURVE",
"82 557 OFFCURVE"
);
}
);
width = 470;
}
);
unicode = 0127;
userData = {
com.fontlab.hintData = {
hhints = (
{
position = -6;
width = 55;
},
{
position = 361;
width = 74;
},
{
position = 531;
width = 34;
},
{
position = 631;
width = 21;
},
{
position = 665;
width = 20;
}
);
vhints = (
{
position = 139;
width = 81;
},
{
position = 266;
width = 75;
},
{
position = 315;
width = 77;
}
);
};
};
},
{
glyphname = i;
lastChange = "2017-07-12 19:24:35 +0000";
layers = (
{
layerId = "42F082D8-1FA6-4D23-B964-75333DCE4509";
paths = (
{
closed = 1;
nodes = (
"111 323 LINE SMOOTH",
"112 329 OFFCURVE",
"115 350 OFFCURVE",
"115 355 CURVE SMOOTH",
"115 364 OFFCURVE",
"115 380 OFFCURVE",
"105 380 CURVE SMOOTH",
"84 380 OFFCURVE",
"38 325 OFFCURVE",
"35 322 CURVE",
"32 322 OFFCURVE",
"25 335 OFFCURVE",
"25 341 CURVE",
"36 360 OFFCURVE",
"104 435 OFFCURVE",
"151 435 CURVE SMOOTH",
"172 435 OFFCURVE",
"190 413 OFFCURVE",
"190 383 CURVE SMOOTH",
"190 375 OFFCURVE",
"187 351 OFFCURVE",
"183 330 CURVE SMOOTH",
"132 106 LINE SMOOTH",
"130 96 OFFCURVE",
"128 79 OFFCURVE",
"128 74 CURVE SMOOTH",
"128 65 OFFCURVE",
"128 49 OFFCURVE",
"138 49 CURVE SMOOTH",
"159 49 OFFCURVE",
"205 104 OFFCURVE",
"208 107 CURVE",
"211 107 OFFCURVE",
"218 94 OFFCURVE",
"218 88 CURVE",
"207 69 OFFCURVE",
"134 -6 OFFCURVE",
"87 -6 CURVE SMOOTH",
"66 -6 OFFCURVE",
"53 16 OFFCURVE",
"53 46 CURVE SMOOTH",
"53 54 OFFCURVE",
"56 78 OFFCURVE",
"60 99 CURVE SMOOTH"
);
},
{
closed = 1;
nodes = (
"168 646 CURVE SMOOTH",
"189 646 OFFCURVE",
"204 627 OFFCURVE",
"204 606 CURVE SMOOTH",
"204 575 OFFCURVE",
"181 546 OFFCURVE",
"150 546 CURVE SMOOTH",
"128 546 OFFCURVE",
"116 567 OFFCURVE",
"116 589 CURVE SMOOTH",
"116 619 OFFCURVE",
"138 646 OFFCURVE"
);
}
);
width = 262;
}
);
unicode = 0069;
userData = {
com.fontlab.hintData = {
hhints = (
{
position = -6;
width = 55;
},
{
position = 380;
width = 55;
},
{
position = 546;
width = 100;
}
);
vhints = (
{
position = 53;
width = 75;
},
{
position = 115;
width = 75;
},
{
position = 116;
width = 88;
}
);
};
};
},
{
glyphname = dotlessi;
lastChange = "2017-07-12 19:24:35 +0000";
layers = (
{
layerId = "42F082D8-1FA6-4D23-B964-75333DCE4509";
paths = (
{
closed = 1;
nodes = (
"111 323 LINE SMOOTH",
"112 329 OFFCURVE",
"115 350 OFFCURVE",
"115 355 CURVE SMOOTH",
"115 364 OFFCURVE",
"115 380 OFFCURVE",
"105 380 CURVE SMOOTH",
"84 380 OFFCURVE",
"38 325 OFFCURVE",
"35 322 CURVE",
"32 322 OFFCURVE",
"25 335 OFFCURVE",
"25 341 CURVE",
"36 360 OFFCURVE",
"104 435 OFFCURVE",
"151 435 CURVE SMOOTH",
"172 435 OFFCURVE",
"190 413 OFFCURVE",
"190 383 CURVE SMOOTH",
"190 375 OFFCURVE",
"187 351 OFFCURVE",
"183 330 CURVE SMOOTH",
"132 106 LINE SMOOTH",
"130 96 OFFCURVE",
"128 79 OFFCURVE",
"128 74 CURVE SMOOTH",
"128 65 OFFCURVE",
"128 49 OFFCURVE",
"138 49 CURVE SMOOTH",
"159 49 OFFCURVE",
"205 104 OFFCURVE",
"208 107 CURVE",
"211 107 OFFCURVE",
"218 94 OFFCURVE",
"218 88 CURVE",
"207 69 OFFCURVE",
"134 -6 OFFCURVE",
"87 -6 CURVE SMOOTH",
"66 -6 OFFCURVE",
"53 16 OFFCURVE",
"53 46 CURVE SMOOTH",
"53 54 OFFCURVE",
"56 78 OFFCURVE",
"60 99 CURVE SMOOTH"
);
}
);
width = 262;
}
);
unicode = 0131;
userData = {
com.fontlab.hintData = {
hhints = (
{
position = -6;
width = 55;
},
{
position = 380;
width = 55;
}
);
vhints = (
{
position = 53;
width = 75;
},
{
position = 115;
width = 75;
}
);
};
};
},
{
glyphname = iogonek;
lastChange = "2017-07-12 19:24:35 +0000";
layers = (
{
layerId = "42F082D8-1FA6-4D23-B964-75333DCE4509";
paths = (
{
closed = 1;
nodes = (
"168 646 CURVE SMOOTH",
"189 646 OFFCURVE",
"204 627 OFFCURVE",
"204 606 CURVE SMOOTH",
"204 575 OFFCURVE",
"181 546 OFFCURVE",
"150 546 CURVE SMOOTH",
"128 546 OFFCURVE",
"116 567 OFFCURVE",
"116 589 CURVE SMOOTH",
"116 619 OFFCURVE",
"138 646 OFFCURVE"
);
},
{
closed = 1;
nodes = (
"218 88 CURVE",
"213 79 OFFCURVE",
"190 55 OFFCURVE",
"169 36 CURVE SMOOTH",
"116 -12 OFFCURVE",
"58 -88 OFFCURVE",
"58 -139 CURVE SMOOTH",
"58 -154 OFFCURVE",
"64 -171 OFFCURVE",
"89 -171 CURVE SMOOTH",
"136 -171 OFFCURVE",
"166 -133 OFFCURVE",
"172 -133 CURVE SMOOTH",
"180 -133 OFFCURVE",
"169 -160 OFFCURVE",
"166 -163 CURVE SMOOTH",
"140 -192 OFFCURVE",
"97 -230 OFFCURVE",
"55 -230 CURVE SMOOTH",
"25 -230 OFFCURVE",
"4 -207 OFFCURVE",
"4 -180 CURVE SMOOTH",
"4 -130 OFFCURVE",
"61 -43 OFFCURVE",
"93 -6 CURVE",
"91 -6 OFFCURVE",
"89 -6 OFFCURVE",
"87 -6 CURVE SMOOTH",
"66 -6 OFFCURVE",
"53 16 OFFCURVE",
"53 46 CURVE SMOOTH",
"53 54 OFFCURVE",
"56 78 OFFCURVE",
"60 99 CURVE SMOOTH",
"111 323 LINE SMOOTH",
"112 329 OFFCURVE",
"115 350 OFFCURVE",
"115 355 CURVE SMOOTH",
"115 364 OFFCURVE",
"115 380 OFFCURVE",
"105 380 CURVE SMOOTH",
"84 380 OFFCURVE",
"38 325 OFFCURVE",
"35 322 CURVE",
"32 322 OFFCURVE",
"25 335 OFFCURVE",
"25 341 CURVE",
"36 360 OFFCURVE",
"104 435 OFFCURVE",
"151 435 CURVE SMOOTH",
"172 435 OFFCURVE",
"190 413 OFFCURVE",
"190 383 CURVE SMOOTH",
"190 375 OFFCURVE",
"187 351 OFFCURVE",
"183 330 CURVE SMOOTH",
"132 106 LINE SMOOTH",
"130 96 OFFCURVE",
"128 79 OFFCURVE",
"128 74 CURVE SMOOTH",
"128 65 OFFCURVE",
"128 49 OFFCURVE",
"138 49 CURVE SMOOTH",
"159 49 OFFCURVE",
"205 104 OFFCURVE",
"208 107 CURVE",
"211 107 OFFCURVE",
"218 94 OFFCURVE"
);
}
);
width = 263;
}
);
unicode = 012F;
userData = {
com.fontlab.hintData = {
hhints = (
{
position = -230;
width = 59;
},
{
position = 380;
width = 55;
},
{
position = 546;
width = 100;
}
);
vhints = (
{
position = 4;
width = 54;
},
{
position = 115;
width = 75;
},
{
position = 116;
width = 88;
}
);
};
};
},
{
glyphname = j;
lastChange = "2017-07-12 19:24:35 +0000";
layers = (
{
layerId = "42F082D8-1FA6-4D23-B964-75333DCE4509";
paths = (
{
closed = 1;
nodes = (
"117 323 LINE SMOOTH",
"118 329 OFFCURVE",
"121 350 OFFCURVE",
"121 355 CURVE SMOOTH",
"121 364 OFFCURVE",
"121 380 OFFCURVE",
"111 380 CURVE SMOOTH",
"90 380 OFFCURVE",
"44 325 OFFCURVE",
"41 322 CURVE",
"38 322 OFFCURVE",
"31 335 OFFCURVE",
"31 341 CURVE",
"42 360 OFFCURVE",
"110 435 OFFCURVE",
"157 435 CURVE SMOOTH",
"178 435 OFFCURVE",
"196 413 OFFCURVE",
"196 383 CURVE SMOOTH",
"196 375 OFFCURVE",
"193 351 OFFCURVE",
"189 330 CURVE SMOOTH",
"134 45 LINE SMOOTH",
"127 9 OFFCURVE",
"106 -67 OFFCURVE",
"63 -124 CURVE SMOOTH",
"21 -179 OFFCURVE",
"-41 -221 OFFCURVE",
"-76 -235 CURVE",
"-80 -232 OFFCURVE",
"-85 -222 OFFCURVE",
"-85 -215 CURVE",
"-18 -177 OFFCURVE",
"35 -89 OFFCURVE",
"57 22 CURVE SMOOTH"
);
},
{
closed = 1;
nodes = (
"185 646 CURVE SMOOTH",
"206 646 OFFCURVE",
"221 627 OFFCURVE",
"221 606 CURVE SMOOTH",
"221 575 OFFCURVE",
"198 546 OFFCURVE",
"167 546 CURVE SMOOTH",
"145 546 OFFCURVE",
"133 567 OFFCURVE",
"133 589 CURVE SMOOTH",
"133 619 OFFCURVE",
"155 646 OFFCURVE"
);
}
);
width = 249;
}
);
unicode = 006A;
userData = {
com.fontlab.hintData = {
hhints = (
{
position = 380;
width = 55;
},
{
position = 546;
width = 100;
}
);
vhints = (
{
position = 121;
width = 75;
},
{
position = 133;
width = 88;
}
);
};
};
},
{
glyphname = uni0237;
lastChange = "2017-07-12 19:24:35 +0000";
layers = (
{
layerId = "42F082D8-1FA6-4D23-B964-75333DCE4509";
paths = (
{
closed = 1;
nodes = (
"117 323 LINE SMOOTH",
"118 329 OFFCURVE",
"121 350 OFFCURVE",
"121 355 CURVE SMOOTH",
"121 364 OFFCURVE",
"121 380 OFFCURVE",
"111 380 CURVE SMOOTH",
"90 380 OFFCURVE",
"44 325 OFFCURVE",
"41 322 CURVE",
"38 322 OFFCURVE",
"31 335 OFFCURVE",
"31 341 CURVE",
"42 360 OFFCURVE",
"110 435 OFFCURVE",
"157 435 CURVE SMOOTH",
"178 435 OFFCURVE",
"196 413 OFFCURVE",
"196 383 CURVE SMOOTH",
"196 375 OFFCURVE",
"193 351 OFFCURVE",
"189 330 CURVE SMOOTH",
"134 45 LINE SMOOTH",
"127 9 OFFCURVE",
"106 -67 OFFCURVE",
"63 -124 CURVE SMOOTH",
"21 -179 OFFCURVE",
"-41 -221 OFFCURVE",
"-76 -235 CURVE",
"-80 -232 OFFCURVE",
"-85 -222 OFFCURVE",
"-85 -215 CURVE",
"-18 -177 OFFCURVE",
"35 -89 OFFCURVE",
"57 22 CURVE SMOOTH"
);
}
);
width = 249;
}
);
unicode = 0237;
userData = {
com.fontlab.hintData = {
hhints = (
{
position = 380;
width = 55;
}
);
vhints = (
{
position = 121;
width = 75;
}
);
};
};
},
{
glyphname = k;
lastChange = "2017-07-12 19:24:35 +0000";
layers = (
{
layerId = "42F082D8-1FA6-4D23-B964-75333DCE4509";
paths = (
{
closed = 1;
nodes = (
"325 435 CURVE SMOOTH",
"364 435 OFFCURVE",
"400 406 OFFCURVE",
"400 367 CURVE SMOOTH",
"400 276 OFFCURVE",
"300 230 OFFCURVE",
"189 211 CURVE",
"277 79 OFFCURVE",
"305 51 OFFCURVE",
"346 51 CURVE SMOOTH",
"363 51 OFFCURVE",
"403 93 OFFCURVE",
"414 107 CURVE",
"417 107 OFFCURVE",
"424 93 OFFCURVE",
"424 88 CURVE",
"416 74 OFFCURVE",
"346 -4 OFFCURVE",
"302 -4 CURVE SMOOTH",
"223 -4 OFFCURVE",
"173 119 OFFCURVE",
"130 191 CURVE",
"93 0 LINE",
"82 -3 OFFCURVE",
"69 -5 OFFCURVE",
"58 -5 CURVE SMOOTH",
"47 -5 OFFCURVE",
"34 -3 OFFCURVE",
"22 0 CURVE",
"131 559 LINE SMOOTH",
"135 577 OFFCURVE",
"140 601 OFFCURVE",
"140 612 CURVE SMOOTH",
"140 631 OFFCURVE",
"95 631 OFFCURVE",
"79 631 CURVE",
"76 635 OFFCURVE",
"79 648 OFFCURVE",
"83 652 CURVE",
"138 657 OFFCURVE",
"193 677 OFFCURVE",
"215 685 CURVE",
"220 682 OFFCURVE",
"221 672 OFFCURVE",
"221 666 CURVE SMOOTH",
"221 658 OFFCURVE",
"213 616 OFFCURVE",
"208 591 CURVE SMOOTH",
"156 322 LINE",
"161 326 OFFCURVE",
"239 435 OFFCURVE"
);
},
{
closed = 1;
nodes = (
"289 388 CURVE SMOOTH",
"231 388 OFFCURVE",
"150 291 OFFCURVE",
"138 230 CURVE",
"205 230 OFFCURVE",
"322 271 OFFCURVE",
"322 354 CURVE SMOOTH",
"322 372 OFFCURVE",
"317 388 OFFCURVE"
);
}
);
width = 460;
}
);
unicode = 006B;
userData = {
com.fontlab.hintData = {
hhints = (
{
position = -4;
width = 55;
},
{
position = 388;
width = 47;
},
{
position = 631;
width = 21;
},
{
position = 665;
width = 20;
}
);
vhints = (
{
position = 140;
width = 81;
},
{
position = 322;
width = 78;
}
);
};
};
},
{
glyphname = kgreenlandic;
lastChange = "2017-07-12 19:24:35 +0000";
layers = (
{
layerId = "42F082D8-1FA6-4D23-B964-75333DCE4509";
paths = (
{
closed = 1;
nodes = (
"107 323 LINE SMOOTH",
"108 329 OFFCURVE",
"111 350 OFFCURVE",
"111 355 CURVE SMOOTH",
"111 364 OFFCURVE",
"111 380 OFFCURVE",
"101 380 CURVE SMOOTH",
"80 380 OFFCURVE",
"34 325 OFFCURVE",
"31 322 CURVE",
"28 322 OFFCURVE",
"21 335 OFFCURVE",
"21 341 CURVE",
"32 360 OFFCURVE",
"100 435 OFFCURVE",
"147 435 CURVE SMOOTH",
"168 435 OFFCURVE",
"186 413 OFFCURVE",
"186 383 CURVE SMOOTH",
"186 375 OFFCURVE",
"182 351 OFFCURVE",
"179 330 CURVE SMOOTH",
"178 322 LINE",
"183 326 OFFCURVE",
"261 435 OFFCURVE",
"347 435 CURVE SMOOTH",
"386 435 OFFCURVE",
"422 406 OFFCURVE",
"422 367 CURVE SMOOTH",
"422 276 OFFCURVE",
"322 230 OFFCURVE",
"211 211 CURVE",
"299 79 OFFCURVE",
"327 51 OFFCURVE",
"368 51 CURVE SMOOTH",
"385 51 OFFCURVE",
"425 93 OFFCURVE",
"436 107 CURVE",
"439 107 OFFCURVE",
"446 93 OFFCURVE",
"446 88 CURVE",
"438 74 OFFCURVE",
"368 -4 OFFCURVE",
"324 -4 CURVE SMOOTH",
"245 -4 OFFCURVE",
"195 119 OFFCURVE",
"152 191 CURVE",
"115 0 LINE",
"104 -3 OFFCURVE",
"91 -5 OFFCURVE",
"80 -5 CURVE SMOOTH",
"69 -5 OFFCURVE",
"56 -3 OFFCURVE",
"44 0 CURVE"
);
},
{
closed = 1;
nodes = (
"311 388 CURVE SMOOTH",
"253 388 OFFCURVE",
"172 291 OFFCURVE",
"160 230 CURVE",
"227 230 OFFCURVE",
"344 271 OFFCURVE",
"344 354 CURVE SMOOTH",
"344 372 OFFCURVE",
"339 388 OFFCURVE"
);
}
);
width = 482;
}
);
unicode = 0138;
userData = {
com.fontlab.hintData = {
hhints = (
{
position = -4;
width = 55;
},
{
position = 380;
width = 55;
},
{
position = 388;
width = 47;
}
);
vhints = (
{
position = 44;
width = 71;
},
{
position = 111;
width = 75;
},
{
position = 344;
width = 78;
}
);
};
};
},
{
glyphname = l;
lastChange = "2017-07-12 19:24:35 +0000";
layers = (
{
layerId = "42F082D8-1FA6-4D23-B964-75333DCE4509";
paths = (
{
closed = 1;
nodes = (
"134 559 LINE SMOOTH",
"138 577 OFFCURVE",
"143 601 OFFCURVE",
"143 612 CURVE SMOOTH",
"143 631 OFFCURVE",
"98 631 OFFCURVE",
"82 631 CURVE",
"79 635 OFFCURVE",
"82 648 OFFCURVE",
"86 652 CURVE",
"141 657 OFFCURVE",
"196 677 OFFCURVE",
"218 685 CURVE",
"223 682 OFFCURVE",
"224 672 OFFCURVE",
"224 666 CURVE SMOOTH",
"224 658 OFFCURVE",
"216 616 OFFCURVE",
"211 591 CURVE SMOOTH",
"116 106 LINE SMOOTH",
"115 102 OFFCURVE",
"112 79 OFFCURVE",
"112 74 CURVE SMOOTH",
"112 65 OFFCURVE",
"112 49 OFFCURVE",
"122 49 CURVE SMOOTH",
"143 49 OFFCURVE",
"189 104 OFFCURVE",
"192 107 CURVE",
"195 107 OFFCURVE",
"202 94 OFFCURVE",
"202 88 CURVE",
"191 69 OFFCURVE",
"118 -6 OFFCURVE",
"71 -6 CURVE SMOOTH",
"49 -6 OFFCURVE",
"37 16 OFFCURVE",
"37 46 CURVE SMOOTH",
"37 54 OFFCURVE",
"40 78 OFFCURVE",
"44 99 CURVE SMOOTH"
);
}
);
width = 243;
}
);
unicode = 006C;
userData = {
com.fontlab.hintData = {
hhints = (
{
position = -6;
width = 55;
},
{
position = 631;
width = 21;
},
{
position = 665;
width = 20;
}
);
vhints = (
{
position = 37;
width = 75;
},
{
position = 143;
width = 81;
}
);
};
};
},
{
glyphname = lslash;
lastChange = "2017-07-12 19:24:35 +0000";
layers = (
{
components = (
{
name = l;
}
);
layerId = "42F082D8-1FA6-4D23-B964-75333DCE4509";
paths = (
{
closed = 1;
nodes = (
"42 288 CURVE SMOOTH",
"240 423 LINE",
"243 418 OFFCURVE",
"253 399 OFFCURVE",
"248 396 CURVE SMOOTH",
"49 260 LINE",
"45 266 OFFCURVE",
"37 285 OFFCURVE"
);
}
);
width = 245;
}
);
unicode = 0142;
userData = {
com.fontlab.hintData = {
hhints = (
{
position = -6;
width = 55;
},
{
position = 631;
width = 21;
},
{
position = 665;
width = 20;
}
);
vhints = (
{
position = 37;
width = 75;
},
{
position = 143;
width = 81;
}
);
};
};
},
{
glyphname = m;
lastChange = "2017-07-12 19:24:35 +0000";
layers = (
{
layerId = "42F082D8-1FA6-4D23-B964-75333DCE4509";
paths = (
{
closed = 1;
nodes = (
"517 99 CURVE SMOOTH",
"552 264 LINE SMOOTH",
"554 273 OFFCURVE",
"559 307 OFFCURVE",
"559 318 CURVE SMOOTH",
"559 344 OFFCURVE",
"558 361 OFFCURVE",
"540 361 CURVE SMOOTH",
"500 361 OFFCURVE",
"385 233 OFFCURVE",
"366 132 CURVE SMOOTH",
"341 0 LINE",
"327 -2 OFFCURVE",
"318 -3 OFFCURVE",
"304 -3 CURVE SMOOTH",
"290 -3 OFFCURVE",
"282 -2 OFFCURVE",
"269 0 CURVE",
"325 284 LINE SMOOTH",
"328 300 OFFCURVE",
"329 313 OFFCURVE",
"329 322 CURVE SMOOTH",
"329 348 OFFCURVE",
"322 361 OFFCURVE",
"309 361 CURVE SMOOTH",
"264 361 OFFCURVE",
"158 218 OFFCURVE",
"138 122 CURVE SMOOTH",
"113 0 LINE",
"102 -3 OFFCURVE",
"91 -4 OFFCURVE",
"77 -4 CURVE SMOOTH",
"63 -4 OFFCURVE",
"54 -2 OFFCURVE",
"42 0 CURVE",
"108 323 LINE SMOOTH",
"109 329 OFFCURVE",
"112 350 OFFCURVE",
"112 355 CURVE SMOOTH",
"112 364 OFFCURVE",
"112 380 OFFCURVE",
"102 380 CURVE SMOOTH",
"81 380 OFFCURVE",
"35 325 OFFCURVE",
"32 322 CURVE",
"29 322 OFFCURVE",
"22 335 OFFCURVE",
"22 341 CURVE",
"33 360 OFFCURVE",
"101 435 OFFCURVE",
"148 435 CURVE SMOOTH",
"169 435 OFFCURVE",
"187 413 OFFCURVE",
"187 383 CURVE SMOOTH",
"187 375 OFFCURVE",
"183 351 OFFCURVE",
"179 330 CURVE SMOOTH",
"172 294 OFFCURVE",
"167 273 OFFCURVE",
"159 237 CURVE",
"195 300 OFFCURVE",
"285 435 OFFCURVE",
"337 435 CURVE SMOOTH",
"395 435 OFFCURVE",
"404 384 OFFCURVE",
"404 340 CURVE SMOOTH",
"404 316 OFFCURVE",
"396 268 OFFCURVE",
"390 251 CURVE",
"426 314 OFFCURVE",
"522 435 OFFCURVE",
"574 435 CURVE SMOOTH",
"620 435 OFFCURVE",
"636 410 OFFCURVE",
"636 369 CURVE SMOOTH",
"636 335 OFFCURVE",
"629 292 OFFCURVE",
"622 260 CURVE SMOOTH",
"589 106 LINE SMOOTH",
"587 96 OFFCURVE",
"585 79 OFFCURVE",
"585 74 CURVE SMOOTH",
"585 65 OFFCURVE",
"585 49 OFFCURVE",
"595 49 CURVE SMOOTH",
"616 49 OFFCURVE",
"662 104 OFFCURVE",
"665 107 CURVE",
"668 107 OFFCURVE",
"675 94 OFFCURVE",
"675 88 CURVE",
"664 69 OFFCURVE",
"591 -6 OFFCURVE",
"544 -6 CURVE SMOOTH",
"523 -6 OFFCURVE",
"510 16 OFFCURVE",
"510 46 CURVE SMOOTH",
"510 54 OFFCURVE",
"513 78 OFFCURVE"
);
}
);
width = 714;
}
);
unicode = 006D;
userData = {
com.fontlab.hintData = {
hhints = (
{
position = -6;
width = 55;
},
{
position = 361;
width = 74;
},
{
position = 380;
width = 55;
}
);
vhints = (
{
position = 112;
width = 75;
},
{
position = 329;
width = 75;
},
{
position = 510;
width = 75;
},
{
position = 559;
width = 77;
}
);
};
};
},
{
glyphname = n;
lastChange = "2017-07-12 19:24:35 +0000";
layers = (
{
layerId = "42F082D8-1FA6-4D23-B964-75333DCE4509";
paths = (
{
closed = 1;
nodes = (
"179 330 CURVE SMOOTH",
"161 246 LINE",
"174 271 OFFCURVE",
"290 435 OFFCURVE",
"357 435 CURVE SMOOTH",
"403 435 OFFCURVE",
"419 410 OFFCURVE",
"419 369 CURVE SMOOTH",
"419 338 OFFCURVE",
"412 294 OFFCURVE",
"405 260 CURVE SMOOTH",
"372 106 LINE SMOOTH",
"370 96 OFFCURVE",
"368 79 OFFCURVE",
"368 74 CURVE SMOOTH",
"368 65 OFFCURVE",
"368 49 OFFCURVE",
"378 49 CURVE SMOOTH",
"399 49 OFFCURVE",
"445 104 OFFCURVE",
"448 107 CURVE",
"451 107 OFFCURVE",
"458 94 OFFCURVE",
"458 88 CURVE",
"447 69 OFFCURVE",
"374 -6 OFFCURVE",
"327 -6 CURVE SMOOTH",
"306 -6 OFFCURVE",
"293 16 OFFCURVE",
"293 46 CURVE SMOOTH",
"293 54 OFFCURVE",
"296 78 OFFCURVE",
"300 99 CURVE SMOOTH",
"335 264 LINE SMOOTH",
"337 273 OFFCURVE",
"342 307 OFFCURVE",
"342 318 CURVE SMOOTH",
"342 344 OFFCURVE",
"341 361 OFFCURVE",
"323 361 CURVE SMOOTH",
"286 361 OFFCURVE",
"162 247 OFFCURVE",
"138 122 CURVE SMOOTH",
"129 74 OFFCURVE",
"123 48 OFFCURVE",
"113 0 CURVE",
"101 -3 OFFCURVE",
"91 -4 OFFCURVE",
"77 -4 CURVE SMOOTH",
"63 -4 OFFCURVE",
"54 -3 OFFCURVE",
"42 0 CURVE",
"108 323 LINE SMOOTH",
"109 329 OFFCURVE",
"112 350 OFFCURVE",
"112 355 CURVE SMOOTH",
"112 364 OFFCURVE",
"112 380 OFFCURVE",
"102 380 CURVE SMOOTH",
"81 380 OFFCURVE",
"35 325 OFFCURVE",
"32 322 CURVE",
"29 322 OFFCURVE",
"22 335 OFFCURVE",
"22 341 CURVE",
"33 360 OFFCURVE",
"101 435 OFFCURVE",
"148 435 CURVE SMOOTH",
"169 435 OFFCURVE",
"187 413 OFFCURVE",
"187 383 CURVE SMOOTH",
"187 375 OFFCURVE",
"184 351 OFFCURVE"
);
}
);
width = 497;
}
);
unicode = 006E;
userData = {
com.fontlab.hintData = {
hhints = (
{
position = -6;
width = 55;
},
{
position = 361;
width = 74;
},
{
position = 380;
width = 55;
}
);
vhints = (
{
position = 112;
width = 75;
},
{
position = 293;
width = 75;
},
{
position = 342;
width = 77;
}
);
};
};
},
{
glyphname = eng;
lastChange = "2017-07-12 19:24:35 +0000";
layers = (
{
layerId = "42F082D8-1FA6-4D23-B964-75333DCE4509";
paths = (
{
closed = 1;
nodes = (
"360 45 LINE SMOOTH",
"352 9 OFFCURVE",
"332 -67 OFFCURVE",
"289 -124 CURVE SMOOTH",
"247 -179 OFFCURVE",
"185 -221 OFFCURVE",
"150 -235 CURVE",
"146 -232 OFFCURVE",
"141 -222 OFFCURVE",
"141 -215 CURVE",
"208 -177 OFFCURVE",
"259 -89 OFFCURVE",
"283 22 CURVE SMOOTH",
"335 264 LINE SMOOTH",
"337 273 OFFCURVE",
"342 307 OFFCURVE",
"342 318 CURVE SMOOTH",
"342 344 OFFCURVE",
"341 361 OFFCURVE",
"323 361 CURVE SMOOTH",
"286 361 OFFCURVE",
"162 247 OFFCURVE",
"138 122 CURVE SMOOTH",
"129 74 OFFCURVE",
"123 48 OFFCURVE",
"113 0 CURVE",
"99 -2 OFFCURVE",
"91 -4 OFFCURVE",
"77 -4 CURVE SMOOTH",
"63 -4 OFFCURVE",
"56 -2 OFFCURVE",
"42 0 CURVE",
"108 323 LINE SMOOTH",
"109 329 OFFCURVE",
"112 350 OFFCURVE",
"112 355 CURVE SMOOTH",
"112 364 OFFCURVE",
"112 380 OFFCURVE",
"102 380 CURVE SMOOTH",
"81 380 OFFCURVE",
"35 325 OFFCURVE",
"32 322 CURVE",
"29 322 OFFCURVE",
"22 335 OFFCURVE",
"22 341 CURVE",
"33 360 OFFCURVE",
"101 435 OFFCURVE",
"148 435 CURVE SMOOTH",
"169 435 OFFCURVE",
"187 413 OFFCURVE",
"187 383 CURVE SMOOTH",
"187 375 OFFCURVE",
"184 351 OFFCURVE",
"179 330 CURVE SMOOTH",
"161 246 LINE",
"174 271 OFFCURVE",
"290 435 OFFCURVE",
"357 435 CURVE SMOOTH",
"403 435 OFFCURVE",
"419 410 OFFCURVE",
"419 369 CURVE SMOOTH",
"419 338 OFFCURVE",
"412 294 OFFCURVE",
"405 260 CURVE SMOOTH"
);
}
);
width = 476;
}
);
unicode = 014B;
userData = {
com.fontlab.hintData = {
hhints = (
{
position = -4;
width = 21;
},
{
position = 361;
width = 74;
},
{
position = 380;
width = 55;
}
);
vhints = (
{
position = 112;
width = 75;
},
{
position = 342;
width = 77;
}
);
};
};
},
{
glyphname = o;
lastChange = "2017-07-12 19:24:35 +0000";
layers = (
{
layerId = "42F082D8-1FA6-4D23-B964-75333DCE4509";
paths = (
{
closed = 1;
nodes = (
"237 403 CURVE SMOOTH",
"153 403 OFFCURVE",
"102 258 OFFCURVE",
"102 158 CURVE SMOOTH",
"102 78 OFFCURVE",
"123 27 OFFCURVE",
"159 27 CURVE SMOOTH",
"242 27 OFFCURVE",
"290 173 OFFCURVE",
"290 273 CURVE SMOOTH",
"290 353 OFFCURVE",
"273 403 OFFCURVE"
);
},
{
closed = 1;
nodes = (
"251 435 CURVE SMOOTH",
"331 435 OFFCURVE",
"368 374 OFFCURVE",
"368 288 CURVE SMOOTH",
"368 148 OFFCURVE",
"255 -5 OFFCURVE",
"140 -5 CURVE SMOOTH",
"60 -5 OFFCURVE",
"24 52 OFFCURVE",
"24 138 CURVE SMOOTH",
"24 278 OFFCURVE",
"136 435 OFFCURVE"
);
}
);
width = 414;
}
);
unicode = 006F;
userData = {
com.fontlab.hintData = {
hhints = (
{
position = -5;
width = 32;
},
{
position = 403;
width = 32;
}
);
vhints = (
{
position = 24;
width = 78;
},
{
position = 290;
width = 78;
}
);
};
};
},
{
glyphname = ohorn;
lastChange = "2017-07-12 19:24:35 +0000";
layers = (
{
layerId = "42F082D8-1FA6-4D23-B964-75333DCE4509";
paths = (
{
closed = 1;
nodes = (
"237 403 CURVE SMOOTH",
"153 403 OFFCURVE",
"102 258 OFFCURVE",
"102 158 CURVE SMOOTH",
"102 78 OFFCURVE",
"123 27 OFFCURVE",
"159 27 CURVE SMOOTH",
"242 27 OFFCURVE",
"290 173 OFFCURVE",
"290 273 CURVE SMOOTH",
"290 353 OFFCURVE",
"273 403 OFFCURVE"
);
},
{
closed = 1;
nodes = (
"374 381 CURVE SMOOTH",
"391 381 OFFCURVE",
"404 389 OFFCURVE",
"404 407 CURVE SMOOTH",
"404 420 OFFCURVE",
"398 434 OFFCURVE",
"398 444 CURVE SMOOTH",
"398 464 OFFCURVE",
"416 481 OFFCURVE",
"437 481 CURVE SMOOTH",
"449 481 OFFCURVE",
"459 478 OFFCURVE",
"468 473 CURVE",
"470 467 OFFCURVE",
"472 457 OFFCURVE",
"472 449 CURVE SMOOTH",
"472 396 OFFCURVE",
"426 353 OFFCURVE",
"376 353 CURVE SMOOTH",
"370 353 OFFCURVE",
"364 354 OFFCURVE",
"359 355 CURVE",
"365 335 OFFCURVE",
"368 313 OFFCURVE",
"368 288 CURVE SMOOTH",
"368 148 OFFCURVE",
"255 -5 OFFCURVE",
"140 -5 CURVE SMOOTH",
"60 -5 OFFCURVE",
"24 52 OFFCURVE",
"24 138 CURVE SMOOTH",
"24 278 OFFCURVE",
"136 435 OFFCURVE",
"251 435 CURVE SMOOTH",
"275 435 OFFCURVE",
"297 430 OFFCURVE",
"320 414 CURVE SMOOTH",
"340 400 OFFCURVE",
"351 381 OFFCURVE"
);
}
);
width = 414;
}
);
unicode = 01A1;
userData = {
com.fontlab.hintData = {
hhints = (
{
position = -5;
width = 32;
},
{
position = 353;
width = 28;
},
{
position = 403;
width = 32;
}
);
vhints = (
{
position = 24;
width = 78;
},
{
position = 290;
width = 78;
},
{
position = 404;
width = 68;
}
);
};
};
},
{
glyphname = oslash;
lastChange = "2017-07-12 19:24:35 +0000";
layers = (
{
components = (
{
name = o;
}
);
layerId = "42F082D8-1FA6-4D23-B964-75333DCE4509";
paths = (
{
closed = 1;
nodes = (
"52 0 LINE",
"46 3 OFFCURVE",
"29 14 OFFCURVE",
"33 20 CURVE SMOOTH",
"341 419 LINE",
"347 416 OFFCURVE",
"364 406 OFFCURVE",
"360 400 CURVE SMOOTH"
);
}
);
width = 414;
}
);
unicode = 00F8;
userData = {
com.fontlab.hintData = {
hhints = (
{
position = -5;
width = 32;
},
{
position = 0;
width = 21;
},
{
position = 403;
width = 32;
}
);
vhints = (
{
position = 24;
width = 78;
},
{
position = 290;
width = 78;
}
);
};
};
},
{
glyphname = oe;
lastChange = "2017-07-12 19:24:35 +0000";
layers = (
{
layerId = "42F082D8-1FA6-4D23-B964-75333DCE4509";
paths = (
{
closed = 1;
nodes = (
"356 218 CURVE",
"401 220 OFFCURVE",
"517 282 OFFCURVE",
"517 354 CURVE SMOOTH",
"517 381 OFFCURVE",
"494 394 OFFCURVE",
"475 394 CURVE SMOOTH",
"414 394 OFFCURVE",
"365 290 OFFCURVE"
);
},
{
closed = 1;
nodes = (
"237 403 CURVE SMOOTH",
"153 403 OFFCURVE",
"102 258 OFFCURVE",
"102 158 CURVE SMOOTH",
"102 78 OFFCURVE",
"123 27 OFFCURVE",
"159 27 CURVE SMOOTH",
"225 27 OFFCURVE",
"290 136 OFFCURVE",
"290 273 CURVE SMOOTH",
"290 353 OFFCURVE",
"273 403 OFFCURVE"
);
},
{
closed = 1;
nodes = (
"525 435 CURVE SMOOTH",
"576 435 OFFCURVE",
"591 403 OFFCURVE",
"591 373 CURVE SMOOTH",
"591 277 OFFCURVE",
"416 193 OFFCURVE",
"354 193 CURVE",
"353 190 OFFCURVE",
"352 166 OFFCURVE",
"352 161 CURVE SMOOTH",
"352 100 OFFCURVE",
"371 53 OFFCURVE",
"421 53 CURVE SMOOTH",
"466 53 OFFCURVE",
"521 119 OFFCURVE",
"524 122 CURVE",
"527 122 OFFCURVE",
"536 108 OFFCURVE",
"536 102 CURVE",
"523 80 OFFCURVE",
"447 -6 OFFCURVE",
"384 -6 CURVE SMOOTH",
"333 -6 OFFCURVE",
"298 22 OFFCURVE",
"283 72 CURVE",
"242 26 OFFCURVE",
"191 -5 OFFCURVE",
"140 -5 CURVE SMOOTH",
"60 -5 OFFCURVE",
"24 52 OFFCURVE",
"24 138 CURVE SMOOTH",
"24 278 OFFCURVE",
"136 435 OFFCURVE",
"251 435 CURVE SMOOTH",
"311 435 OFFCURVE",
"347 401 OFFCURVE",
"361 348 CURVE",
"409 401 OFFCURVE",
"469 435 OFFCURVE"
);
}
);
width = 614;
}
);
unicode = 0153;
userData = {
com.fontlab.hintData = {
hhints = (
{
position = -6;
width = 59;
},
{
position = -5;
width = 32;
},
{
position = 193;
width = 25;
},
{
position = 394;
width = 41;
},
{
position = 403;
width = 32;
}
);
vhints = (
{
position = 24;
width = 78;
},
{
position = 290;
width = 62;
},
{
position = 517;
width = 74;
}
);
};
};
},
{
glyphname = p;
lastChange = "2017-07-12 19:24:35 +0000";
layers = (
{
layerId = "42F082D8-1FA6-4D23-B964-75333DCE4509";
paths = (
{
closed = 1;
nodes = (
"280 380 CURVE SMOOTH",
"247 380 OFFCURVE",
"189 338 OFFCURVE",
"162 300 CURVE",
"129 131 LINE SMOOTH",
"118 72 OFFCURVE",
"146 30 OFFCURVE",
"176 30 CURVE SMOOTH",
"261 30 OFFCURVE",
"333 184 OFFCURVE",
"333 303 CURVE SMOOTH",
"333 358 OFFCURVE",
"312 380 OFFCURVE"
);
},
{
closed = 1;
nodes = (
"320 435 CURVE SMOOTH",
"384 435 OFFCURVE",
"407 384 OFFCURVE",
"407 314 CURVE SMOOTH",
"407 159 OFFCURVE",
"277 -5 OFFCURVE",
"155 -5 CURVE SMOOTH",
"138 -5 OFFCURVE",
"115 -2 OFFCURVE",
"109 8 CURVE",
"76 -145 LINE SMOOTH",
"74 -154 OFFCURVE",
"73 -163 OFFCURVE",
"73 -173 CURVE SMOOTH",
"73 -178 OFFCURVE",
"77 -193 OFFCURVE",
"87 -196 CURVE SMOOTH",
"104 -200 OFFCURVE",
"131 -199 OFFCURVE",
"134 -199 CURVE SMOOTH",
"138 -200 OFFCURVE",
"136 -225 OFFCURVE",
"131 -227 CURVE",
"118 -227 OFFCURVE",
"107 -226 OFFCURVE",
"96 -226 CURVE SMOOTH",
"45 -226 OFFCURVE",
"6 -228 OFFCURVE",
"-52 -235 CURVE",
"-57 -234 OFFCURVE",
"-56 -209 OFFCURVE",
"-51 -206 CURVE",
"-33 -206 OFFCURVE",
"-20 -201 OFFCURVE",
"-11 -190 CURVE SMOOTH",
"-4 -181 OFFCURVE",
"0 -170 OFFCURVE",
"5 -147 CURVE SMOOTH",
"84 250 LINE",
"36 202 LINE",
"32 207 OFFCURVE",
"30 217 OFFCURVE",
"30 222 CURVE SMOOTH",
"30 226 OFFCURVE",
"32 228 OFFCURVE",
"33 229 CURVE SMOOTH",
"92 292 LINE",
"118 433 LINE",
"129 436 OFFCURVE",
"145 437 OFFCURVE",
"156 437 CURVE SMOOTH",
"167 437 OFFCURVE",
"178 435 OFFCURVE",
"188 430 CURVE",
"184 411 OFFCURVE",
"173 353 OFFCURVE",
"172 346 CURVE",
"199 371 OFFCURVE",
"269 435 OFFCURVE"
);
}
);
width = 448;
}
);
unicode = 0070;
userData = {
com.fontlab.hintData = {
hhints = (
{
position = -235;
width = 29;
},
{
position = -226;
width = 27;
},
{
position = -5;
width = 35;
},
{
position = 380;
width = 55;
}
);
vhints = (
{
position = 333;
width = 74;
}
);
};
};
},
{
glyphname = thorn;
lastChange = "2017-07-12 19:24:35 +0000";
layers = (
{
layerId = "42F082D8-1FA6-4D23-B964-75333DCE4509";
paths = (
{
closed = 1;
nodes = (
"221 592 CURVE SMOOTH",
"218 573 OFFCURVE",
"174 353 OFFCURVE",
"173 346 CURVE",
"200 371 OFFCURVE",
"270 435 OFFCURVE",
"321 435 CURVE SMOOTH",
"385 435 OFFCURVE",
"408 384 OFFCURVE",
"408 314 CURVE SMOOTH",
"408 159 OFFCURVE",
"278 -5 OFFCURVE",
"156 -5 CURVE SMOOTH",
"139 -5 OFFCURVE",
"116 -2 OFFCURVE",
"110 8 CURVE",
"77 -145 LINE SMOOTH",
"75 -154 OFFCURVE",
"74 -163 OFFCURVE",
"74 -173 CURVE SMOOTH",
"74 -178 OFFCURVE",
"78 -193 OFFCURVE",
"88 -196 CURVE SMOOTH",
"105 -200 OFFCURVE",
"132 -199 OFFCURVE",
"135 -199 CURVE SMOOTH",
"139 -200 OFFCURVE",
"137 -225 OFFCURVE",
"132 -227 CURVE",
"119 -227 OFFCURVE",
"108 -226 OFFCURVE",
"97 -226 CURVE SMOOTH",
"46 -226 OFFCURVE",
"7 -228 OFFCURVE",
"-51 -235 CURVE",
"-56 -234 OFFCURVE",
"-55 -209 OFFCURVE",
"-50 -206 CURVE",
"-32 -206 OFFCURVE",
"-19 -201 OFFCURVE",
"-10 -190 CURVE SMOOTH",
"-3 -181 OFFCURVE",
"1 -170 OFFCURVE",
"6 -147 CURVE SMOOTH",
"85 250 LINE",
"37 202 LINE",
"33 207 OFFCURVE",
"31 217 OFFCURVE",
"31 222 CURVE SMOOTH",
"31 226 OFFCURVE",
"33 228 OFFCURVE",
"34 229 CURVE SMOOTH",
"93 292 LINE",
"144 560 LINE SMOOTH",
"147 578 OFFCURVE",
"153 602 OFFCURVE",
"153 613 CURVE SMOOTH",
"153 632 OFFCURVE",
"108 632 OFFCURVE",
"92 632 CURVE",
"89 636 OFFCURVE",
"92 649 OFFCURVE",
"96 653 CURVE",
"151 658 OFFCURVE",
"206 678 OFFCURVE",
"228 686 CURVE",
"233 683 OFFCURVE",
"234 673 OFFCURVE",
"234 667 CURVE SMOOTH",
"234 659 OFFCURVE",
"226 617 OFFCURVE"
);
},
{
closed = 1;
nodes = (
"281 380 CURVE SMOOTH",
"248 380 OFFCURVE",
"190 338 OFFCURVE",
"163 300 CURVE",
"130 131 LINE SMOOTH",
"119 72 OFFCURVE",
"147 30 OFFCURVE",
"177 30 CURVE SMOOTH",
"262 30 OFFCURVE",
"334 184 OFFCURVE",
"334 303 CURVE SMOOTH",
"334 358 OFFCURVE",
"313 380 OFFCURVE"
);
}
);
width = 449;
}
);
unicode = 00FE;
userData = {
com.fontlab.hintData = {
hhints = (
{
position = -235;
width = 29;
},
{
position = -226;
width = 27;
},
{
position = -5;
width = 35;
},
{
position = 380;
width = 55;
},
{
position = 632;
width = 21;
},
{
position = 666;
width = 20;
}
);
vhints = (
{
position = 153;
width = 81;
},
{
position = 334;
width = 74;
}
);
};
};
},
{
glyphname = q;
lastChange = "2017-07-12 19:24:35 +0000";
layers = (
{
layerId = "42F082D8-1FA6-4D23-B964-75333DCE4509";
paths = (
{
closed = 1;
nodes = (
"317 -228 CURVE",
"303 -228 OFFCURVE",
"290 -227 OFFCURVE",
"277 -227 CURVE SMOOTH",
"219 -227 OFFCURVE",
"164 -231 OFFCURVE",
"127 -235 CURVE",
"125 -233 OFFCURVE",
"124 -208 OFFCURVE",
"130 -208 CURVE SMOOTH",
"159 -205 OFFCURVE",
"193 -197 OFFCURVE",
"198 -171 CURVE SMOOTH",
"254 130 LINE",
"234 94 OFFCURVE",
"165 -5 OFFCURVE",
"107 -5 CURVE SMOOTH",
"45 -5 OFFCURVE",
"19 58 OFFCURVE",
"19 116 CURVE SMOOTH",
"19 273 OFFCURVE",
"173 435 OFFCURVE",
"303 435 CURVE SMOOTH",
"338 435 OFFCURVE",
"363 429 OFFCURVE",
"382 422 CURVE",
"321 106 LINE SMOOTH",
"320 102 OFFCURVE",
"275 -150 OFFCURVE",
"275 -150 CURVE SMOOTH",
"274 -158 OFFCURVE",
"273 -165 OFFCURVE",
"273 -171 CURVE SMOOTH",
"273 -185 OFFCURVE",
"275 -201 OFFCURVE",
"319 -201 CURVE SMOOTH",
"323 -201 OFFCURVE",
"322 -225 OFFCURVE"
);
},
{
closed = 1;
nodes = (
"296 341 LINE SMOOTH",
"300 364 OFFCURVE",
"288 395 OFFCURVE",
"261 395 CURVE SMOOTH",
"180 395 OFFCURVE",
"93 265 OFFCURVE",
"93 150 CURVE SMOOTH",
"93 95 OFFCURVE",
"107 53 OFFCURVE",
"144 53 CURVE SMOOTH",
"195 53 OFFCURVE",
"265 179 OFFCURVE",
"284 276 CURVE"
);
}
);
width = 426;
}
);
unicode = 0071;
userData = {
com.fontlab.hintData = {
hhints = (
{
position = -227;
width = 19;
},
{
position = -5;
width = 58;
},
{
position = 395;
width = 40;
}
);
vhints = (
{
position = 19;
width = 74;
}
);
};
};
},
{
glyphname = r;
lastChange = "2017-07-12 19:24:35 +0000";
layers = (
{
layerId = "42F082D8-1FA6-4D23-B964-75333DCE4509";
paths = (
{
closed = 1;
nodes = (
"307 435 CURVE SMOOTH",
"329 435 OFFCURVE",
"347 424 OFFCURVE",
"356 414 CURVE SMOOTH",
"360 409 OFFCURVE",
"365 396 OFFCURVE",
"365 386 CURVE SMOOTH",
"365 360 OFFCURVE",
"352 342 OFFCURVE",
"329 342 CURVE SMOOTH",
"320 342 OFFCURVE",
"307 348 OFFCURVE",
"299 357 CURVE SMOOTH",
"295 362 OFFCURVE",
"287 365 OFFCURVE",
"279 365 CURVE SMOOTH",
"243 365 OFFCURVE",
"159 226 OFFCURVE",
"140 122 CURVE SMOOTH",
"118 0 LINE",
"107 -2 OFFCURVE",
"95 -3 OFFCURVE",
"84 -3 CURVE SMOOTH",
"71 -3 OFFCURVE",
"59 -2 OFFCURVE",
"47 0 CURVE",
"107 323 LINE SMOOTH",
"108 329 OFFCURVE",
"111 350 OFFCURVE",
"111 355 CURVE SMOOTH",
"111 364 OFFCURVE",
"111 380 OFFCURVE",
"101 380 CURVE SMOOTH",
"80 380 OFFCURVE",
"34 325 OFFCURVE",
"31 322 CURVE",
"28 322 OFFCURVE",
"21 335 OFFCURVE",
"21 341 CURVE",
"32 360 OFFCURVE",
"100 435 OFFCURVE",
"147 435 CURVE SMOOTH",
"168 435 OFFCURVE",
"186 413 OFFCURVE",
"186 383 CURVE SMOOTH",
"186 375 OFFCURVE",
"182 351 OFFCURVE",
"178 330 CURVE SMOOTH",
"172 297 OFFCURVE",
"168 279 OFFCURVE",
"161 246 CURVE",
"189 313 OFFCURVE",
"260 435 OFFCURVE"
);
}
);
width = 356;
}
);
unicode = 0072;
userData = {
com.fontlab.hintData = {
hhints = (
{
position = -3;
width = 21;
},
{
position = 365;
width = 70;
},
{
position = 380;
width = 55;
}
);
vhints = (
{
position = 111;
width = 75;
}
);
};
};
},
{
glyphname = s;
lastChange = "2017-07-12 19:24:35 +0000";
layers = (
{
layerId = "42F082D8-1FA6-4D23-B964-75333DCE4509";
paths = (
{
closed = 1;
nodes = (
"199 438 CURVE SMOOTH",
"239 438 OFFCURVE",
"264 429 OFFCURVE",
"285 411 CURVE",
"290 404 OFFCURVE",
"295 386 OFFCURVE",
"295 379 CURVE SMOOTH",
"295 356 OFFCURVE",
"281 338 OFFCURVE",
"261 338 CURVE SMOOTH",
"243 338 OFFCURVE",
"227 355 OFFCURVE",
"214 373 CURVE SMOOTH",
"203 389 OFFCURVE",
"196 404 OFFCURVE",
"167 404 CURVE SMOOTH",
"132 404 OFFCURVE",
"118 369 OFFCURVE",
"118 348 CURVE SMOOTH",
"118 308 OFFCURVE",
"153 277 OFFCURVE",
"184 242 CURVE SMOOTH",
"215 206 OFFCURVE",
"245 167 OFFCURVE",
"245 117 CURVE SMOOTH",
"245 43 OFFCURVE",
"184 -6 OFFCURVE",
"100 -6 CURVE SMOOTH",
"69 -6 OFFCURVE",
"38 2 OFFCURVE",
"12 24 CURVE",
"9 29 OFFCURVE",
"2 44 OFFCURVE",
"2 54 CURVE SMOOTH",
"2 83 OFFCURVE",
"19 100 OFFCURVE",
"39 100 CURVE SMOOTH",
"59 100 OFFCURVE",
"67 76 OFFCURVE",
"82 55 CURVE SMOOTH",
"93 40 OFFCURVE",
"108 26 OFFCURVE",
"135 26 CURVE SMOOTH",
"175 26 OFFCURVE",
"184 63 OFFCURVE",
"184 84 CURVE SMOOTH",
"184 119 OFFCURVE",
"158 146 OFFCURVE",
"132 176 CURVE SMOOTH",
"97 215 OFFCURVE",
"60 255 OFFCURVE",
"60 312 CURVE SMOOTH",
"60 368 OFFCURVE",
"115 438 OFFCURVE"
);
}
);
width = 322;
}
);
unicode = 0073;
userData = {
com.fontlab.hintData = {
hhints = (
{
position = -6;
width = 32;
},
{
position = 404;
width = 34;
}
);
vhints = (
{
position = 60;
width = 58;
},
{
position = 184;
width = 61;
}
);
};
};
},
{
glyphname = germandbls;
lastChange = "2017-07-12 19:24:35 +0000";
layers = (
{
layerId = "42F082D8-1FA6-4D23-B964-75333DCE4509";
paths = (
{
closed = 1;
nodes = (
"128 413 LINE",
"160 577 OFFCURVE",
"255 685 OFFCURVE",
"335 685 CURVE SMOOTH",
"386 685 OFFCURVE",
"452 651 OFFCURVE",
"452 572 CURVE SMOOTH",
"452 484 OFFCURVE",
"394 453 OFFCURVE",
"365 426 CURVE SMOOTH",
"338 401 OFFCURVE",
"309 376 OFFCURVE",
"309 352 CURVE SMOOTH",
"309 325 OFFCURVE",
"339 299 OFFCURVE",
"362 272 CURVE SMOOTH",
"402 226 OFFCURVE",
"446 189 OFFCURVE",
"446 122 CURVE SMOOTH",
"446 49 OFFCURVE",
"387 -4 OFFCURVE",
"308 -4 CURVE SMOOTH",
"248 -4 OFFCURVE",
"222 18 OFFCURVE",
"208 32 CURVE",
"206 38 OFFCURVE",
"201 50 OFFCURVE",
"202 58 CURVE SMOOTH",
"204 86 OFFCURVE",
"221 99 OFFCURVE",
"242 99 CURVE SMOOTH",
"271 99 OFFCURVE",
"280 26 OFFCURVE",
"329 26 CURVE SMOOTH",
"369 26 OFFCURVE",
"383 56 OFFCURVE",
"383 88 CURVE SMOOTH",
"383 131 OFFCURVE",
"334 186 OFFCURVE",
"308 216 CURVE SMOOTH",
"279 249 OFFCURVE",
"252 278 OFFCURVE",
"252 324 CURVE SMOOTH",
"252 369 OFFCURVE",
"276 380 OFFCURVE",
"331 435 CURVE SMOOTH",
"359 463 OFFCURVE",
"384 495 OFFCURVE",
"384 547 CURVE SMOOTH",
"384 608 OFFCURVE",
"341 642 OFFCURVE",
"300 642 CURVE SMOOTH",
"256 642 OFFCURVE",
"233 572 OFFCURVE",
"204 413 CURVE SMOOTH",
"177 267 OFFCURVE",
"160 169 OFFCURVE",
"136 43 CURVE SMOOTH",
"104 -121 OFFCURVE",
"9 -233 OFFCURVE",
"-71 -233 CURVE SMOOTH",
"-100 -233 OFFCURVE",
"-118 -221 OFFCURVE",
"-125 -208 CURVE",
"-125 -202 OFFCURVE",
"-125 -197 OFFCURVE",
"-124 -191 CURVE SMOOTH",
"-121 -171 OFFCURVE",
"-112 -152 OFFCURVE",
"-95 -152 CURVE SMOOTH",
"-78 -152 OFFCURVE",
"-68 -163 OFFCURVE",
"-57 -175 CURVE SMOOTH",
"-50 -182 OFFCURVE",
"-42 -190 OFFCURVE",
"-28 -190 CURVE SMOOTH",
"11 -190 OFFCURVE",
"31 -120 OFFCURVE",
"62 39 CURVE"
);
}
);
width = 500;
}
);
unicode = 00DF;
userData = {
com.fontlab.hintData = {
hhints = (
{
position = -233;
width = 43;
},
{
position = -4;
width = 30;
},
{
position = 376;
width = 37;
},
{
position = 642;
width = 43;
}
);
vhints = (
{
position = 252;
width = 57;
},
{
position = 383;
width = 63;
}
);
};
};
},
{
glyphname = longs;
lastChange = "2017-07-12 19:24:35 +0000";
layers = (
{
layerId = "42F082D8-1FA6-4D23-B964-75333DCE4509";
paths = (
{
closed = 1;
nodes = (
"129 413 LINE",
"161 577 OFFCURVE",
"256 685 OFFCURVE",
"336 685 CURVE SMOOTH",
"365 685 OFFCURVE",
"383 673 OFFCURVE",
"390 660 CURVE",
"390 657 OFFCURVE",
"390 654 OFFCURVE",
"390 651 CURVE SMOOTH",
"388 628 OFFCURVE",
"379 604 OFFCURVE",
"360 604 CURVE SMOOTH",
"343 604 OFFCURVE",
"333 615 OFFCURVE",
"322 627 CURVE SMOOTH",
"315 634 OFFCURVE",
"307 642 OFFCURVE",
"293 642 CURVE SMOOTH",
"250 642 OFFCURVE",
"223 527 OFFCURVE",
"196 376 CURVE SMOOTH"
);
}
);
width = 296;
}
);
unicode = 017F;
userData = {
com.fontlab.hintData = {
hhints = (
{
position = -233;
width = 43;
},
{
position = 376;
width = 37;
},
{
position = 642;
width = 43;
}
);
};
};
},
{
glyphname = t;
lastChange = "2017-07-12 19:24:35 +0000";
layers = (
{
layerId = "42F082D8-1FA6-4D23-B964-75333DCE4509";
paths = (
{
closed = 1;
nodes = (
"117 413 LINE",
"128 472 LINE",
"139 486 OFFCURVE",
"185 538 OFFCURVE",
"193 538 CURVE SMOOTH",
"199 538 OFFCURVE",
"206 535 OFFCURVE",
"210 532 CURVE",
"188 413 LINE",
"263 413 LINE SMOOTH",
"267 413 OFFCURVE",
"268 406 OFFCURVE",
"268 401 CURVE SMOOTH",
"268 391 OFFCURVE",
"264 384 OFFCURVE",
"259 376 CURVE",
"181 376 LINE",
"128 106 LINE SMOOTH",
"126 96 OFFCURVE",
"124 79 OFFCURVE",
"124 74 CURVE SMOOTH",
"124 65 OFFCURVE",
"124 49 OFFCURVE",
"134 49 CURVE SMOOTH",
"155 49 OFFCURVE",
"201 104 OFFCURVE",
"204 107 CURVE",
"207 107 OFFCURVE",
"214 94 OFFCURVE",
"214 88 CURVE",
"203 69 OFFCURVE",
"130 -6 OFFCURVE",
"83 -6 CURVE SMOOTH",
"62 -6 OFFCURVE",
"49 16 OFFCURVE",
"49 46 CURVE SMOOTH",
"49 54 OFFCURVE",
"52 78 OFFCURVE",
"56 99 CURVE SMOOTH",
"110 376 LINE",
"43 376 LINE SMOOTH",
"42 376 OFFCURVE",
"41 377 OFFCURVE",
"41 379 CURVE SMOOTH",
"41 389 OFFCURVE",
"64 413 OFFCURVE",
"87 413 CURVE SMOOTH"
);
}
);
width = 278;
}
);
unicode = 0074;
userData = {
com.fontlab.hintData = {
hhints = (
{
position = -6;
width = 55;
},
{
position = 376;
width = 37;
}
);
vhints = (
{
position = 49;
width = 75;
}
);
};
};
},
{
glyphname = tbar;
lastChange = "2017-07-12 19:24:35 +0000";
layers = (
{
components = (
{
name = t;
transform = "{1, 0, 0, 1, 1, 0}";
}
);
layerId = "42F082D8-1FA6-4D23-B964-75333DCE4509";
paths = (
{
closed = 1;
nodes = (
"54 315 CURVE",
"81 315 OFFCURVE",
"269 315 OFFCURVE",
"282 315 CURVE SMOOTH",
"286 315 OFFCURVE",
"287 310 OFFCURVE",
"286 305 CURVE SMOOTH",
"285 299 OFFCURVE",
"279 284 OFFCURVE",
"274 275 CURVE",
"247 275 OFFCURVE",
"59 275 OFFCURVE",
"46 275 CURVE SMOOTH",
"42 275 OFFCURVE",
"42 283 OFFCURVE",
"43 288 CURVE SMOOTH",
"44 294 OFFCURVE",
"47 306 OFFCURVE"
);
}
);
width = 285;
}
);
unicode = 0167;
userData = {
com.fontlab.hintData = {
hhints = (
{
position = -6;
width = 55;
},
{
position = 275;
width = 40;
},
{
position = 376;
width = 37;
}
);
vhints = (
{
position = 43;
width = 243;
},
{
position = 50;
width = 75;
}
);
};
};
},
{
glyphname = u;
lastChange = "2017-07-12 19:24:35 +0000";
layers = (
{
layerId = "42F082D8-1FA6-4D23-B964-75333DCE4509";
paths = (
{
closed = 1;
nodes = (
"292 99 CURVE SMOOTH",
"298 133 OFFCURVE",
"303 152 OFFCURVE",
"310 186 CURVE",
"284 130 OFFCURVE",
"175 -6 OFFCURVE",
"109 -6 CURVE SMOOTH",
"70 -6 OFFCURVE",
"59 28 OFFCURVE",
"59 66 CURVE SMOOTH",
"59 94 OFFCURVE",
"67 140 OFFCURVE",
"73 169 CURVE SMOOTH",
"106 323 LINE SMOOTH",
"107 329 OFFCURVE",
"110 350 OFFCURVE",
"110 355 CURVE SMOOTH",
"110 364 OFFCURVE",
"110 380 OFFCURVE",
"100 380 CURVE SMOOTH",
"79 380 OFFCURVE",
"33 325 OFFCURVE",
"30 322 CURVE",
"27 322 OFFCURVE",
"20 335 OFFCURVE",
"20 341 CURVE",
"31 360 OFFCURVE",
"99 435 OFFCURVE",
"146 435 CURVE SMOOTH",
"167 435 OFFCURVE",
"185 413 OFFCURVE",
"185 383 CURVE SMOOTH",
"185 375 OFFCURVE",
"182 351 OFFCURVE",
"178 330 CURVE SMOOTH",
"143 165 LINE SMOOTH",
"141 156 OFFCURVE",
"136 122 OFFCURVE",
"136 111 CURVE SMOOTH",
"136 88 OFFCURVE",
"138 68 OFFCURVE",
"155 68 CURVE SMOOTH",
"191 68 OFFCURVE",
"310 194 OFFCURVE",
"334 319 CURVE SMOOTH",
"342 360 OFFCURVE",
"348 387 OFFCURVE",
"356 429 CURVE",
"366 432 OFFCURVE",
"377 433 OFFCURVE",
"387 433 CURVE SMOOTH",
"397 433 OFFCURVE",
"414 432 OFFCURVE",
"426 429 CURVE",
"364 106 LINE SMOOTH",
"362 96 OFFCURVE",
"360 79 OFFCURVE",
"360 74 CURVE SMOOTH",
"360 65 OFFCURVE",
"360 49 OFFCURVE",
"370 49 CURVE SMOOTH",
"391 49 OFFCURVE",
"437 104 OFFCURVE",
"440 107 CURVE",
"443 107 OFFCURVE",
"450 94 OFFCURVE",
"450 88 CURVE",
"439 69 OFFCURVE",
"366 -6 OFFCURVE",
"319 -6 CURVE SMOOTH",
"298 -6 OFFCURVE",
"285 16 OFFCURVE",
"285 46 CURVE SMOOTH",
"285 54 OFFCURVE",
"288 78 OFFCURVE"
);
}
);
width = 491;
}
);
unicode = 0075;
userData = {
com.fontlab.hintData = {
hhints = (
{
position = -6;
width = 74;
},
{
position = -6;
width = 55;
},
{
position = 380;
width = 55;
}
);
vhints = (
{
position = 59;
width = 77;
},
{
position = 110;
width = 75;
},
{
position = 285;
width = 75;
}
);
};
};
},
{
glyphname = uhorn;
lastChange = "2017-07-12 19:24:35 +0000";
layers = (
{
layerId = "42F082D8-1FA6-4D23-B964-75333DCE4509";
paths = (
{
closed = 1;
nodes = (
"422 435 CURVE SMOOTH",
"439 435 OFFCURVE",
"464 445 OFFCURVE",
"464 463 CURVE SMOOTH",
"464 476 OFFCURVE",
"458 490 OFFCURVE",
"458 500 CURVE SMOOTH",
"458 520 OFFCURVE",
"476 537 OFFCURVE",
"497 537 CURVE SMOOTH",
"509 537 OFFCURVE",
"519 534 OFFCURVE",
"528 529 CURVE",
"530 523 OFFCURVE",
"532 513 OFFCURVE",
"532 505 CURVE SMOOTH",
"532 452 OFFCURVE",
"486 409 OFFCURVE",
"436 409 CURVE SMOOTH",
"427 409 OFFCURVE",
"421 406 OFFCURVE",
"420 399 CURVE SMOOTH",
"364 106 LINE SMOOTH",
"362 96 OFFCURVE",
"360 79 OFFCURVE",
"360 74 CURVE SMOOTH",
"360 65 OFFCURVE",
"360 49 OFFCURVE",
"370 49 CURVE SMOOTH",
"391 49 OFFCURVE",
"437 104 OFFCURVE",
"440 107 CURVE",
"443 107 OFFCURVE",
"450 94 OFFCURVE",
"450 88 CURVE",
"439 69 OFFCURVE",
"366 -6 OFFCURVE",
"319 -6 CURVE SMOOTH",
"298 -6 OFFCURVE",
"285 16 OFFCURVE",
"285 46 CURVE SMOOTH",
"285 54 OFFCURVE",
"288 78 OFFCURVE",
"292 99 CURVE SMOOTH",
"298 133 OFFCURVE",
"303 152 OFFCURVE",
"310 186 CURVE",
"284 130 OFFCURVE",
"175 -6 OFFCURVE",
"109 -6 CURVE SMOOTH",
"70 -6 OFFCURVE",
"59 28 OFFCURVE",
"59 66 CURVE SMOOTH",
"59 94 OFFCURVE",
"67 140 OFFCURVE",
"73 169 CURVE SMOOTH",
"106 323 LINE SMOOTH",
"107 329 OFFCURVE",
"110 350 OFFCURVE",
"110 355 CURVE SMOOTH",
"110 364 OFFCURVE",
"110 380 OFFCURVE",
"100 380 CURVE SMOOTH",
"79 380 OFFCURVE",
"33 325 OFFCURVE",
"30 322 CURVE",
"27 322 OFFCURVE",
"20 335 OFFCURVE",
"20 341 CURVE",
"31 360 OFFCURVE",
"99 435 OFFCURVE",
"146 435 CURVE SMOOTH",
"167 435 OFFCURVE",
"185 413 OFFCURVE",
"185 383 CURVE SMOOTH",
"185 375 OFFCURVE",
"182 351 OFFCURVE",
"178 330 CURVE SMOOTH",
"143 165 LINE SMOOTH",
"141 156 OFFCURVE",
"136 122 OFFCURVE",
"136 111 CURVE SMOOTH",
"136 88 OFFCURVE",
"138 68 OFFCURVE",
"155 68 CURVE SMOOTH",
"191 68 OFFCURVE",
"310 194 OFFCURVE",
"334 319 CURVE SMOOTH",
"342 360 OFFCURVE",
"348 387 OFFCURVE",
"356 429 CURVE",
"366 432 OFFCURVE",
"404 435 OFFCURVE"
);
}
);
width = 491;
}
);
unicode = 01B0;
userData = {
com.fontlab.hintData = {
hhints = (
{
position = -6;
width = 74;
},
{
position = -6;
width = 55;
},
{
position = 380;
width = 55;
},
{
position = 409;
width = 26;
}
);
vhints = (
{
position = 59;
width = 77;
},
{
position = 110;
width = 75;
},
{
position = 285;
width = 75;
},
{
position = 464;
width = 68;
}
);
};
};
},
{
glyphname = uogonek;
lastChange = "2017-07-12 19:24:35 +0000";
layers = (
{
layerId = "42F082D8-1FA6-4D23-B964-75333DCE4509";
paths = (
{
closed = 1;
nodes = (
"199 -180 CURVE SMOOTH",
"199 -129 OFFCURVE",
"260 -51 OFFCURVE",
"307 -4 CURVE",
"292 2 OFFCURVE",
"284 22 OFFCURVE",
"284 46 CURVE SMOOTH",
"285 54 OFFCURVE",
"288 78 OFFCURVE",
"292 99 CURVE SMOOTH",
"298 133 OFFCURVE",
"303 152 OFFCURVE",
"310 186 CURVE",
"284 130 OFFCURVE",
"175 -6 OFFCURVE",
"109 -6 CURVE SMOOTH",
"70 -6 OFFCURVE",
"59 28 OFFCURVE",
"59 66 CURVE SMOOTH",
"59 94 OFFCURVE",
"67 140 OFFCURVE",
"73 169 CURVE SMOOTH",
"106 323 LINE SMOOTH",
"107 329 OFFCURVE",
"110 350 OFFCURVE",
"110 355 CURVE SMOOTH",
"110 364 OFFCURVE",
"110 380 OFFCURVE",
"100 380 CURVE SMOOTH",
"79 380 OFFCURVE",
"33 325 OFFCURVE",
"30 322 CURVE",
"27 322 OFFCURVE",
"20 335 OFFCURVE",
"20 341 CURVE",
"31 360 OFFCURVE",
"99 435 OFFCURVE",
"146 435 CURVE SMOOTH",
"167 435 OFFCURVE",
"185 413 OFFCURVE",
"185 383 CURVE SMOOTH",
"185 375 OFFCURVE",
"182 351 OFFCURVE",
"178 330 CURVE SMOOTH",
"143 165 LINE SMOOTH",
"141 156 OFFCURVE",
"136 122 OFFCURVE",
"136 111 CURVE SMOOTH",
"136 88 OFFCURVE",
"138 68 OFFCURVE",
"155 68 CURVE SMOOTH",
"191 68 OFFCURVE",
"310 194 OFFCURVE",
"334 319 CURVE SMOOTH",
"342 362 OFFCURVE",
"347 386 OFFCURVE",
"356 429 CURVE",
"366 432 OFFCURVE",
"377 433 OFFCURVE",
"387 433 CURVE SMOOTH",
"397 433 OFFCURVE",
"414 432 OFFCURVE",
"426 429 CURVE",
"364 106 LINE SMOOTH",
"362 96 OFFCURVE",
"360 79 OFFCURVE",
"359 74 CURVE SMOOTH",
"359 65 OFFCURVE",
"359 49 OFFCURVE",
"369 49 CURVE SMOOTH",
"390 49 OFFCURVE",
"436 104 OFFCURVE",
"439 107 CURVE",
"442 107 OFFCURVE",
"449 94 OFFCURVE",
"449 88 CURVE",
"443 77 OFFCURVE",
"413 47 OFFCURVE",
"386 25 CURVE SMOOTH",
"349 -5 OFFCURVE",
"253 -88 OFFCURVE",
"253 -139 CURVE SMOOTH",
"253 -154 OFFCURVE",
"259 -171 OFFCURVE",
"284 -171 CURVE SMOOTH",
"331 -171 OFFCURVE",
"361 -133 OFFCURVE",
"367 -133 CURVE SMOOTH",
"375 -133 OFFCURVE",
"364 -160 OFFCURVE",
"361 -163 CURVE SMOOTH",
"335 -192 OFFCURVE",
"292 -230 OFFCURVE",
"250 -230 CURVE SMOOTH",
"220 -230 OFFCURVE",
"199 -207 OFFCURVE"
);
}
);
width = 490;
}
);
unicode = 0173;
userData = {
com.fontlab.hintData = {
hhints = (
{
position = -230;
width = 59;
},
{
position = -6;
width = 74;
},
{
position = 380;
width = 55;
}
);
vhints = (
{
position = 59;
width = 77;
},
{
position = 110;
width = 75;
},
{
position = 199;
width = 54;
}
);
};
};
},
{
glyphname = v;
lastChange = "2017-07-12 19:24:35 +0000";
layers = (
{
layerId = "42F082D8-1FA6-4D23-B964-75333DCE4509";
paths = (
{
closed = 1;
nodes = (
"186 65 CURVE",
"257 126 OFFCURVE",
"283 164 OFFCURVE",
"314 226 CURVE SMOOTH",
"332 262 OFFCURVE",
"339 310 OFFCURVE",
"339 333 CURVE SMOOTH",
"339 354 OFFCURVE",
"330 379 OFFCURVE",
"313 396 CURVE",
"319 413 OFFCURVE",
"336 435 OFFCURVE",
"360 435 CURVE SMOOTH",
"398 435 OFFCURVE",
"415 401 OFFCURVE",
"415 355 CURVE SMOOTH",
"415 229 OFFCURVE",
"184 -6 OFFCURVE",
"115 -6 CURVE",
"108 2 OFFCURVE",
"107 118 OFFCURVE",
"107 148 CURVE SMOOTH",
"107 355 LINE SMOOTH",
"107 364 OFFCURVE",
"107 380 OFFCURVE",
"97 380 CURVE SMOOTH",
"76 380 OFFCURVE",
"30 325 OFFCURVE",
"27 322 CURVE",
"24 322 OFFCURVE",
"17 335 OFFCURVE",
"17 341 CURVE",
"28 360 OFFCURVE",
"96 435 OFFCURVE",
"143 435 CURVE SMOOTH",
"164 435 OFFCURVE",
"182 411 OFFCURVE",
"182 381 CURVE SMOOTH",
"182 328 LINE",
"182 176 LINE SMOOTH",
"182 133 OFFCURVE",
"183 86 OFFCURVE"
);
}
);
width = 439;
}
);
unicode = 0076;
userData = {
com.fontlab.hintData = {
hhints = (
{
position = -6;
width = 21;
},
{
position = 380;
width = 55;
}
);
vhints = (
{
position = 107;
width = 75;
},
{
position = 339;
width = 76;
}
);
};
};
},
{
glyphname = w;
lastChange = "2017-07-12 19:24:35 +0000";
layers = (
{
layerId = "42F082D8-1FA6-4D23-B964-75333DCE4509";
paths = (
{
closed = 1;
nodes = (
"385 375 CURVE",
"386 334 OFFCURVE",
"388 246 OFFCURVE",
"391 183 CURVE SMOOTH",
"393 140 OFFCURVE",
"396 92 OFFCURVE",
"406 76 CURVE",
"459 122 OFFCURVE",
"490 165 OFFCURVE",
"513 229 CURVE SMOOTH",
"527 267 OFFCURVE",
"527 310 OFFCURVE",
"527 333 CURVE SMOOTH",
"527 354 OFFCURVE",
"518 379 OFFCURVE",
"501 396 CURVE",
"507 413 OFFCURVE",
"524 435 OFFCURVE",
"548 435 CURVE SMOOTH",
"586 435 OFFCURVE",
"603 401 OFFCURVE",
"603 355 CURVE SMOOTH",
"603 229 OFFCURVE",
"408 -6 OFFCURVE",
"339 -6 CURVE",
"332 2 OFFCURVE",
"320 120 OFFCURVE",
"319 150 CURVE SMOOTH",
"317 214 LINE",
"250 118 OFFCURVE",
"157 -6 OFFCURVE",
"115 -6 CURVE",
"108 2 OFFCURVE",
"107 118 OFFCURVE",
"107 148 CURVE SMOOTH",
"107 355 LINE SMOOTH",
"107 364 OFFCURVE",
"107 380 OFFCURVE",
"97 380 CURVE SMOOTH",
"76 380 OFFCURVE",
"30 325 OFFCURVE",
"27 322 CURVE",
"24 322 OFFCURVE",
"17 335 OFFCURVE",
"17 341 CURVE",
"28 360 OFFCURVE",
"96 435 OFFCURVE",
"143 435 CURVE SMOOTH",
"164 435 OFFCURVE",
"182 411 OFFCURVE",
"182 381 CURVE SMOOTH",
"182 328 LINE",
"182 176 LINE SMOOTH",
"182 133 OFFCURVE",
"183 111 OFFCURVE",
"186 90 CURVE",
"231 138 OFFCURVE",
"281 223 OFFCURVE",
"299 255 CURVE SMOOTH",
"323 299 OFFCURVE",
"333 326 OFFCURVE",
"342 347 CURVE",
"350 357 OFFCURVE",
"372 372 OFFCURVE"
);
}
);
width = 629;
}
);
unicode = 0077;
userData = {
com.fontlab.hintData = {
hhints = (
{
position = -6;
width = 21;
},
{
position = 380;
width = 55;
}
);
vhints = (
{
position = 107;
width = 75;
},
{
position = 319;
width = 72;
},
{
position = 527;
width = 76;
}
);
};
};
},
{
glyphname = x;
lastChange = "2017-07-12 19:24:35 +0000";
layers = (
{
layerId = "42F082D8-1FA6-4D23-B964-75333DCE4509";
paths = (
{
closed = 1;
nodes = (
"295 89 LINE SMOOTH",
"299 68 OFFCURVE",
"308 52 OFFCURVE",
"330 52 CURVE SMOOTH",
"347 52 OFFCURVE",
"392 93 OFFCURVE",
"403 107 CURVE",
"406 107 OFFCURVE",
"413 93 OFFCURVE",
"413 88 CURVE",
"405 74 OFFCURVE",
"335 -4 OFFCURVE",
"291 -4 CURVE SMOOTH",
"260 -4 OFFCURVE",
"233 29 OFFCURVE",
"222 82 CURVE SMOOTH",
"205 168 LINE",
"156 71 OFFCURVE",
"128 -5 OFFCURVE",
"73 -5 CURVE SMOOTH",
"59 -5 OFFCURVE",
"42 -3 OFFCURVE",
"26 7 CURVE",
"20 15 OFFCURVE",
"15 26 OFFCURVE",
"15 41 CURVE SMOOTH",
"15 65 OFFCURVE",
"29 85 OFFCURVE",
"52 85 CURVE SMOOTH",
"72 85 OFFCURVE",
"77 58 OFFCURVE",
"98 56 CURVE SMOOTH",
"113 55 OFFCURVE",
"121 67 OFFCURVE",
"128 79 CURVE SMOOTH",
"155 125 OFFCURVE",
"172 156 OFFCURVE",
"197 204 CURVE",
"169 342 LINE SMOOTH",
"165 363 OFFCURVE",
"155 380 OFFCURVE",
"137 380 CURVE SMOOTH",
"117 380 OFFCURVE",
"72 338 OFFCURVE",
"61 324 CURVE",
"58 324 OFFCURVE",
"51 338 OFFCURVE",
"51 343 CURVE",
"59 357 OFFCURVE",
"129 435 OFFCURVE",
"173 435 CURVE SMOOTH",
"204 435 OFFCURVE",
"231 403 OFFCURVE",
"242 349 CURVE SMOOTH",
"256 281 LINE",
"300 369 OFFCURVE",
"327 435 OFFCURVE",
"378 435 CURVE SMOOTH",
"392 435 OFFCURVE",
"409 433 OFFCURVE",
"425 423 CURVE",
"431 415 OFFCURVE",
"436 404 OFFCURVE",
"436 389 CURVE SMOOTH",
"436 365 OFFCURVE",
"422 345 OFFCURVE",
"399 345 CURVE SMOOTH",
"379 345 OFFCURVE",
"374 372 OFFCURVE",
"353 374 CURVE SMOOTH",
"338 375 OFFCURVE",
"330 363 OFFCURVE",
"323 351 CURVE SMOOTH",
"300 311 OFFCURVE",
"283 283 OFFCURVE",
"263 244 CURVE"
);
}
);
width = 482;
}
);
unicode = 0078;
userData = {
com.fontlab.hintData = {
hhints = (
{
position = -5;
width = 90;
},
{
position = -4;
width = 56;
},
{
position = 345;
width = 90;
},
{
position = 380;
width = 55;
}
);
};
};
},
{
glyphname = y;
lastChange = "2017-07-12 19:24:35 +0000";
layers = (
{
layerId = "42F082D8-1FA6-4D23-B964-75333DCE4509";
paths = (
{
closed = 1;
nodes = (
"132 435 CURVE SMOOTH",
"218 435 OFFCURVE",
"221 76 OFFCURVE",
"221 15 CURVE",
"257 59 OFFCURVE",
"336 176 OFFCURVE",
"336 285 CURVE SMOOTH",
"336 346 OFFCURVE",
"322 371 OFFCURVE",
"311 392 CURVE",
"319 418 OFFCURVE",
"337 435 OFFCURVE",
"361 435 CURVE SMOOTH",
"403 435 OFFCURVE",
"405 378 OFFCURVE",
"405 356 CURVE SMOOTH",
"405 122 OFFCURVE",
"84 -233 OFFCURVE",
"-51 -233 CURVE SMOOTH",
"-87 -233 OFFCURVE",
"-111 -214 OFFCURVE",
"-111 -192 CURVE SMOOTH",
"-111 -175 OFFCURVE",
"-103 -156 OFFCURVE",
"-88 -148 CURVE",
"-73 -157 OFFCURVE",
"-30 -167 OFFCURVE",
"-8 -167 CURVE SMOOTH",
"54 -167 OFFCURVE",
"95 -132 OFFCURVE",
"128 -84 CURVE SMOOTH",
"151 -50 OFFCURVE",
"146 19 OFFCURVE",
"146 62 CURVE SMOOTH",
"146 176 OFFCURVE",
"135 380 OFFCURVE",
"86 380 CURVE SMOOTH",
"65 380 OFFCURVE",
"19 325 OFFCURVE",
"16 322 CURVE",
"13 322 OFFCURVE",
"6 335 OFFCURVE",
"6 341 CURVE",
"17 360 OFFCURVE",
"85 435 OFFCURVE"
);
}
);
width = 447;
}
);
unicode = 0079;
userData = {
com.fontlab.hintData = {
hhints = (
{
position = -233;
width = 66;
},
{
position = 380;
width = 55;
}
);
vhints = (
{
position = 146;
width = 75;
},
{
position = 336;
width = 69;
}
);
};
};
},
{
glyphname = z;
lastChange = "2017-07-12 19:24:35 +0000";
layers = (
{
layerId = "42F082D8-1FA6-4D23-B964-75333DCE4509";
paths = (
{
closed = 1;
nodes = (
"145 435 CURVE SMOOTH",
"174 435 OFFCURVE",
"197 424 OFFCURVE",
"222 415 CURVE SMOOTH",
"239 409 OFFCURVE",
"257 404 OFFCURVE",
"278 404 CURVE SMOOTH",
"315 404 OFFCURVE",
"360 435 OFFCURVE",
"368 435 CURVE",
"376 431 OFFCURVE",
"379 422 OFFCURVE",
"379 415 CURVE SMOOTH",
"379 401 OFFCURVE",
"95 96 OFFCURVE",
"92 92 CURVE",
"96 94 OFFCURVE",
"116 103 OFFCURVE",
"138 103 CURVE SMOOTH",
"160 103 OFFCURVE",
"181 95 OFFCURVE",
"200 86 CURVE SMOOTH",
"219 78 OFFCURVE",
"237 69 OFFCURVE",
"253 69 CURVE SMOOTH",
"279 69 OFFCURVE",
"305 127 OFFCURVE",
"311 136 CURVE",
"320 136 OFFCURVE",
"322 128 OFFCURVE",
"323 120 CURVE",
"306 82 OFFCURVE",
"265 0 OFFCURVE",
"218 0 CURVE SMOOTH",
"194 0 OFFCURVE",
"164 12 OFFCURVE",
"138 22 CURVE SMOOTH",
"122 28 OFFCURVE",
"90 32 OFFCURVE",
"67 32 CURVE SMOOTH",
"38 32 OFFCURVE",
"21 10 OFFCURVE",
"1 0 CURVE",
"-5 2 OFFCURVE",
"-9 10 OFFCURVE",
"-10 19 CURVE",
"-10 34 OFFCURVE",
"290 349 OFFCURVE",
"292 353 CURVE",
"289 351 OFFCURVE",
"262 332 OFFCURVE",
"229 332 CURVE SMOOTH",
"207 332 OFFCURVE",
"187 341 OFFCURVE",
"168 349 CURVE SMOOTH",
"149 358 OFFCURVE",
"131 366 OFFCURVE",
"114 366 CURVE SMOOTH",
"86 366 OFFCURVE",
"61 307 OFFCURVE",
"55 298 CURVE",
"48 298 OFFCURVE",
"44 305 OFFCURVE",
"43 314 CURVE",
"49 334 OFFCURVE",
"99 435 OFFCURVE"
);
}
);
width = 387;
}
);
unicode = 007A;
userData = {
com.fontlab.hintData = {
hhints = (
{
position = 0;
width = 69;
},
{
position = 32;
width = 71;
},
{
position = 332;
width = 72;
},
{
position = 366;
width = 69;
}
);
vhints = (
{
position = 43;
width = 12;
}
);
};
};
},
{
glyphname = f.short;
lastChange = "2017-07-12 19:24:35 +0000";
layers = (
{
layerId = "42F082D8-1FA6-4D23-B964-75333DCE4509";
paths = (
{
closed = 1;
nodes = (
"287 694 CURVE SMOOTH",
"331 694 OFFCURVE",
"359 678 OFFCURVE",
"371 665 CURVE",
"375 644 OFFCURVE",
"364 600 OFFCURVE",
"335 600 CURVE SMOOTH",
"300 600 OFFCURVE",
"302 661 OFFCURVE",
"265 661 CURVE SMOOTH",
"232 661 OFFCURVE",
"215 579 OFFCURVE",
"187 413 CURVE",
"187 411 LINE SMOOTH",
"187 409 OFFCURVE",
"188 407 OFFCURVE",
"190 407 CURVE SMOOTH",
"282 407 LINE SMOOTH",
"286 407 OFFCURVE",
"287 400 OFFCURVE",
"287 395 CURVE SMOOTH",
"287 381 OFFCURVE",
"281 369 OFFCURVE",
"276 361 CURVE",
"182 361 LINE SMOOTH",
"179 361 OFFCURVE",
"177 361 OFFCURVE",
"176 353 CURVE SMOOTH",
"121 54 LINE",
"87 -142 OFFCURVE",
"24 -231 OFFCURVE",
"-63 -231 CURVE SMOOTH",
"-114 -231 OFFCURVE",
"-138 -207 OFFCURVE",
"-144 -190 CURVE",
"-145 -160 OFFCURVE",
"-127 -131 OFFCURVE",
"-103 -131 CURVE SMOOTH",
"-76 -131 OFFCURVE",
"-79 -192 OFFCURVE",
"-29 -192 CURVE SMOOTH",
"7 -192 OFFCURVE",
"39 -22 OFFCURVE",
"46 15 CURVE SMOOTH",
"106 354 LINE",
"106 356 LINE SMOOTH",
"106 359 OFFCURVE",
"105 361 OFFCURVE",
"103 361 CURVE SMOOTH",
"38 361 LINE SMOOTH",
"37 361 OFFCURVE",
"36 362 OFFCURVE",
"36 364 CURVE SMOOTH",
"36 374 OFFCURVE",
"61 407 OFFCURVE",
"84 407 CURVE SMOOTH",
"113 407 LINE SMOOTH",
"116 407 OFFCURVE",
"118 412 OFFCURVE",
"119 416 CURVE SMOOTH",
"144 544 OFFCURVE",
"180 694 OFFCURVE"
);
}
);
width = 277;
}
);
userData = {
com.fontlab.hintData = {
hhints = (
{
position = -231;
width = 39;
},
{
position = 361;
width = 46;
},
{
position = 661;
width = 33;
}
);
};
};
},
{
glyphname = T_h;
lastChange = "2017-07-12 19:24:35 +0000";
layers = (
{
layerId = "42F082D8-1FA6-4D23-B964-75333DCE4509";
paths = (
{
closed = 1;
nodes = (
"638 530 LINE SMOOTH",
"639 536 OFFCURVE",
"640 539 OFFCURVE",
"640 543 CURVE SMOOTH",
"640 614 OFFCURVE",
"630 615 OFFCURVE",
"512 615 CURVE SMOOTH",
"453 615 OFFCURVE",
"411 610 OFFCURVE",
"406 600 CURVE SMOOTH",
"393 572 OFFCURVE",
"386 540 OFFCURVE",
"378 500 CURVE SMOOTH",
"308 139 LINE SMOOTH",
"301 104 OFFCURVE",
"297 78 OFFCURVE",
"297 49 CURVE SMOOTH",
"297 30 OFFCURVE",
"351 24 OFFCURVE",
"351 24 CURVE SMOOTH",
"352 24 OFFCURVE",
"353 22 OFFCURVE",
"353 20 CURVE SMOOTH",
"353 14 OFFCURVE",
"349 1 OFFCURVE",
"347 -3 CURVE",
"310 -1 OFFCURVE",
"284 2 OFFCURVE",
"243 2 CURVE SMOOTH",
"200 2 OFFCURVE",
"176 -1 OFFCURVE",
"133 -3 CURVE",
"132 -2 OFFCURVE",
"131 2 OFFCURVE",
"131 5 CURVE SMOOTH",
"131 13 OFFCURVE",
"134 24 OFFCURVE",
"138 24 CURVE SMOOTH",
"149 24 OFFCURVE",
"196 33 OFFCURVE",
"202 46 CURVE SMOOTH",
"214 74 OFFCURVE",
"221 104 OFFCURVE",
"228 142 CURVE SMOOTH",
"297 497 LINE SMOOTH",
"304 534 OFFCURVE",
"310 563 OFFCURVE",
"310 594 CURVE SMOOTH",
"310 604 OFFCURVE",
"314 615 OFFCURVE",
"211 615 CURVE SMOOTH",
"139 615 OFFCURVE",
"122 599 OFFCURVE",
"89 526 CURVE SMOOTH",
"87 522 OFFCURVE",
"84 521 OFFCURVE",
"79 521 CURVE SMOOTH",
"71 521 OFFCURVE",
"62 525 OFFCURVE",
"59 528 CURVE",
"103 671 LINE",
"117 667 OFFCURVE",
"153 660 OFFCURVE",
"166 660 CURVE SMOOTH",
"249 659 OFFCURVE",
"293 654 OFFCURVE",
"368 654 CURVE SMOOTH",
"443 654 OFFCURVE",
"484 658 OFFCURVE",
"556 660 CURVE SMOOTH",
"646 662 OFFCURVE",
"734 694 OFFCURVE",
"745 694 CURVE SMOOTH",
"750 694 OFFCURVE",
"750 682 OFFCURVE",
"750 678 CURVE",
"750 678 OFFCURVE",
"731 646 OFFCURVE",
"720 591 CURVE SMOOTH",
"669 330 LINE",
"651 238 LINE",
"664 263 OFFCURVE",
"784 435 OFFCURVE",
"850 435 CURVE SMOOTH",
"889 435 OFFCURVE",
"905 407 OFFCURVE",
"905 369 CURVE SMOOTH",
"905 335 OFFCURVE",
"899 298 OFFCURVE",
"891 260 CURVE SMOOTH",
"858 106 LINE SMOOTH",
"857 102 OFFCURVE",
"854 79 OFFCURVE",
"854 74 CURVE SMOOTH",
"854 65 OFFCURVE",
"854 49 OFFCURVE",
"864 49 CURVE SMOOTH",
"885 49 OFFCURVE",
"931 104 OFFCURVE",
"934 107 CURVE",
"937 107 OFFCURVE",
"944 94 OFFCURVE",
"944 88 CURVE",
"933 69 OFFCURVE",
"860 -6 OFFCURVE",
"813 -6 CURVE SMOOTH",
"791 -6 OFFCURVE",
"779 16 OFFCURVE",
"779 46 CURVE SMOOTH",
"779 54 OFFCURVE",
"781 78 OFFCURVE",
"786 99 CURVE SMOOTH",
"821 264 LINE SMOOTH",
"823 273 OFFCURVE",
"828 307 OFFCURVE",
"828 318 CURVE SMOOTH",
"828 341 OFFCURVE",
"826 361 OFFCURVE",
"809 361 CURVE SMOOTH",
"773 361 OFFCURVE",
"653 236 OFFCURVE",
"630 119 CURVE SMOOTH",
"624 88 OFFCURVE",
"615 46 OFFCURVE",
"605 0 CURVE",
"595 -3 OFFCURVE",
"579 -4 OFFCURVE",
"569 -4 CURVE SMOOTH",
"559 -4 OFFCURVE",
"547 -3 OFFCURVE",
"535 0 CURVE"
);
}
);
width = 983;
}
);
userData = {
com.fontlab.hintData = {
hhints = (
{
position = -6;
width = 55;
},
{
position = 2;
width = 22;
},
{
position = 361;
width = 74;
},
{
position = 615;
width = 45;
},
{
position = 674;
width = 20;
}
);
vhints = (
{
position = 59;
width = 30;
},
{
position = 131;
width = 166;
},
{
position = 779;
width = 75;
},
{
position = 828;
width = 77;
}
);
};
};
},
{
glyphname = f_b;
lastChange = "2017-07-12 19:24:35 +0000";
layers = (
{
layerId = "42F082D8-1FA6-4D23-B964-75333DCE4509";
paths = (
{
closed = 1;
nodes = (
"562 380 CURVE SMOOTH",
"519 380 OFFCURVE",
"426 266 OFFCURVE",
"405 156 CURVE SMOOTH",
"389 75 OFFCURVE",
"404 27 OFFCURVE",
"451 27 CURVE SMOOTH",
"535 27 OFFCURVE",
"601 221 OFFCURVE",
"601 302 CURVE SMOOTH",
"601 339 OFFCURVE",
"597 380 OFFCURVE"
);
},
{
closed = 1;
nodes = (
"415 559 LINE SMOOTH",
"416 564 OFFCURVE",
"420 585 OFFCURVE",
"420 589 CURVE SMOOTH",
"420 632 OFFCURVE",
"376 661 OFFCURVE",
"329 661 CURVE SMOOTH",
"263 661 OFFCURVE",
"215 579 OFFCURVE",
"187 413 CURVE",
"187 411 LINE SMOOTH",
"187 409 OFFCURVE",
"189 407 OFFCURVE",
"190 407 CURVE SMOOTH",
"305 407 LINE SMOOTH",
"309 407 OFFCURVE",
"310 400 OFFCURVE",
"310 395 CURVE SMOOTH",
"310 381 OFFCURVE",
"304 369 OFFCURVE",
"299 361 CURVE",
"182 361 LINE SMOOTH",
"180 361 OFFCURVE",
"177 361 OFFCURVE",
"176 353 CURVE SMOOTH",
"121 54 LINE",
"87 -142 OFFCURVE",
"-8 -231 OFFCURVE",
"-95 -231 CURVE SMOOTH",
"-146 -231 OFFCURVE",
"-170 -207 OFFCURVE",
"-176 -190 CURVE",
"-177 -160 OFFCURVE",
"-159 -131 OFFCURVE",
"-135 -131 CURVE SMOOTH",
"-108 -131 OFFCURVE",
"-103 -192 OFFCURVE",
"-61 -192 CURVE SMOOTH",
"-6 -192 OFFCURVE",
"36 -42 OFFCURVE",
"46 15 CURVE SMOOTH",
"106 354 LINE",
"106 356 LINE SMOOTH",
"106 359 OFFCURVE",
"105 361 OFFCURVE",
"103 361 CURVE SMOOTH",
"38 361 LINE SMOOTH",
"37 361 OFFCURVE",
"36 362 OFFCURVE",
"36 364 CURVE SMOOTH",
"36 374 OFFCURVE",
"61 407 OFFCURVE",
"84 407 CURVE SMOOTH",
"113 407 LINE SMOOTH",
"116 407 OFFCURVE",
"118 412 OFFCURVE",
"119 416 CURVE SMOOTH",
"146 582 OFFCURVE",
"247 699 OFFCURVE",
"347 699 CURVE SMOOTH",
"401 699 OFFCURVE",
"430 678 OFFCURVE",
"442 678 CURVE SMOOTH",
"464 678 OFFCURVE",
"505 694 OFFCURVE",
"515 694 CURVE SMOOTH",
"520 694 OFFCURVE",
"520 682 OFFCURVE",
"520 678 CURVE",
"520 678 OFFCURVE",
"503 645 OFFCURVE",
"492 591 CURVE SMOOTH",
"430 285 LINE",
"500 402 OFFCURVE",
"573 435 OFFCURVE",
"605 435 CURVE SMOOTH",
"651 435 OFFCURVE",
"675 391 OFFCURVE",
"675 322 CURVE SMOOTH",
"675 142 OFFCURVE",
"530 -6 OFFCURVE",
"423 -6 CURVE SMOOTH",
"367 -6 OFFCURVE",
"330 37 OFFCURVE",
"330 111 CURVE SMOOTH",
"330 121 OFFCURVE",
"334 146 OFFCURVE",
"336 158 CURVE SMOOTH"
);
}
);
width = 723;
}
);
userData = {
com.fontlab.hintData = {
hhints = (
{
position = -231;
width = 39;
},
{
position = -6;
width = 33;
},
{
position = 361;
width = 46;
},
{
position = 380;
width = 55;
},
{
position = 661;
width = 38;
},
{
position = 674;
width = 20;
}
);
vhints = (
{
position = 601;
width = 74;
}
);
};
};
},
{
glyphname = f_f;
lastChange = "2017-07-12 19:24:35 +0000";
layers = (
{
layerId = "42F082D8-1FA6-4D23-B964-75333DCE4509";
paths = (
{
closed = 1;
nodes = (
"371 683 CURVE SMOOTH",
"425 683 OFFCURVE",
"467 666 OFFCURVE",
"481 653 CURVE",
"505 676 OFFCURVE",
"563 699 OFFCURVE",
"603 699 CURVE SMOOTH",
"657 699 OFFCURVE",
"677 680 OFFCURVE",
"685 665 CURVE",
"685 633 OFFCURVE",
"678 600 OFFCURVE",
"649 600 CURVE SMOOTH",
"616 600 OFFCURVE",
"605 661 OFFCURVE",
"572 661 CURVE SMOOTH",
"485 661 OFFCURVE",
"447 438 OFFCURVE",
"443 413 CURVE",
"443 411 LINE SMOOTH",
"443 409 OFFCURVE",
"444 407 OFFCURVE",
"446 407 CURVE SMOOTH",
"561 407 LINE SMOOTH",
"565 407 OFFCURVE",
"566 400 OFFCURVE",
"566 395 CURVE SMOOTH",
"566 381 OFFCURVE",
"560 369 OFFCURVE",
"555 361 CURVE",
"438 361 LINE SMOOTH",
"435 361 OFFCURVE",
"433 361 OFFCURVE",
"432 353 CURVE SMOOTH",
"389 106 LINE",
"341 -140 OFFCURVE",
"190 -224 OFFCURVE",
"125 -224 CURVE SMOOTH",
"71 -224 OFFCURVE",
"39 -189 OFFCURVE",
"29 -175 CURVE",
"-6 -215 OFFCURVE",
"-53 -233 OFFCURVE",
"-93 -233 CURVE SMOOTH",
"-147 -233 OFFCURVE",
"-168 -206 OFFCURVE",
"-176 -191 CURVE",
"-176 -166 OFFCURVE",
"-165 -131 OFFCURVE",
"-136 -131 CURVE SMOOTH",
"-103 -131 OFFCURVE",
"-106 -192 OFFCURVE",
"-63 -192 CURVE SMOOTH",
"-18 -192 OFFCURVE",
"33 -73 OFFCURVE",
"44 -10 CURVE SMOOTH",
"48 12 OFFCURVE",
"49 21 OFFCURVE",
"53 46 CURVE SMOOTH",
"106 354 LINE",
"106 356 LINE SMOOTH",
"106 359 OFFCURVE",
"105 361 OFFCURVE",
"103 361 CURVE SMOOTH",
"38 361 LINE SMOOTH",
"37 361 OFFCURVE",
"36 362 OFFCURVE",
"36 364 CURVE SMOOTH",
"36 374 OFFCURVE",
"61 407 OFFCURVE",
"84 407 CURVE SMOOTH",
"113 407 LINE SMOOTH",
"116 407 OFFCURVE",
"118 412 OFFCURVE",
"119 416 CURVE SMOOTH",
"151 580 OFFCURVE",
"277 683 OFFCURVE"
);
},
{
closed = 1;
nodes = (
"153 -165 CURVE SMOOTH",
"230 -165 OFFCURVE",
"277 -102 OFFCURVE",
"311 60 CURVE",
"362 354 LINE",
"362 356 LINE SMOOTH",
"362 359 OFFCURVE",
"361 361 OFFCURVE",
"359 361 CURVE SMOOTH",
"182 361 LINE SMOOTH",
"179 361 OFFCURVE",
"177 361 OFFCURVE",
"176 353 CURVE SMOOTH",
"121 43 LINE SMOOTH",
"109 -19 OFFCURVE",
"98 -59 OFFCURVE",
"76 -103 CURVE SMOOTH",
"75 -104 OFFCURVE",
"75 -106 OFFCURVE",
"75 -108 CURVE SMOOTH",
"75 -111 OFFCURVE",
"76 -115 OFFCURVE",
"76 -116 CURVE SMOOTH",
"80 -136 OFFCURVE",
"110 -165 OFFCURVE"
);
},
{
closed = 1;
nodes = (
"350 645 CURVE SMOOTH",
"273 645 OFFCURVE",
"216 561 OFFCURVE",
"194 454 CURVE SMOOTH",
"190 432 OFFCURVE",
"191 438 OFFCURVE",
"187 413 CURVE",
"187 411 LINE SMOOTH",
"187 409 OFFCURVE",
"188 407 OFFCURVE",
"191 407 CURVE SMOOTH",
"369 407 LINE SMOOTH",
"372 407 OFFCURVE",
"374 412 OFFCURVE",
"375 416 CURVE SMOOTH",
"387 478 OFFCURVE",
"412 551 OFFCURVE",
"430 584 CURVE SMOOTH",
"431 585 OFFCURVE",
"431 587 OFFCURVE",
"431 589 CURVE SMOOTH",
"431 592 OFFCURVE",
"430 596 OFFCURVE",
"430 597 CURVE SMOOTH",
"426 617 OFFCURVE",
"393 645 OFFCURVE"
);
}
);
width = 554;
}
);
userData = {
com.fontlab.hintData = {
hhints = (
{
position = -233;
width = 41;
},
{
position = -224;
width = 59;
},
{
position = 361;
width = 46;
},
{
position = 645;
width = 38;
},
{
position = 661;
width = 38;
}
);
};
};
},
{
glyphname = f_f_b;
lastChange = "2017-07-12 19:24:35 +0000";
layers = (
{
layerId = "42F082D8-1FA6-4D23-B964-75333DCE4509";
paths = (
{
closed = 1;
nodes = (
"822 380 CURVE SMOOTH",
"779 380 OFFCURVE",
"686 266 OFFCURVE",
"665 156 CURVE SMOOTH",
"649 75 OFFCURVE",
"664 27 OFFCURVE",
"711 27 CURVE SMOOTH",
"795 27 OFFCURVE",
"861 221 OFFCURVE",
"861 302 CURVE SMOOTH",
"861 339 OFFCURVE",
"857 380 OFFCURVE"
);
},
{
closed = 1;
nodes = (
"681 589 CURVE SMOOTH",
"680 632 OFFCURVE",
"637 661 OFFCURVE",
"590 661 CURVE SMOOTH",
"524 661 OFFCURVE",
"476 579 OFFCURVE",
"448 413 CURVE",
"448 411 LINE SMOOTH",
"448 409 OFFCURVE",
"450 407 OFFCURVE",
"451 407 CURVE SMOOTH",
"566 407 LINE SMOOTH",
"570 407 OFFCURVE",
"571 400 OFFCURVE",
"571 395 CURVE SMOOTH",
"571 381 OFFCURVE",
"565 369 OFFCURVE",
"560 361 CURVE",
"443 361 LINE SMOOTH",
"441 361 OFFCURVE",
"439 361 OFFCURVE",
"437 353 CURVE SMOOTH",
"389 106 LINE SMOOTH",
"342 -140 OFFCURVE",
"190 -224 OFFCURVE",
"125 -224 CURVE SMOOTH",
"71 -224 OFFCURVE",
"39 -189 OFFCURVE",
"29 -175 CURVE",
"-6 -215 OFFCURVE",
"-53 -233 OFFCURVE",
"-93 -233 CURVE SMOOTH",
"-147 -233 OFFCURVE",
"-168 -206 OFFCURVE",
"-176 -191 CURVE",
"-176 -166 OFFCURVE",
"-165 -131 OFFCURVE",
"-136 -131 CURVE SMOOTH",
"-103 -131 OFFCURVE",
"-106 -192 OFFCURVE",
"-63 -192 CURVE SMOOTH",
"-18 -192 OFFCURVE",
"33 -73 OFFCURVE",
"44 -10 CURVE SMOOTH",
"48 12 OFFCURVE",
"49 21 OFFCURVE",
"53 46 CURVE SMOOTH",
"106 354 LINE",
"106 356 LINE SMOOTH",
"106 359 OFFCURVE",
"105 361 OFFCURVE",
"103 361 CURVE SMOOTH",
"38 361 LINE SMOOTH",
"37 361 OFFCURVE",
"36 362 OFFCURVE",
"36 364 CURVE SMOOTH",
"36 374 OFFCURVE",
"61 407 OFFCURVE",
"84 407 CURVE SMOOTH",
"113 407 LINE SMOOTH",
"116 407 OFFCURVE",
"118 412 OFFCURVE",
"119 416 CURVE SMOOTH",
"151 580 OFFCURVE",
"277 683 OFFCURVE",
"371 683 CURVE SMOOTH",
"425 683 OFFCURVE",
"467 666 OFFCURVE",
"481 653 CURVE",
"505 676 OFFCURVE",
"569 699 OFFCURVE",
"608 699 CURVE SMOOTH",
"662 699 OFFCURVE",
"691 678 OFFCURVE",
"703 678 CURVE SMOOTH",
"725 678 OFFCURVE",
"766 694 OFFCURVE",
"776 694 CURVE SMOOTH",
"781 694 OFFCURVE",
"781 682 OFFCURVE",
"781 678 CURVE",
"781 678 OFFCURVE",
"763 646 OFFCURVE",
"752 591 CURVE SMOOTH",
"690 285 LINE",
"760 402 OFFCURVE",
"833 435 OFFCURVE",
"865 435 CURVE SMOOTH",
"911 435 OFFCURVE",
"935 391 OFFCURVE",
"935 322 CURVE SMOOTH",
"935 142 OFFCURVE",
"790 -6 OFFCURVE",
"683 -6 CURVE SMOOTH",
"627 -6 OFFCURVE",
"590 37 OFFCURVE",
"590 111 CURVE SMOOTH",
"590 121 OFFCURVE",
"594 146 OFFCURVE",
"596 158 CURVE SMOOTH",
"675 559 LINE SMOOTH",
"676 564 OFFCURVE",
"680 585 OFFCURVE"
);
},
{
closed = 1;
nodes = (
"136 -177 CURVE SMOOTH",
"194 -177 OFFCURVE",
"277 -102 OFFCURVE",
"311 60 CURVE",
"362 354 LINE",
"362 356 LINE SMOOTH",
"362 359 OFFCURVE",
"361 361 OFFCURVE",
"359 361 CURVE SMOOTH",
"182 361 LINE SMOOTH",
"179 361 OFFCURVE",
"177 361 OFFCURVE",
"176 353 CURVE SMOOTH",
"121 43 LINE SMOOTH",
"109 -19 OFFCURVE",
"98 -59 OFFCURVE",
"76 -103 CURVE SMOOTH",
"75 -104 OFFCURVE",
"75 -106 OFFCURVE",
"75 -108 CURVE SMOOTH",
"75 -111 OFFCURVE",
"76 -115 OFFCURVE",
"76 -116 CURVE SMOOTH",
"80 -136 OFFCURVE",
"93 -177 OFFCURVE"
);
},
{
closed = 1;
nodes = (
"350 645 CURVE SMOOTH",
"273 645 OFFCURVE",
"216 561 OFFCURVE",
"194 454 CURVE SMOOTH",
"190 432 OFFCURVE",
"191 438 OFFCURVE",
"187 413 CURVE",
"187 411 LINE SMOOTH",
"187 409 OFFCURVE",
"188 407 OFFCURVE",
"191 407 CURVE SMOOTH",
"369 407 LINE SMOOTH",
"372 407 OFFCURVE",
"374 412 OFFCURVE",
"375 416 CURVE SMOOTH",
"387 478 OFFCURVE",
"412 551 OFFCURVE",
"430 584 CURVE SMOOTH",
"431 585 OFFCURVE",
"431 587 OFFCURVE",
"431 589 CURVE SMOOTH",
"431 592 OFFCURVE",
"430 596 OFFCURVE",
"430 597 CURVE SMOOTH",
"426 617 OFFCURVE",
"393 645 OFFCURVE"
);
}
);
width = 985;
}
);
userData = {
com.fontlab.hintData = {
hhints = (
{
position = -233;
width = 41;
},
{
position = -224;
width = 47;
},
{
position = -6;
width = 33;
},
{
position = 361;
width = 46;
},
{
position = 380;
width = 55;
},
{
position = 645;
width = 38;
},
{
position = 661;
width = 38;
},
{
position = 674;
width = 20;
}
);
vhints = (
{
position = 861;
width = 74;
}
);
};
};
},
{
glyphname = f_f_h;
lastChange = "2017-07-12 19:24:35 +0000";
layers = (
{
layerId = "42F082D8-1FA6-4D23-B964-75333DCE4509";
paths = (
{
closed = 1;
nodes = (
"703 678 CURVE SMOOTH",
"725 678 OFFCURVE",
"772 694 OFFCURVE",
"782 694 CURVE SMOOTH",
"787 694 OFFCURVE",
"787 682 OFFCURVE",
"787 678 CURVE",
"787 678 OFFCURVE",
"767 646 OFFCURVE",
"756 591 CURVE SMOOTH",
"705 330 LINE",
"687 238 LINE",
"700 263 OFFCURVE",
"820 435 OFFCURVE",
"886 435 CURVE SMOOTH",
"925 435 OFFCURVE",
"941 407 OFFCURVE",
"941 369 CURVE SMOOTH",
"941 335 OFFCURVE",
"935 298 OFFCURVE",
"927 260 CURVE SMOOTH",
"894 106 LINE SMOOTH",
"893 102 OFFCURVE",
"890 79 OFFCURVE",
"890 74 CURVE SMOOTH",
"890 65 OFFCURVE",
"890 49 OFFCURVE",
"900 49 CURVE SMOOTH",
"921 49 OFFCURVE",
"967 104 OFFCURVE",
"970 107 CURVE",
"973 107 OFFCURVE",
"980 94 OFFCURVE",
"980 88 CURVE",
"969 69 OFFCURVE",
"896 -6 OFFCURVE",
"849 -6 CURVE SMOOTH",
"827 -6 OFFCURVE",
"815 16 OFFCURVE",
"815 46 CURVE SMOOTH",
"815 54 OFFCURVE",
"817 78 OFFCURVE",
"822 99 CURVE SMOOTH",
"857 264 LINE SMOOTH",
"859 273 OFFCURVE",
"864 307 OFFCURVE",
"864 318 CURVE SMOOTH",
"864 341 OFFCURVE",
"862 361 OFFCURVE",
"845 361 CURVE SMOOTH",
"809 361 OFFCURVE",
"689 236 OFFCURVE",
"666 119 CURVE SMOOTH",
"660 88 OFFCURVE",
"651 46 OFFCURVE",
"641 0 CURVE",
"631 -3 OFFCURVE",
"615 -4 OFFCURVE",
"605 -4 CURVE SMOOTH",
"595 -4 OFFCURVE",
"583 -3 OFFCURVE",
"571 0 CURVE",
"679 559 LINE SMOOTH",
"680 564 OFFCURVE",
"683 585 OFFCURVE",
"683 589 CURVE SMOOTH",
"683 632 OFFCURVE",
"637 661 OFFCURVE",
"590 661 CURVE SMOOTH",
"524 661 OFFCURVE",
"476 579 OFFCURVE",
"448 413 CURVE",
"448 411 LINE SMOOTH",
"448 409 OFFCURVE",
"450 407 OFFCURVE",
"451 407 CURVE SMOOTH",
"566 407 LINE SMOOTH",
"570 407 OFFCURVE",
"571 400 OFFCURVE",
"571 395 CURVE SMOOTH",
"571 381 OFFCURVE",
"565 369 OFFCURVE",
"560 361 CURVE",
"443 361 LINE SMOOTH",
"441 361 OFFCURVE",
"439 361 OFFCURVE",
"437 353 CURVE SMOOTH",
"389 106 LINE SMOOTH",
"342 -140 OFFCURVE",
"190 -224 OFFCURVE",
"125 -224 CURVE SMOOTH",
"71 -224 OFFCURVE",
"39 -189 OFFCURVE",
"29 -175 CURVE",
"-6 -215 OFFCURVE",
"-53 -233 OFFCURVE",
"-93 -233 CURVE SMOOTH",
"-147 -233 OFFCURVE",
"-168 -206 OFFCURVE",
"-176 -191 CURVE",
"-176 -166 OFFCURVE",
"-165 -131 OFFCURVE",
"-136 -131 CURVE SMOOTH",
"-103 -131 OFFCURVE",
"-106 -192 OFFCURVE",
"-63 -192 CURVE SMOOTH",
"-18 -192 OFFCURVE",
"33 -73 OFFCURVE",
"44 -10 CURVE SMOOTH",
"48 12 OFFCURVE",
"49 21 OFFCURVE",
"53 46 CURVE SMOOTH",
"106 354 LINE",
"106 356 LINE SMOOTH",
"106 359 OFFCURVE",
"105 361 OFFCURVE",
"103 361 CURVE SMOOTH",
"38 361 LINE SMOOTH",
"37 361 OFFCURVE",
"36 362 OFFCURVE",
"36 364 CURVE SMOOTH",
"36 374 OFFCURVE",
"61 407 OFFCURVE",
"84 407 CURVE SMOOTH",
"113 407 LINE SMOOTH",
"116 407 OFFCURVE",
"118 412 OFFCURVE",
"119 416 CURVE SMOOTH",
"151 580 OFFCURVE",
"277 683 OFFCURVE",
"371 683 CURVE SMOOTH",
"425 683 OFFCURVE",
"467 666 OFFCURVE",
"481 653 CURVE",
"505 676 OFFCURVE",
"569 699 OFFCURVE",
"608 699 CURVE SMOOTH",
"662 699 OFFCURVE",
"691 678 OFFCURVE"
);
},
{
closed = 1;
nodes = (
"136 -177 CURVE SMOOTH",
"194 -177 OFFCURVE",
"277 -102 OFFCURVE",
"311 60 CURVE",
"362 354 LINE",
"362 356 LINE SMOOTH",
"362 359 OFFCURVE",
"361 361 OFFCURVE",
"359 361 CURVE SMOOTH",
"182 361 LINE SMOOTH",
"179 361 OFFCURVE",
"177 361 OFFCURVE",
"176 353 CURVE SMOOTH",
"121 43 LINE SMOOTH",
"109 -19 OFFCURVE",
"98 -59 OFFCURVE",
"76 -103 CURVE SMOOTH",
"75 -104 OFFCURVE",
"75 -106 OFFCURVE",
"75 -108 CURVE SMOOTH",
"75 -111 OFFCURVE",
"76 -115 OFFCURVE",
"76 -116 CURVE SMOOTH",
"80 -136 OFFCURVE",
"93 -177 OFFCURVE"
);
},
{
closed = 1;
nodes = (
"350 645 CURVE SMOOTH",
"273 645 OFFCURVE",
"216 561 OFFCURVE",
"194 454 CURVE SMOOTH",
"190 432 OFFCURVE",
"191 438 OFFCURVE",
"187 413 CURVE",
"187 411 LINE SMOOTH",
"187 409 OFFCURVE",
"188 407 OFFCURVE",
"191 407 CURVE SMOOTH",
"369 407 LINE SMOOTH",
"372 407 OFFCURVE",
"374 412 OFFCURVE",
"375 416 CURVE SMOOTH",
"387 478 OFFCURVE",
"412 551 OFFCURVE",
"430 584 CURVE SMOOTH",
"431 585 OFFCURVE",
"431 587 OFFCURVE",
"431 589 CURVE SMOOTH",
"431 592 OFFCURVE",
"430 596 OFFCURVE",
"430 597 CURVE SMOOTH",
"426 617 OFFCURVE",
"393 645 OFFCURVE"
);
}
);
width = 1013;
}
);
userData = {
com.fontlab.hintData = {
hhints = (
{
position = -233;
width = 41;
},
{
position = -224;
width = 47;
},
{
position = -6;
width = 55;
},
{
position = 361;
width = 74;
},
{
position = 361;
width = 46;
},
{
position = 645;
width = 38;
},
{
position = 661;
width = 38;
},
{
position = 674;
width = 20;
}
);
vhints = (
{
position = 815;
width = 75;
},
{
position = 864;
width = 77;
}
);
};
};
},
{
glyphname = f_f_i;
lastChange = "2017-07-12 19:24:35 +0000";
layers = (
{
layerId = "42F082D8-1FA6-4D23-B964-75333DCE4509";
paths = (
{
closed = 1;
nodes = (
"590 366 CURVE SMOOTH",
"438 361 LINE SMOOTH",
"435 361 OFFCURVE",
"433 361 OFFCURVE",
"432 353 CURVE SMOOTH",
"389 106 LINE",
"341 -140 OFFCURVE",
"190 -224 OFFCURVE",
"125 -224 CURVE SMOOTH",
"71 -224 OFFCURVE",
"39 -189 OFFCURVE",
"29 -175 CURVE",
"-6 -215 OFFCURVE",
"-53 -233 OFFCURVE",
"-93 -233 CURVE SMOOTH",
"-147 -233 OFFCURVE",
"-168 -206 OFFCURVE",
"-176 -191 CURVE",
"-176 -166 OFFCURVE",
"-165 -131 OFFCURVE",
"-136 -131 CURVE SMOOTH",
"-103 -131 OFFCURVE",
"-106 -192 OFFCURVE",
"-63 -192 CURVE SMOOTH",
"-18 -192 OFFCURVE",
"33 -73 OFFCURVE",
"44 -10 CURVE SMOOTH",
"48 12 OFFCURVE",
"49 21 OFFCURVE",
"53 46 CURVE SMOOTH",
"106 354 LINE",
"106 356 LINE SMOOTH",
"106 359 OFFCURVE",
"105 361 OFFCURVE",
"103 361 CURVE SMOOTH",
"38 361 LINE SMOOTH",
"37 361 OFFCURVE",
"36 362 OFFCURVE",
"36 364 CURVE SMOOTH",
"36 374 OFFCURVE",
"61 407 OFFCURVE",
"84 407 CURVE SMOOTH",
"113 407 LINE SMOOTH",
"116 407 OFFCURVE",
"118 412 OFFCURVE",
"119 416 CURVE SMOOTH",
"151 580 OFFCURVE",
"277 683 OFFCURVE",
"371 683 CURVE SMOOTH",
"425 683 OFFCURVE",
"467 666 OFFCURVE",
"481 653 CURVE",
"505 676 OFFCURVE",
"569 699 OFFCURVE",
"608 699 CURVE SMOOTH",
"662 699 OFFCURVE",
"679 686 OFFCURVE",
"694 672 CURVE SMOOTH",
"710 657 OFFCURVE",
"720 644 OFFCURVE",
"726 630 CURVE",
"726 602 OFFCURVE",
"712 566 OFFCURVE",
"681 566 CURVE SMOOTH",
"659 566 OFFCURVE",
"649 584 OFFCURVE",
"638 603 CURVE SMOOTH",
"624 628 OFFCURVE",
"609 661 OFFCURVE",
"572 661 CURVE SMOOTH",
"486 661 OFFCURVE",
"447 438 OFFCURVE",
"443 413 CURVE",
"443 411 LINE SMOOTH",
"443 409 OFFCURVE",
"444 407 OFFCURVE",
"446 407 CURVE SMOOTH",
"592 412 LINE SMOOTH",
"613 414 OFFCURVE",
"684 418 OFFCURVE",
"686 418 CURVE SMOOTH",
"690 418 OFFCURVE",
"700 410 OFFCURVE",
"700 401 CURVE SMOOTH",
"700 396 OFFCURVE",
"697 351 OFFCURVE",
"692 330 CURVE SMOOTH",
"641 106 LINE SMOOTH",
"639 96 OFFCURVE",
"637 79 OFFCURVE",
"637 74 CURVE SMOOTH",
"637 65 OFFCURVE",
"637 49 OFFCURVE",
"647 49 CURVE SMOOTH",
"668 49 OFFCURVE",
"714 104 OFFCURVE",
"717 107 CURVE",
"720 107 OFFCURVE",
"727 94 OFFCURVE",
"727 88 CURVE",
"716 69 OFFCURVE",
"643 -6 OFFCURVE",
"596 -6 CURVE SMOOTH",
"575 -6 OFFCURVE",
"562 16 OFFCURVE",
"562 46 CURVE SMOOTH",
"562 54 OFFCURVE",
"564 78 OFFCURVE",
"569 99 CURVE SMOOTH",
"613 293 LINE SMOOTH",
"614 300 OFFCURVE",
"616 316 OFFCURVE",
"616 321 CURVE SMOOTH",
"616 343 OFFCURVE",
"609 366 OFFCURVE"
);
},
{
closed = 1;
nodes = (
"76 -116 CURVE SMOOTH",
"80 -136 OFFCURVE",
"93 -177 OFFCURVE",
"136 -177 CURVE SMOOTH",
"194 -177 OFFCURVE",
"277 -102 OFFCURVE",
"311 60 CURVE",
"362 354 LINE",
"362 356 LINE SMOOTH",
"362 359 OFFCURVE",
"361 361 OFFCURVE",
"359 361 CURVE SMOOTH",
"182 361 LINE SMOOTH",
"179 361 OFFCURVE",
"177 361 OFFCURVE",
"176 353 CURVE SMOOTH",
"121 43 LINE SMOOTH",
"109 -19 OFFCURVE",
"98 -59 OFFCURVE",
"76 -103 CURVE SMOOTH",
"75 -104 OFFCURVE",
"75 -106 OFFCURVE",
"75 -108 CURVE SMOOTH",
"75 -111 OFFCURVE",
"76 -115 OFFCURVE"
);
},
{
closed = 1;
nodes = (
"350 645 CURVE SMOOTH",
"273 645 OFFCURVE",
"216 561 OFFCURVE",
"194 454 CURVE SMOOTH",
"190 432 OFFCURVE",
"191 438 OFFCURVE",
"187 413 CURVE",
"187 411 LINE SMOOTH",
"187 409 OFFCURVE",
"188 407 OFFCURVE",
"191 407 CURVE SMOOTH",
"369 407 LINE SMOOTH",
"372 407 OFFCURVE",
"374 412 OFFCURVE",
"375 416 CURVE SMOOTH",
"387 478 OFFCURVE",
"412 551 OFFCURVE",
"430 584 CURVE SMOOTH",
"431 585 OFFCURVE",
"431 587 OFFCURVE",
"431 589 CURVE SMOOTH",
"431 592 OFFCURVE",
"430 596 OFFCURVE",
"430 597 CURVE SMOOTH",
"426 617 OFFCURVE",
"393 645 OFFCURVE"
);
}
);
width = 781;
}
);
userData = {
com.fontlab.hintData = {
hhints = (
{
position = -233;
width = 41;
},
{
position = -224;
width = 47;
},
{
position = -6;
width = 55;
},
{
position = 361;
width = 46;
},
{
position = 645;
width = 38;
},
{
position = 661;
width = 38;
}
);
vhints = (
{
position = 562;
width = 75;
}
);
};
};
},
{
glyphname = f_f_j;
lastChange = "2017-07-12 19:24:35 +0000";
layers = (
{
layerId = "42F082D8-1FA6-4D23-B964-75333DCE4509";
paths = (
{
closed = 1;
nodes = (
"686 418 CURVE SMOOTH",
"690 418 OFFCURVE",
"700 410 OFFCURVE",
"700 401 CURVE SMOOTH",
"700 396 OFFCURVE",
"694 351 OFFCURVE",
"691 330 CURVE SMOOTH",
"636 45 LINE SMOOTH",
"629 9 OFFCURVE",
"608 -67 OFFCURVE",
"565 -124 CURVE SMOOTH",
"523 -179 OFFCURVE",
"461 -221 OFFCURVE",
"426 -235 CURVE",
"422 -232 OFFCURVE",
"417 -222 OFFCURVE",
"417 -215 CURVE",
"484 -177 OFFCURVE",
"537 -89 OFFCURVE",
"559 22 CURVE SMOOTH",
"613 293 LINE SMOOTH",
"615 301 OFFCURVE",
"616 316 OFFCURVE",
"616 321 CURVE SMOOTH",
"616 343 OFFCURVE",
"609 366 OFFCURVE",
"590 366 CURVE SMOOTH",
"581 366 OFFCURVE",
"438 361 OFFCURVE",
"438 361 CURVE SMOOTH",
"435 361 OFFCURVE",
"433 361 OFFCURVE",
"432 353 CURVE SMOOTH",
"389 106 LINE",
"341 -140 OFFCURVE",
"190 -224 OFFCURVE",
"125 -224 CURVE SMOOTH",
"71 -224 OFFCURVE",
"39 -189 OFFCURVE",
"29 -175 CURVE",
"-6 -215 OFFCURVE",
"-53 -233 OFFCURVE",
"-93 -233 CURVE SMOOTH",
"-147 -233 OFFCURVE",
"-168 -206 OFFCURVE",
"-176 -191 CURVE",
"-176 -166 OFFCURVE",
"-165 -131 OFFCURVE",
"-136 -131 CURVE SMOOTH",
"-103 -131 OFFCURVE",
"-106 -192 OFFCURVE",
"-63 -192 CURVE SMOOTH",
"-18 -192 OFFCURVE",
"33 -73 OFFCURVE",
"44 -10 CURVE SMOOTH",
"48 12 OFFCURVE",
"49 21 OFFCURVE",
"53 46 CURVE SMOOTH",
"106 354 LINE",
"106 356 LINE SMOOTH",
"106 359 OFFCURVE",
"105 361 OFFCURVE",
"103 361 CURVE SMOOTH",
"38 361 LINE SMOOTH",
"37 361 OFFCURVE",
"36 362 OFFCURVE",
"36 364 CURVE SMOOTH",
"36 374 OFFCURVE",
"61 407 OFFCURVE",
"84 407 CURVE SMOOTH",
"113 407 LINE SMOOTH",
"116 407 OFFCURVE",
"118 412 OFFCURVE",
"119 416 CURVE SMOOTH",
"151 580 OFFCURVE",
"277 683 OFFCURVE",
"371 683 CURVE SMOOTH",
"425 683 OFFCURVE",
"467 666 OFFCURVE",
"481 653 CURVE",
"505 676 OFFCURVE",
"569 699 OFFCURVE",
"608 699 CURVE SMOOTH",
"662 699 OFFCURVE",
"679 686 OFFCURVE",
"694 672 CURVE SMOOTH",
"710 657 OFFCURVE",
"720 644 OFFCURVE",
"726 630 CURVE",
"726 602 OFFCURVE",
"712 566 OFFCURVE",
"681 566 CURVE SMOOTH",
"659 566 OFFCURVE",
"649 584 OFFCURVE",
"638 603 CURVE SMOOTH",
"624 628 OFFCURVE",
"609 661 OFFCURVE",
"572 661 CURVE SMOOTH",
"486 661 OFFCURVE",
"447 438 OFFCURVE",
"443 413 CURVE",
"443 411 LINE SMOOTH",
"443 409 OFFCURVE",
"444 407 OFFCURVE",
"446 407 CURVE SMOOTH",
"472 407 OFFCURVE",
"574 410 OFFCURVE",
"592 412 CURVE SMOOTH",
"613 414 OFFCURVE",
"684 418 OFFCURVE"
);
},
{
closed = 1;
nodes = (
"76 -116 CURVE SMOOTH",
"80 -136 OFFCURVE",
"93 -177 OFFCURVE",
"136 -177 CURVE SMOOTH",
"194 -177 OFFCURVE",
"277 -102 OFFCURVE",
"311 60 CURVE",
"362 354 LINE",
"362 356 LINE SMOOTH",
"362 359 OFFCURVE",
"361 361 OFFCURVE",
"359 361 CURVE SMOOTH",
"182 361 LINE SMOOTH",
"179 361 OFFCURVE",
"177 361 OFFCURVE",
"176 353 CURVE SMOOTH",
"121 43 LINE SMOOTH",
"109 -19 OFFCURVE",
"98 -59 OFFCURVE",
"76 -103 CURVE SMOOTH",
"75 -104 OFFCURVE",
"75 -106 OFFCURVE",
"75 -108 CURVE SMOOTH",
"75 -111 OFFCURVE",
"76 -115 OFFCURVE"
);
},
{
closed = 1;
nodes = (
"350 645 CURVE SMOOTH",
"273 645 OFFCURVE",
"216 561 OFFCURVE",
"194 454 CURVE SMOOTH",
"190 432 OFFCURVE",
"191 438 OFFCURVE",
"187 413 CURVE",
"187 411 LINE SMOOTH",
"187 409 OFFCURVE",
"188 407 OFFCURVE",
"191 407 CURVE SMOOTH",
"369 407 LINE SMOOTH",
"372 407 OFFCURVE",
"374 412 OFFCURVE",
"375 416 CURVE SMOOTH",
"387 478 OFFCURVE",
"412 551 OFFCURVE",
"430 584 CURVE SMOOTH",
"431 585 OFFCURVE",
"431 587 OFFCURVE",
"431 589 CURVE SMOOTH",
"431 592 OFFCURVE",
"430 596 OFFCURVE",
"430 597 CURVE SMOOTH",
"426 617 OFFCURVE",
"393 645 OFFCURVE"
);
}
);
width = 743;
}
);
userData = {
com.fontlab.hintData = {
hhints = (
{
position = -233;
width = 41;
},
{
position = -224;
width = 47;
},
{
position = 361;
width = 46;
},
{
position = 645;
width = 38;
},
{
position = 661;
width = 38;
}
);
vhints = (
{
position = 616;
width = 84;
}
);
};
};
},
{
glyphname = f_f_k;
lastChange = "2017-07-12 19:24:35 +0000";
layers = (
{
layerId = "42F082D8-1FA6-4D23-B964-75333DCE4509";
paths = (
{
closed = 1;
nodes = (
"837 388 CURVE SMOOTH",
"779 388 OFFCURVE",
"698 291 OFFCURVE",
"686 230 CURVE",
"753 230 OFFCURVE",
"870 271 OFFCURVE",
"870 354 CURVE SMOOTH",
"870 372 OFFCURVE",
"865 388 OFFCURVE"
);
},
{
closed = 1;
nodes = (
"703 678 CURVE SMOOTH",
"725 678 OFFCURVE",
"771 694 OFFCURVE",
"781 694 CURVE SMOOTH",
"786 694 OFFCURVE",
"786 682 OFFCURVE",
"786 678 CURVE",
"786 678 OFFCURVE",
"767 646 OFFCURVE",
"756 591 CURVE SMOOTH",
"704 322 LINE",
"709 326 OFFCURVE",
"787 435 OFFCURVE",
"873 435 CURVE SMOOTH",
"912 435 OFFCURVE",
"948 406 OFFCURVE",
"948 367 CURVE SMOOTH",
"948 276 OFFCURVE",
"848 230 OFFCURVE",
"737 211 CURVE",
"825 79 OFFCURVE",
"853 51 OFFCURVE",
"894 51 CURVE SMOOTH",
"911 51 OFFCURVE",
"951 93 OFFCURVE",
"962 107 CURVE",
"965 107 OFFCURVE",
"972 93 OFFCURVE",
"972 88 CURVE",
"964 74 OFFCURVE",
"894 -4 OFFCURVE",
"850 -4 CURVE SMOOTH",
"771 -4 OFFCURVE",
"721 119 OFFCURVE",
"678 191 CURVE",
"641 0 LINE",
"630 -3 OFFCURVE",
"617 -5 OFFCURVE",
"606 -5 CURVE SMOOTH",
"595 -5 OFFCURVE",
"582 -3 OFFCURVE",
"570 0 CURVE",
"679 559 LINE SMOOTH",
"680 564 OFFCURVE",
"683 585 OFFCURVE",
"683 589 CURVE SMOOTH",
"683 632 OFFCURVE",
"637 661 OFFCURVE",
"590 661 CURVE SMOOTH",
"524 661 OFFCURVE",
"476 579 OFFCURVE",
"448 413 CURVE",
"448 411 LINE SMOOTH",
"448 409 OFFCURVE",
"450 407 OFFCURVE",
"451 407 CURVE SMOOTH",
"566 407 LINE SMOOTH",
"570 407 OFFCURVE",
"571 400 OFFCURVE",
"571 395 CURVE SMOOTH",
"571 381 OFFCURVE",
"565 369 OFFCURVE",
"560 361 CURVE",
"443 361 LINE SMOOTH",
"441 361 OFFCURVE",
"439 361 OFFCURVE",
"437 353 CURVE SMOOTH",
"389 106 LINE SMOOTH",
"342 -140 OFFCURVE",
"190 -224 OFFCURVE",
"125 -224 CURVE SMOOTH",
"71 -224 OFFCURVE",
"39 -189 OFFCURVE",
"29 -175 CURVE",
"-6 -215 OFFCURVE",
"-53 -233 OFFCURVE",
"-93 -233 CURVE SMOOTH",
"-147 -233 OFFCURVE",
"-168 -206 OFFCURVE",
"-176 -191 CURVE",
"-176 -166 OFFCURVE",
"-165 -131 OFFCURVE",
"-136 -131 CURVE SMOOTH",
"-103 -131 OFFCURVE",
"-106 -192 OFFCURVE",
"-63 -192 CURVE SMOOTH",
"-18 -192 OFFCURVE",
"33 -73 OFFCURVE",
"44 -10 CURVE SMOOTH",
"48 12 OFFCURVE",
"49 21 OFFCURVE",
"53 46 CURVE SMOOTH",
"106 354 LINE",
"106 356 LINE SMOOTH",
"106 359 OFFCURVE",
"105 361 OFFCURVE",
"103 361 CURVE SMOOTH",
"38 361 LINE SMOOTH",
"37 361 OFFCURVE",
"36 362 OFFCURVE",
"36 364 CURVE SMOOTH",
"36 374 OFFCURVE",
"61 407 OFFCURVE",
"84 407 CURVE SMOOTH",
"113 407 LINE SMOOTH",
"116 407 OFFCURVE",
"118 412 OFFCURVE",
"119 416 CURVE SMOOTH",
"151 580 OFFCURVE",
"277 683 OFFCURVE",
"371 683 CURVE SMOOTH",
"425 683 OFFCURVE",
"467 666 OFFCURVE",
"481 653 CURVE",
"505 676 OFFCURVE",
"569 699 OFFCURVE",
"608 699 CURVE SMOOTH",
"662 699 OFFCURVE",
"691 678 OFFCURVE"
);
},
{
closed = 1;
nodes = (
"136 -177 CURVE SMOOTH",
"194 -177 OFFCURVE",
"277 -102 OFFCURVE",
"311 60 CURVE",
"362 354 LINE",
"362 356 LINE SMOOTH",
"362 359 OFFCURVE",
"361 361 OFFCURVE",
"359 361 CURVE SMOOTH",
"182 361 LINE SMOOTH",
"179 361 OFFCURVE",
"177 361 OFFCURVE",
"176 353 CURVE SMOOTH",
"121 43 LINE SMOOTH",
"109 -19 OFFCURVE",
"98 -59 OFFCURVE",
"76 -103 CURVE SMOOTH",
"75 -104 OFFCURVE",
"75 -106 OFFCURVE",
"75 -108 CURVE SMOOTH",
"75 -111 OFFCURVE",
"76 -115 OFFCURVE",
"76 -116 CURVE SMOOTH",
"80 -136 OFFCURVE",
"93 -177 OFFCURVE"
);
},
{
closed = 1;
nodes = (
"350 645 CURVE SMOOTH",
"273 645 OFFCURVE",
"216 561 OFFCURVE",
"194 454 CURVE SMOOTH",
"190 432 OFFCURVE",
"191 438 OFFCURVE",
"187 413 CURVE",
"187 411 LINE SMOOTH",
"187 409 OFFCURVE",
"188 407 OFFCURVE",
"191 407 CURVE SMOOTH",
"369 407 LINE SMOOTH",
"372 407 OFFCURVE",
"374 412 OFFCURVE",
"375 416 CURVE SMOOTH",
"387 478 OFFCURVE",
"412 551 OFFCURVE",
"430 584 CURVE SMOOTH",
"431 585 OFFCURVE",
"431 587 OFFCURVE",
"431 589 CURVE SMOOTH",
"431 592 OFFCURVE",
"430 596 OFFCURVE",
"430 597 CURVE SMOOTH",
"426 617 OFFCURVE",
"393 645 OFFCURVE"
);
}
);
width = 1004;
}
);
userData = {
com.fontlab.hintData = {
hhints = (
{
position = -233;
width = 41;
},
{
position = -224;
width = 47;
},
{
position = -4;
width = 55;
},
{
position = 361;
width = 46;
},
{
position = 388;
width = 47;
},
{
position = 645;
width = 38;
},
{
position = 661;
width = 38;
},
{
position = 674;
width = 20;
}
);
vhints = (
{
position = 870;
width = 78;
}
);
};
};
},
{
glyphname = f_f_l;
lastChange = "2017-07-12 19:24:35 +0000";
layers = (
{
layerId = "42F082D8-1FA6-4D23-B964-75333DCE4509";
paths = (
{
closed = 1;
nodes = (
"683 589 CURVE SMOOTH",
"683 632 OFFCURVE",
"637 661 OFFCURVE",
"590 661 CURVE SMOOTH",
"524 661 OFFCURVE",
"476 579 OFFCURVE",
"448 413 CURVE",
"448 411 LINE SMOOTH",
"448 409 OFFCURVE",
"450 407 OFFCURVE",
"451 407 CURVE SMOOTH",
"566 407 LINE SMOOTH",
"570 407 OFFCURVE",
"571 400 OFFCURVE",
"571 395 CURVE SMOOTH",
"571 381 OFFCURVE",
"565 369 OFFCURVE",
"560 361 CURVE",
"443 361 LINE SMOOTH",
"441 361 OFFCURVE",
"439 361 OFFCURVE",
"437 353 CURVE SMOOTH",
"389 106 LINE SMOOTH",
"342 -140 OFFCURVE",
"190 -224 OFFCURVE",
"125 -224 CURVE SMOOTH",
"71 -224 OFFCURVE",
"39 -189 OFFCURVE",
"29 -175 CURVE",
"-6 -215 OFFCURVE",
"-53 -233 OFFCURVE",
"-93 -233 CURVE SMOOTH",
"-147 -233 OFFCURVE",
"-168 -206 OFFCURVE",
"-176 -191 CURVE",
"-176 -166 OFFCURVE",
"-165 -131 OFFCURVE",
"-136 -131 CURVE SMOOTH",
"-103 -131 OFFCURVE",
"-106 -192 OFFCURVE",
"-63 -192 CURVE SMOOTH",
"-18 -192 OFFCURVE",
"33 -73 OFFCURVE",
"44 -10 CURVE SMOOTH",
"48 12 OFFCURVE",
"49 21 OFFCURVE",
"53 46 CURVE SMOOTH",
"106 354 LINE",
"106 356 LINE SMOOTH",
"106 359 OFFCURVE",
"105 361 OFFCURVE",
"103 361 CURVE SMOOTH",
"38 361 LINE SMOOTH",
"37 361 OFFCURVE",
"36 362 OFFCURVE",
"36 364 CURVE SMOOTH",
"36 374 OFFCURVE",
"61 407 OFFCURVE",
"84 407 CURVE SMOOTH",
"113 407 LINE SMOOTH",
"116 407 OFFCURVE",
"118 412 OFFCURVE",
"119 416 CURVE SMOOTH",
"151 580 OFFCURVE",
"277 683 OFFCURVE",
"371 683 CURVE SMOOTH",
"425 683 OFFCURVE",
"467 666 OFFCURVE",
"481 653 CURVE",
"505 676 OFFCURVE",
"569 699 OFFCURVE",
"608 699 CURVE SMOOTH",
"662 699 OFFCURVE",
"691 678 OFFCURVE",
"703 678 CURVE SMOOTH",
"725 678 OFFCURVE",
"771 694 OFFCURVE",
"781 694 CURVE SMOOTH",
"786 694 OFFCURVE",
"786 682 OFFCURVE",
"786 678 CURVE",
"786 678 OFFCURVE",
"767 646 OFFCURVE",
"756 591 CURVE SMOOTH",
"661 106 LINE SMOOTH",
"660 102 OFFCURVE",
"657 79 OFFCURVE",
"657 74 CURVE SMOOTH",
"657 65 OFFCURVE",
"657 49 OFFCURVE",
"667 49 CURVE SMOOTH",
"688 49 OFFCURVE",
"734 104 OFFCURVE",
"737 107 CURVE",
"740 107 OFFCURVE",
"747 94 OFFCURVE",
"747 88 CURVE",
"736 69 OFFCURVE",
"663 -6 OFFCURVE",
"616 -6 CURVE SMOOTH",
"594 -6 OFFCURVE",
"582 16 OFFCURVE",
"582 46 CURVE SMOOTH",
"582 54 OFFCURVE",
"585 78 OFFCURVE",
"589 99 CURVE SMOOTH",
"679 559 LINE SMOOTH",
"680 563 OFFCURVE",
"683 585 OFFCURVE"
);
},
{
closed = 1;
nodes = (
"136 -177 CURVE SMOOTH",
"194 -177 OFFCURVE",
"277 -102 OFFCURVE",
"311 60 CURVE",
"362 354 LINE",
"362 356 LINE SMOOTH",
"362 359 OFFCURVE",
"361 361 OFFCURVE",
"359 361 CURVE SMOOTH",
"182 361 LINE SMOOTH",
"179 361 OFFCURVE",
"177 361 OFFCURVE",
"176 353 CURVE SMOOTH",
"121 43 LINE SMOOTH",
"109 -19 OFFCURVE",
"98 -59 OFFCURVE",
"76 -103 CURVE SMOOTH",
"75 -104 OFFCURVE",
"75 -106 OFFCURVE",
"75 -108 CURVE SMOOTH",
"75 -111 OFFCURVE",
"76 -115 OFFCURVE",
"76 -116 CURVE SMOOTH",
"80 -136 OFFCURVE",
"93 -177 OFFCURVE"
);
},
{
closed = 1;
nodes = (
"350 645 CURVE SMOOTH",
"273 645 OFFCURVE",
"216 561 OFFCURVE",
"194 454 CURVE SMOOTH",
"190 432 OFFCURVE",
"191 438 OFFCURVE",
"187 413 CURVE",
"187 411 LINE SMOOTH",
"187 409 OFFCURVE",
"188 407 OFFCURVE",
"191 407 CURVE SMOOTH",
"369 407 LINE SMOOTH",
"372 407 OFFCURVE",
"374 412 OFFCURVE",
"375 416 CURVE SMOOTH",
"387 478 OFFCURVE",
"412 551 OFFCURVE",
"430 584 CURVE SMOOTH",
"431 585 OFFCURVE",
"431 587 OFFCURVE",
"431 589 CURVE SMOOTH",
"431 592 OFFCURVE",
"430 596 OFFCURVE",
"430 597 CURVE SMOOTH",
"426 617 OFFCURVE",
"393 645 OFFCURVE"
);
}
);
width = 791;
}
);
userData = {
com.fontlab.hintData = {
hhints = (
{
position = -233;
width = 41;
},
{
position = -224;
width = 47;
},
{
position = -6;
width = 55;
},
{
position = 361;
width = 46;
},
{
position = 645;
width = 38;
},
{
position = 661;
width = 38;
},
{
position = 674;
width = 20;
}
);
vhints = (
{
position = 582;
width = 75;
}
);
};
};
},
{
glyphname = f_h;
lastChange = "2017-07-12 19:24:35 +0000";
layers = (
{
layerId = "42F082D8-1FA6-4D23-B964-75333DCE4509";
paths = (
{
closed = 1;
nodes = (
"418 559 LINE SMOOTH",
"419 564 OFFCURVE",
"422 585 OFFCURVE",
"422 589 CURVE SMOOTH",
"422 632 OFFCURVE",
"376 661 OFFCURVE",
"329 661 CURVE SMOOTH",
"263 661 OFFCURVE",
"215 579 OFFCURVE",
"187 413 CURVE",
"187 411 LINE SMOOTH",
"187 409 OFFCURVE",
"189 407 OFFCURVE",
"190 407 CURVE SMOOTH",
"305 407 LINE SMOOTH",
"309 407 OFFCURVE",
"310 400 OFFCURVE",
"310 395 CURVE SMOOTH",
"310 381 OFFCURVE",
"304 369 OFFCURVE",
"299 361 CURVE",
"182 361 LINE SMOOTH",
"180 361 OFFCURVE",
"177 361 OFFCURVE",
"176 353 CURVE SMOOTH",
"121 54 LINE",
"87 -142 OFFCURVE",
"-8 -231 OFFCURVE",
"-95 -231 CURVE SMOOTH",
"-146 -231 OFFCURVE",
"-170 -207 OFFCURVE",
"-176 -190 CURVE",
"-177 -160 OFFCURVE",
"-159 -131 OFFCURVE",
"-135 -131 CURVE SMOOTH",
"-108 -131 OFFCURVE",
"-103 -192 OFFCURVE",
"-61 -192 CURVE SMOOTH",
"-6 -192 OFFCURVE",
"36 -42 OFFCURVE",
"46 15 CURVE SMOOTH",
"106 354 LINE",
"106 356 LINE SMOOTH",
"106 359 OFFCURVE",
"105 361 OFFCURVE",
"103 361 CURVE SMOOTH",
"38 361 LINE SMOOTH",
"37 361 OFFCURVE",
"36 362 OFFCURVE",
"36 364 CURVE SMOOTH",
"36 374 OFFCURVE",
"61 407 OFFCURVE",
"84 407 CURVE SMOOTH",
"113 407 LINE SMOOTH",
"116 407 OFFCURVE",
"118 412 OFFCURVE",
"119 416 CURVE SMOOTH",
"146 582 OFFCURVE",
"247 699 OFFCURVE",
"347 699 CURVE SMOOTH",
"401 699 OFFCURVE",
"430 678 OFFCURVE",
"442 678 CURVE SMOOTH",
"464 678 OFFCURVE",
"511 694 OFFCURVE",
"521 694 CURVE SMOOTH",
"526 694 OFFCURVE",
"526 682 OFFCURVE",
"526 678 CURVE",
"526 678 OFFCURVE",
"506 646 OFFCURVE",
"495 591 CURVE SMOOTH",
"444 330 LINE",
"426 238 LINE",
"439 263 OFFCURVE",
"559 435 OFFCURVE",
"625 435 CURVE SMOOTH",
"664 435 OFFCURVE",
"680 407 OFFCURVE",
"680 369 CURVE SMOOTH",
"680 335 OFFCURVE",
"674 298 OFFCURVE",
"666 260 CURVE SMOOTH",
"633 106 LINE SMOOTH",
"632 102 OFFCURVE",
"629 79 OFFCURVE",
"629 74 CURVE SMOOTH",
"629 65 OFFCURVE",
"629 49 OFFCURVE",
"639 49 CURVE SMOOTH",
"660 49 OFFCURVE",
"706 104 OFFCURVE",
"709 107 CURVE",
"712 107 OFFCURVE",
"719 94 OFFCURVE",
"719 88 CURVE",
"708 69 OFFCURVE",
"635 -6 OFFCURVE",
"588 -6 CURVE SMOOTH",
"566 -6 OFFCURVE",
"554 16 OFFCURVE",
"554 46 CURVE SMOOTH",
"554 54 OFFCURVE",
"556 78 OFFCURVE",
"561 99 CURVE SMOOTH",
"596 264 LINE SMOOTH",
"598 273 OFFCURVE",
"603 307 OFFCURVE",
"603 318 CURVE SMOOTH",
"603 341 OFFCURVE",
"601 361 OFFCURVE",
"584 361 CURVE SMOOTH",
"548 361 OFFCURVE",
"428 236 OFFCURVE",
"405 119 CURVE SMOOTH",
"399 88 OFFCURVE",
"390 46 OFFCURVE",
"380 0 CURVE",
"370 -3 OFFCURVE",
"354 -4 OFFCURVE",
"344 -4 CURVE SMOOTH",
"334 -4 OFFCURVE",
"322 -3 OFFCURVE",
"310 0 CURVE"
);
}
);
width = 752;
}
);
userData = {
com.fontlab.hintData = {
hhints = (
{
position = -231;
width = 39;
},
{
position = -6;
width = 55;
},
{
position = 361;
width = 74;
},
{
position = 361;
width = 46;
},
{
position = 661;
width = 38;
},
{
position = 674;
width = 20;
}
);
vhints = (
{
position = 554;
width = 75;
},
{
position = 603;
width = 77;
}
);
};
};
},
{
glyphname = f_i;
lastChange = "2017-07-12 19:24:35 +0000";
layers = (
{
layerId = "42F082D8-1FA6-4D23-B964-75333DCE4509";
paths = (
{
closed = 1;
nodes = (
"431 330 CURVE SMOOTH",
"380 106 LINE SMOOTH",
"378 96 OFFCURVE",
"376 79 OFFCURVE",
"376 74 CURVE SMOOTH",
"376 65 OFFCURVE",
"376 49 OFFCURVE",
"386 49 CURVE SMOOTH",
"407 49 OFFCURVE",
"453 104 OFFCURVE",
"456 107 CURVE",
"459 107 OFFCURVE",
"466 94 OFFCURVE",
"466 88 CURVE",
"455 69 OFFCURVE",
"382 -6 OFFCURVE",
"335 -6 CURVE SMOOTH",
"314 -6 OFFCURVE",
"301 16 OFFCURVE",
"301 46 CURVE SMOOTH",
"301 54 OFFCURVE",
"303 78 OFFCURVE",
"308 99 CURVE SMOOTH",
"352 293 LINE SMOOTH",
"353 300 OFFCURVE",
"355 316 OFFCURVE",
"355 321 CURVE SMOOTH",
"355 343 OFFCURVE",
"348 366 OFFCURVE",
"329 366 CURVE SMOOTH",
"272 366 OFFCURVE",
"182 361 OFFCURVE",
"182 361 CURVE SMOOTH",
"179 361 OFFCURVE",
"177 361 OFFCURVE",
"176 353 CURVE SMOOTH",
"121 54 LINE",
"87 -142 OFFCURVE",
"-8 -231 OFFCURVE",
"-95 -231 CURVE SMOOTH",
"-146 -231 OFFCURVE",
"-170 -207 OFFCURVE",
"-176 -190 CURVE",
"-177 -160 OFFCURVE",
"-159 -131 OFFCURVE",
"-135 -131 CURVE SMOOTH",
"-108 -131 OFFCURVE",
"-103 -192 OFFCURVE",
"-61 -192 CURVE SMOOTH",
"-6 -192 OFFCURVE",
"36 -42 OFFCURVE",
"46 15 CURVE SMOOTH",
"106 354 LINE",
"106 356 LINE SMOOTH",
"106 359 OFFCURVE",
"105 361 OFFCURVE",
"103 361 CURVE SMOOTH",
"38 361 LINE SMOOTH",
"37 361 OFFCURVE",
"36 362 OFFCURVE",
"36 364 CURVE SMOOTH",
"36 374 OFFCURVE",
"61 407 OFFCURVE",
"84 407 CURVE SMOOTH",
"113 407 LINE SMOOTH",
"116 407 OFFCURVE",
"118 412 OFFCURVE",
"119 416 CURVE SMOOTH",
"146 582 OFFCURVE",
"247 699 OFFCURVE",
"347 699 CURVE SMOOTH",
"401 699 OFFCURVE",
"418 686 OFFCURVE",
"433 672 CURVE SMOOTH",
"449 657 OFFCURVE",
"459 644 OFFCURVE",
"465 630 CURVE",
"465 602 OFFCURVE",
"451 566 OFFCURVE",
"420 566 CURVE SMOOTH",
"398 566 OFFCURVE",
"388 584 OFFCURVE",
"377 603 CURVE SMOOTH",
"363 628 OFFCURVE",
"348 661 OFFCURVE",
"311 661 CURVE SMOOTH",
"275 661 OFFCURVE",
"224 591 OFFCURVE",
"194 450 CURVE SMOOTH",
"192 438 OFFCURVE",
"189 426 OFFCURVE",
"187 413 CURVE SMOOTH",
"187 411 LINE SMOOTH",
"187 409 OFFCURVE",
"188 407 OFFCURVE",
"190 407 CURVE SMOOTH",
"214 407 OFFCURVE",
"313 410 OFFCURVE",
"331 412 CURVE SMOOTH",
"352 414 OFFCURVE",
"423 418 OFFCURVE",
"425 418 CURVE SMOOTH",
"429 418 OFFCURVE",
"439 410 OFFCURVE",
"439 401 CURVE SMOOTH",
"439 396 OFFCURVE",
"436 351 OFFCURVE"
);
}
);
width = 520;
}
);
userData = {
com.fontlab.hintData = {
hhints = (
{
position = -231;
width = 39;
},
{
position = -6;
width = 55;
},
{
position = 361;
width = 46;
},
{
position = 366;
width = 52;
},
{
position = 661;
width = 38;
}
);
vhints = (
{
position = 301;
width = 75;
}
);
};
};
},
{
glyphname = f_j;
lastChange = "2017-07-12 19:24:35 +0000";
layers = (
{
layerId = "42F082D8-1FA6-4D23-B964-75333DCE4509";
paths = (
{
closed = 1;
nodes = (
"430 330 CURVE SMOOTH",
"375 45 LINE SMOOTH",
"368 9 OFFCURVE",
"347 -67 OFFCURVE",
"304 -124 CURVE SMOOTH",
"262 -179 OFFCURVE",
"200 -221 OFFCURVE",
"165 -235 CURVE",
"161 -232 OFFCURVE",
"156 -222 OFFCURVE",
"156 -215 CURVE",
"223 -177 OFFCURVE",
"276 -89 OFFCURVE",
"298 22 CURVE SMOOTH",
"352 293 LINE SMOOTH",
"354 301 OFFCURVE",
"355 316 OFFCURVE",
"355 321 CURVE SMOOTH",
"355 343 OFFCURVE",
"348 366 OFFCURVE",
"329 366 CURVE SMOOTH",
"272 366 OFFCURVE",
"182 361 OFFCURVE",
"182 361 CURVE SMOOTH",
"179 361 OFFCURVE",
"177 361 OFFCURVE",
"176 353 CURVE SMOOTH",
"121 54 LINE",
"87 -142 OFFCURVE",
"-8 -231 OFFCURVE",
"-95 -231 CURVE SMOOTH",
"-146 -231 OFFCURVE",
"-170 -207 OFFCURVE",
"-176 -190 CURVE",
"-177 -160 OFFCURVE",
"-159 -131 OFFCURVE",
"-135 -131 CURVE SMOOTH",
"-108 -131 OFFCURVE",
"-103 -192 OFFCURVE",
"-61 -192 CURVE SMOOTH",
"-6 -192 OFFCURVE",
"36 -42 OFFCURVE",
"46 15 CURVE SMOOTH",
"106 354 LINE",
"106 356 LINE SMOOTH",
"106 359 OFFCURVE",
"105 361 OFFCURVE",
"103 361 CURVE SMOOTH",
"38 361 LINE SMOOTH",
"37 361 OFFCURVE",
"36 362 OFFCURVE",
"36 364 CURVE SMOOTH",
"36 374 OFFCURVE",
"61 407 OFFCURVE",
"84 407 CURVE SMOOTH",
"113 407 LINE SMOOTH",
"116 407 OFFCURVE",
"118 412 OFFCURVE",
"119 416 CURVE SMOOTH",
"146 582 OFFCURVE",
"247 699 OFFCURVE",
"347 699 CURVE SMOOTH",
"401 699 OFFCURVE",
"418 686 OFFCURVE",
"433 672 CURVE SMOOTH",
"449 657 OFFCURVE",
"459 644 OFFCURVE",
"465 630 CURVE",
"465 602 OFFCURVE",
"451 566 OFFCURVE",
"420 566 CURVE SMOOTH",
"398 566 OFFCURVE",
"388 584 OFFCURVE",
"377 603 CURVE SMOOTH",
"363 628 OFFCURVE",
"348 661 OFFCURVE",
"311 661 CURVE SMOOTH",
"272 661 OFFCURVE",
"215 579 OFFCURVE",
"187 413 CURVE",
"187 411 LINE SMOOTH",
"187 409 OFFCURVE",
"188 407 OFFCURVE",
"190 407 CURVE SMOOTH",
"214 407 OFFCURVE",
"313 410 OFFCURVE",
"331 412 CURVE SMOOTH",
"352 414 OFFCURVE",
"423 418 OFFCURVE",
"425 418 CURVE SMOOTH",
"429 418 OFFCURVE",
"439 410 OFFCURVE",
"439 401 CURVE SMOOTH",
"439 396 OFFCURVE",
"433 351 OFFCURVE"
);
}
);
width = 483;
}
);
userData = {
com.fontlab.hintData = {
hhints = (
{
position = -231;
width = 39;
},
{
position = 361;
width = 46;
},
{
position = 366;
width = 52;
},
{
position = 661;
width = 38;
}
);
vhints = (
{
position = 355;
width = 84;
}
);
};
};
},
{
glyphname = f_k;
lastChange = "2017-07-12 19:24:35 +0000";
layers = (
{
layerId = "42F082D8-1FA6-4D23-B964-75333DCE4509";
paths = (
{
closed = 1;
nodes = (
"576 388 CURVE SMOOTH",
"518 388 OFFCURVE",
"437 291 OFFCURVE",
"425 230 CURVE",
"492 230 OFFCURVE",
"609 271 OFFCURVE",
"609 354 CURVE SMOOTH",
"609 372 OFFCURVE",
"604 388 OFFCURVE"
);
},
{
closed = 1;
nodes = (
"418 559 LINE SMOOTH",
"419 564 OFFCURVE",
"422 585 OFFCURVE",
"422 589 CURVE SMOOTH",
"422 632 OFFCURVE",
"376 661 OFFCURVE",
"329 661 CURVE SMOOTH",
"263 661 OFFCURVE",
"215 579 OFFCURVE",
"187 413 CURVE",
"187 411 LINE SMOOTH",
"187 409 OFFCURVE",
"189 407 OFFCURVE",
"190 407 CURVE SMOOTH",
"305 407 LINE SMOOTH",
"309 407 OFFCURVE",
"310 400 OFFCURVE",
"310 395 CURVE SMOOTH",
"310 381 OFFCURVE",
"304 369 OFFCURVE",
"299 361 CURVE",
"182 361 LINE SMOOTH",
"180 361 OFFCURVE",
"177 361 OFFCURVE",
"176 353 CURVE SMOOTH",
"121 54 LINE",
"87 -142 OFFCURVE",
"-8 -231 OFFCURVE",
"-95 -231 CURVE SMOOTH",
"-146 -231 OFFCURVE",
"-170 -207 OFFCURVE",
"-176 -190 CURVE",
"-177 -160 OFFCURVE",
"-159 -131 OFFCURVE",
"-135 -131 CURVE SMOOTH",
"-108 -131 OFFCURVE",
"-103 -192 OFFCURVE",
"-61 -192 CURVE SMOOTH",
"-6 -192 OFFCURVE",
"36 -42 OFFCURVE",
"46 15 CURVE SMOOTH",
"106 354 LINE",
"106 356 LINE SMOOTH",
"106 359 OFFCURVE",
"105 361 OFFCURVE",
"103 361 CURVE SMOOTH",
"38 361 LINE SMOOTH",
"37 361 OFFCURVE",
"36 362 OFFCURVE",
"36 364 CURVE SMOOTH",
"36 374 OFFCURVE",
"61 407 OFFCURVE",
"84 407 CURVE SMOOTH",
"113 407 LINE SMOOTH",
"116 407 OFFCURVE",
"118 412 OFFCURVE",
"119 416 CURVE SMOOTH",
"146 582 OFFCURVE",
"247 699 OFFCURVE",
"347 699 CURVE SMOOTH",
"401 699 OFFCURVE",
"430 678 OFFCURVE",
"442 678 CURVE SMOOTH",
"464 678 OFFCURVE",
"510 694 OFFCURVE",
"520 694 CURVE SMOOTH",
"525 694 OFFCURVE",
"525 682 OFFCURVE",
"525 678 CURVE",
"525 678 OFFCURVE",
"506 646 OFFCURVE",
"495 591 CURVE SMOOTH",
"443 322 LINE",
"448 326 OFFCURVE",
"526 435 OFFCURVE",
"612 435 CURVE SMOOTH",
"651 435 OFFCURVE",
"687 406 OFFCURVE",
"687 367 CURVE SMOOTH",
"687 276 OFFCURVE",
"587 230 OFFCURVE",
"476 211 CURVE",
"564 79 OFFCURVE",
"592 51 OFFCURVE",
"633 51 CURVE SMOOTH",
"650 51 OFFCURVE",
"690 93 OFFCURVE",
"701 107 CURVE",
"704 107 OFFCURVE",
"711 93 OFFCURVE",
"711 88 CURVE",
"703 74 OFFCURVE",
"633 -4 OFFCURVE",
"589 -4 CURVE SMOOTH",
"510 -4 OFFCURVE",
"460 119 OFFCURVE",
"417 191 CURVE",
"380 0 LINE",
"369 -3 OFFCURVE",
"356 -5 OFFCURVE",
"345 -5 CURVE SMOOTH",
"334 -5 OFFCURVE",
"321 -3 OFFCURVE",
"309 0 CURVE"
);
}
);
width = 743;
}
);
userData = {
com.fontlab.hintData = {
hhints = (
{
position = -231;
width = 39;
},
{
position = -4;
width = 55;
},
{
position = 361;
width = 46;
},
{
position = 388;
width = 47;
},
{
position = 661;
width = 38;
},
{
position = 674;
width = 20;
}
);
vhints = (
{
position = 609;
width = 78;
}
);
};
};
},
{
glyphname = f_l;
lastChange = "2017-07-12 19:24:35 +0000";
layers = (
{
layerId = "42F082D8-1FA6-4D23-B964-75333DCE4509";
paths = (
{
closed = 1;
nodes = (
"495 591 CURVE SMOOTH",
"400 106 LINE SMOOTH",
"399 102 OFFCURVE",
"396 79 OFFCURVE",
"396 74 CURVE SMOOTH",
"396 65 OFFCURVE",
"396 49 OFFCURVE",
"406 49 CURVE SMOOTH",
"427 49 OFFCURVE",
"473 104 OFFCURVE",
"476 107 CURVE",
"479 107 OFFCURVE",
"486 94 OFFCURVE",
"486 88 CURVE",
"475 69 OFFCURVE",
"402 -6 OFFCURVE",
"355 -6 CURVE SMOOTH",
"333 -6 OFFCURVE",
"321 16 OFFCURVE",
"321 46 CURVE SMOOTH",
"321 54 OFFCURVE",
"324 78 OFFCURVE",
"328 99 CURVE SMOOTH",
"418 559 LINE SMOOTH",
"419 563 OFFCURVE",
"422 585 OFFCURVE",
"422 589 CURVE SMOOTH",
"422 632 OFFCURVE",
"376 661 OFFCURVE",
"329 661 CURVE SMOOTH",
"263 661 OFFCURVE",
"215 579 OFFCURVE",
"187 413 CURVE",
"187 411 LINE SMOOTH",
"187 409 OFFCURVE",
"189 407 OFFCURVE",
"190 407 CURVE SMOOTH",
"305 407 LINE SMOOTH",
"309 407 OFFCURVE",
"310 400 OFFCURVE",
"310 395 CURVE SMOOTH",
"310 381 OFFCURVE",
"304 369 OFFCURVE",
"299 361 CURVE",
"182 361 LINE SMOOTH",
"180 361 OFFCURVE",
"177 361 OFFCURVE",
"176 353 CURVE SMOOTH",
"121 54 LINE",
"87 -142 OFFCURVE",
"-8 -231 OFFCURVE",
"-95 -231 CURVE SMOOTH",
"-146 -231 OFFCURVE",
"-170 -207 OFFCURVE",
"-176 -190 CURVE",
"-177 -160 OFFCURVE",
"-159 -131 OFFCURVE",
"-135 -131 CURVE SMOOTH",
"-108 -131 OFFCURVE",
"-103 -192 OFFCURVE",
"-61 -192 CURVE SMOOTH",
"-6 -192 OFFCURVE",
"36 -42 OFFCURVE",
"46 15 CURVE SMOOTH",
"106 354 LINE",
"106 356 LINE SMOOTH",
"106 359 OFFCURVE",
"105 361 OFFCURVE",
"103 361 CURVE SMOOTH",
"38 361 LINE SMOOTH",
"37 361 OFFCURVE",
"36 362 OFFCURVE",
"36 364 CURVE SMOOTH",
"36 374 OFFCURVE",
"61 407 OFFCURVE",
"84 407 CURVE SMOOTH",
"113 407 LINE SMOOTH",
"116 407 OFFCURVE",
"118 412 OFFCURVE",
"119 416 CURVE SMOOTH",
"146 582 OFFCURVE",
"247 699 OFFCURVE",
"347 699 CURVE SMOOTH",
"401 699 OFFCURVE",
"430 678 OFFCURVE",
"442 678 CURVE SMOOTH",
"464 678 OFFCURVE",
"510 694 OFFCURVE",
"520 694 CURVE SMOOTH",
"525 694 OFFCURVE",
"525 682 OFFCURVE",
"525 678 CURVE",
"525 678 OFFCURVE",
"506 646 OFFCURVE"
);
}
);
width = 530;
}
);
userData = {
com.fontlab.hintData = {
hhints = (
{
position = -231;
width = 39;
},
{
position = -6;
width = 55;
},
{
position = 361;
width = 46;
},
{
position = 661;
width = 38;
},
{
position = 674;
width = 20;
}
);
vhints = (
{
position = 321;
width = 75;
}
);
};
};
},
{
glyphname = a.sc;
lastChange = "2017-07-12 19:24:35 +0000";
layers = (
{
layerId = "42F082D8-1FA6-4D23-B964-75333DCE4509";
paths = (
{
closed = 1;
nodes = (
"378 -3 LINE",
"355 -1 OFFCURVE",
"320 1 OFFCURVE",
"294 1 CURVE SMOOTH",
"267 1 OFFCURVE",
"229 -1 OFFCURVE",
"202 -3 CURVE",
"199 1 OFFCURVE",
"204 22 OFFCURVE",
"208 26 CURVE",
"215 26 OFFCURVE",
"250 29 OFFCURVE",
"256 34 CURVE SMOOTH",
"258 36 OFFCURVE",
"259 39 OFFCURVE",
"260 43 CURVE SMOOTH",
"245 164 LINE",
"245 164 OFFCURVE",
"244 166 OFFCURVE",
"242 166 CURVE SMOOTH",
"227 168 OFFCURVE",
"200 167 OFFCURVE",
"185 167 CURVE SMOOTH",
"161 167 OFFCURVE",
"153 167 OFFCURVE",
"126 164 CURVE SMOOTH",
"125 164 OFFCURVE",
"124 163 OFFCURVE",
"124 163 CURVE"
);
},
{
closed = 1;
nodes = (
"146 207 CURVE SMOOTH",
"145 207 OFFCURVE",
"145 209 OFFCURVE",
"145 209 CURVE",
"222 351 LINE",
"242 210 LINE",
"242 210 OFFCURVE",
"241 208 OFFCURVE",
"240 208 CURVE SMOOTH",
"222 206 OFFCURVE",
"210 205 OFFCURVE",
"192 205 CURVE SMOOTH",
"178 205 OFFCURVE",
"161 206 OFFCURVE"
);
}
);
width = 438;
}
);
userData = {
com.fontlab.hintData = {
hhints = (
{
position = -3;
width = 29;
},
{
position = 167;
width = 38;
}
);
};
};
},
{
glyphname = aogonek.sc;
lastChange = "2017-07-12 19:24:35 +0000";
layers = (
{
layerId = "42F082D8-1FA6-4D23-B964-75333DCE4509";
paths = (
{
closed = 1;
nodes = (
"144 207 CURVE SMOOTH",
"143 207 OFFCURVE",
"143 209 OFFCURVE",
"143 209 CURVE",
"220 351 LINE",
"240 210 LINE",
"240 210 OFFCURVE",
"240 208 OFFCURVE",
"239 208 CURVE SMOOTH",
"221 206 OFFCURVE",
"208 205 OFFCURVE",
"190 205 CURVE SMOOTH",
"176 205 OFFCURVE",
"159 206 OFFCURVE"
);
},
{
closed = 1;
nodes = (
"378 -3 LINE",
"373 -3 OFFCURVE",
"362 -2 OFFCURVE",
"362 -2 CURVE SMOOTH",
"323 0 OFFCURVE",
"245 -77 OFFCURVE",
"236 -121 CURVE SMOOTH",
"233 -136 OFFCURVE",
"234 -164 OFFCURVE",
"263 -164 CURVE SMOOTH",
"307 -164 OFFCURVE",
"335 -126 OFFCURVE",
"340 -126 CURVE SMOOTH",
"341 -126 OFFCURVE",
"344 -131 OFFCURVE",
"342 -139 CURVE SMOOTH",
"341 -144 OFFCURVE",
"337 -153 OFFCURVE",
"334 -157 CURVE SMOOTH",
"309 -186 OFFCURVE",
"269 -223 OFFCURVE",
"230 -223 CURVE SMOOTH",
"182 -223 OFFCURVE",
"179 -173 OFFCURVE",
"184 -146 CURVE SMOOTH",
"194 -93 OFFCURVE",
"275 -13 OFFCURVE",
"315 1 CURVE",
"307 1 OFFCURVE",
"301 1 OFFCURVE",
"294 1 CURVE SMOOTH",
"267 1 OFFCURVE",
"227 -1 OFFCURVE",
"200 -3 CURVE",
"197 1 OFFCURVE",
"203 22 OFFCURVE",
"207 26 CURVE",
"214 26 OFFCURVE",
"250 29 OFFCURVE",
"256 34 CURVE SMOOTH",
"258 36 OFFCURVE",
"259 39 OFFCURVE",
"260 43 CURVE SMOOTH",
"244 164 LINE",
"244 164 OFFCURVE",
"243 166 OFFCURVE",
"241 166 CURVE SMOOTH",
"226 168 OFFCURVE",
"199 167 OFFCURVE",
"184 167 CURVE SMOOTH",
"160 167 OFFCURVE",
"151 167 OFFCURVE",
"124 164 CURVE SMOOTH",
"123 164 OFFCURVE",
"122 163 OFFCURVE",
"122 163 CURVE"
);
}
);
width = 438;
}
);
userData = {
com.fontlab.hintData = {
hhints = (
{
position = -223;
width = 59;
},
{
position = -3;
width = 29;
},
{
position = 167;
width = 40;
}
);
};
};
},
